<?xml version="1.0" encoding="utf-8"?>
<!-- Generator: Adobe Illustrator 16.0.0, SVG Export Plug-In . SVG Version: 6.00 Build 0)  -->
<!DOCTYPE svg PUBLIC "-//W3C//DTD SVG 1.1//EN" "http://www.w3.org/Graphics/SVG/1.1/DTD/svg11.dtd">
<svg version="1.1" id="Layer_1" xmlns="http://www.w3.org/2000/svg" xmlns:xlink="http://www.w3.org/1999/xlink" x="0px" y="0px"
	 width="82px" height="93px" viewBox="0 0 82 93" enable-background="new 0 0 82 93" xml:space="preserve">
<path fill="#294BB7" d="M82,40.975C82,18.345,63.644,0,41,0C18.356,0,0,18.345,0,40.975c0,18.068,11.708,33.393,27.95,38.842
	c0.2,0.105,0.405,0.207,0.614,0.303c1.661,0.755,4.261,3.079,5.681,5.162l4.191,6.172c1.419,2.084,3.678,2.058,5.049-0.059
	l3.874-6.055c1.371-2.115,3.74-4.362,5.38-4.993c0.274-0.104,0.527-0.223,0.771-0.348C70.035,74.714,82,59.244,82,40.975z"/>
</svg>
