<?xml version="1.0" encoding="utf-8"?>
<!-- Generator: Adobe Illustrator 16.0.0, SVG Export Plug-In . SVG Version: 6.00 Build 0)  -->
<!DOCTYPE svg PUBLIC "-//W3C//DTD SVG 1.1//EN" "http://www.w3.org/Graphics/SVG/1.1/DTD/svg11.dtd">
<svg version="1.1" id="Layer_1" xmlns="http://www.w3.org/2000/svg" xmlns:xlink="http://www.w3.org/1999/xlink" x="0px" y="0px"
	 width="30px" height="29.945px" viewBox="0 0 30 29.945" enable-background="new 0 0 30 29.945" xml:space="preserve">
<path opacity="0.8" fill="#FFFFFF" d="M13.457,22.709h3.054v-7.735h2.129l0.229-2.59h-2.357c0,0,0-0.967,0-1.475
	c0-0.61,0.121-0.853,0.706-0.853c0.468,0,1.651,0,1.651,0V7.369c0,0-1.742,0-2.115,0c-2.271,0-3.296,1.014-3.296,2.949
	c0,1.689,0,2.065,0,2.065h-1.589v2.623h1.589V22.709z"/>
<path opacity="0.8" fill="#59C5D1" d="M15,29.945c-8.271,0-15-6.729-15-15C0,6.675,6.729-0.054,15-0.054c8.271,0,15,6.729,15,14.999
	C30,23.217,23.271,29.945,15,29.945z M15,0.957c-7.72,0-14,6.275-14,13.988c0,7.714,6.28,13.989,14,13.989s14-6.275,14-13.989
	C29,7.232,22.72,0.957,15,0.957z"/>
</svg>
