<?xml version="1.0" encoding="UTF-8" standalone="no"?>
<svg
   xmlns:dc="http://purl.org/dc/elements/1.1/"
   xmlns:cc="http://creativecommons.org/ns#"
   xmlns:rdf="http://www.w3.org/1999/02/22-rdf-syntax-ns#"
   xmlns:svg="http://www.w3.org/2000/svg"
   xmlns="http://www.w3.org/2000/svg"
   viewBox="0 0 1116.152 288.91467"
   height="288.91467"
   width="1116.152"
   xml:space="preserve"
   id="svg2"
   version="1.1"><metadata
     id="metadata8"><rdf:RDF><cc:Work
         rdf:about=""><dc:format>image/svg+xml</dc:format><dc:type
           rdf:resource="http://purl.org/dc/dcmitype/StillImage" /></cc:Work></rdf:RDF></metadata><defs
     id="defs6"><clipPath
       id="clipPath24"
       clipPathUnits="userSpaceOnUse"><path
         id="path22"
         d="m 49.684,81.045 9.692,-38.232 3.021,14.523 z" /></clipPath><linearGradient
       id="linearGradient34"
       spreadMethod="pad"
       gradientTransform="matrix(11.633942,-1.2139742,1.2139742,11.633942,48.131885,62.596817)"
       gradientUnits="userSpaceOnUse"
       y2="0"
       x2="1"
       y1="0"
       x1="0"><stop
         id="stop30"
         offset="0"
         style="stop-opacity:1;stop-color:#c3e7a5" /><stop
         id="stop32"
         offset="1"
         style="stop-opacity:1;stop-color:#57c6b6" /></linearGradient><clipPath
       id="clipPath44"
       clipPathUnits="userSpaceOnUse"><path
         id="path42"
         d="M 31.785,110.009 56.801,48.282 47.431,85.23 Z" /></clipPath><linearGradient
       id="linearGradient54"
       spreadMethod="pad"
       gradientTransform="matrix(-22.523619,-52.907791,52.907791,-22.523619,55.122959,104.58478)"
       gradientUnits="userSpaceOnUse"
       y2="0"
       x2="1"
       y1="0"
       x1="0"><stop
         id="stop50"
         offset="0"
         style="stop-opacity:1;stop-color:#c3e7a5" /><stop
         id="stop52"
         offset="1"
         style="stop-opacity:1;stop-color:#4cbb9f" /></linearGradient><clipPath
       id="clipPath64"
       clipPathUnits="userSpaceOnUse"><path
         id="path62"
         d="m 35.346,132.699 -4.46,-12.77 4.81,7.253 z" /></clipPath><linearGradient
       id="linearGradient78"
       spreadMethod="pad"
       gradientTransform="matrix(-8.1984329,-19.258049,19.258049,-8.1984329,37.587765,134.79623)"
       gradientUnits="userSpaceOnUse"
       y2="0"
       x2="1"
       y1="0"
       x1="0"><stop
         id="stop70"
         offset="0"
         style="stop-opacity:1;stop-color:#ebf278" /><stop
         id="stop72"
         offset="0.1626"
         style="stop-opacity:1;stop-color:#ebf278" /><stop
         id="stop74"
         offset="0.5487"
         style="stop-opacity:1;stop-color:#a3d88a" /><stop
         id="stop76"
         offset="1"
         style="stop-opacity:1;stop-color:#4cbb9f" /></linearGradient><clipPath
       id="clipPath88"
       clipPathUnits="userSpaceOnUse"><path
         id="path86"
         d="M 29.511,115.773 46.339,89.12 36.07,125.656 Z" /></clipPath><linearGradient
       id="linearGradient112"
       spreadMethod="pad"
       gradientTransform="matrix(-13.187413,-30.977121,30.977121,-13.187413,46.531818,122.66405)"
       gradientUnits="userSpaceOnUse"
       y2="0"
       x2="1"
       y1="0"
       x1="0"><stop
         id="stop94"
         offset="0"
         style="stop-opacity:1;stop-color:#ebf278" /><stop
         id="stop96"
         offset="0.2208"
         style="stop-opacity:1;stop-color:#e8f179" /><stop
         id="stop98"
         offset="0.3788"
         style="stop-opacity:1;stop-color:#e0ef7c" /><stop
         id="stop100"
         offset="0.5172"
         style="stop-opacity:1;stop-color:#d1e87f" /><stop
         id="stop102"
         offset="0.6444"
         style="stop-opacity:1;stop-color:#bae086" /><stop
         id="stop104"
         offset="0.7638"
         style="stop-opacity:1;stop-color:#9ed68c" /><stop
         id="stop106"
         offset="0.8775"
         style="stop-opacity:1;stop-color:#7aca95" /><stop
         id="stop108"
         offset="0.9847"
         style="stop-opacity:1;stop-color:#52bc9d" /><stop
         id="stop110"
         offset="1"
         style="stop-opacity:1;stop-color:#4cbb9f" /></linearGradient><linearGradient
       id="linearGradient132"
       spreadMethod="pad"
       gradientTransform="matrix(11.015542,-5.4906154,5.4906154,11.015542,36.225288,109.98351)"
       gradientUnits="userSpaceOnUse"
       y2="0"
       x2="1"
       y1="0"
       x1="0"><stop
         id="stop128"
         offset="0"
         style="stop-opacity:1;stop-color:#8cd369" /><stop
         id="stop130"
         offset="1"
         style="stop-opacity:1;stop-color:#67c881" /></linearGradient><linearGradient
       id="linearGradient152"
       spreadMethod="pad"
       gradientTransform="matrix(5.230619,17.095999,-17.095999,5.230619,45.247223,122.77025)"
       gradientUnits="userSpaceOnUse"
       y2="0"
       x2="1"
       y1="0"
       x1="0"><stop
         id="stop148"
         offset="0"
         style="stop-opacity:1;stop-color:#a8d157" /><stop
         id="stop150"
         offset="1"
         style="stop-opacity:1;stop-color:#8cd369" /></linearGradient><linearGradient
       id="linearGradient172"
       spreadMethod="pad"
       gradientTransform="matrix(-17.805942,-41.826008,41.826008,-17.805942,52.948471,167.63031)"
       gradientUnits="userSpaceOnUse"
       y2="0"
       x2="1"
       y1="0"
       x1="0"><stop
         id="stop168"
         offset="0"
         style="stop-opacity:1;stop-color:#a8d157" /><stop
         id="stop170"
         offset="1"
         style="stop-opacity:1;stop-color:#8cd369" /></linearGradient><linearGradient
       id="linearGradient202"
       spreadMethod="pad"
       gradientTransform="matrix(4.8504877,-4.1350064,4.1350064,4.8504877,58.833073,168.34807)"
       gradientUnits="userSpaceOnUse"
       y2="0"
       x2="1"
       y1="0"
       x1="0"><stop
         id="stop192"
         offset="0"
         style="stop-opacity:1;stop-color:#f2f6a4" /><stop
         id="stop194"
         offset="0.0476"
         style="stop-opacity:1;stop-color:#f0f59e" /><stop
         id="stop196"
         offset="0.4832"
         style="stop-opacity:1;stop-color:#e0ee6f" /><stop
         id="stop198"
         offset="0.8143"
         style="stop-opacity:1;stop-color:#d6e956" /><stop
         id="stop200"
         offset="1"
         style="stop-opacity:1;stop-color:#d2e84b" /></linearGradient><linearGradient
       id="linearGradient238"
       spreadMethod="pad"
       gradientTransform="matrix(6.3790674,10.906247,-10.906247,6.3790674,73.90876,164.95282)"
       gradientUnits="userSpaceOnUse"
       y2="0"
       x2="1"
       y1="0"
       x1="0"><stop
         id="stop218"
         offset="0"
         style="stop-opacity:1;stop-color:#f8facc" /><stop
         id="stop220"
         offset="0.0335"
         style="stop-opacity:1;stop-color:#f4f8bf" /><stop
         id="stop222"
         offset="0.1328"
         style="stop-opacity:1;stop-color:#e9f398" /><stop
         id="stop224"
         offset="0.2365"
         style="stop-opacity:1;stop-color:#e2ef7b" /><stop
         id="stop226"
         offset="0.344"
         style="stop-opacity:1;stop-color:#daec66" /><stop
         id="stop228"
         offset="0.457"
         style="stop-opacity:1;stop-color:#d6ea59" /><stop
         id="stop230"
         offset="0.579"
         style="stop-opacity:1;stop-color:#d3e84e" /><stop
         id="stop232"
         offset="0.7267"
         style="stop-opacity:1;stop-color:#d2e84b" /><stop
         id="stop234"
         offset="0.7653"
         style="stop-opacity:1;stop-color:#d2e84b" /><stop
         id="stop236"
         offset="1"
         style="stop-opacity:1;stop-color:#d2e84b" /></linearGradient><linearGradient
       id="linearGradient264"
       spreadMethod="pad"
       gradientTransform="matrix(-11.549692,-27.130129,27.130129,-11.549692,72.48642,167.1656)"
       gradientUnits="userSpaceOnUse"
       y2="0"
       x2="1"
       y1="0"
       x1="0"><stop
         id="stop254"
         offset="0"
         style="stop-opacity:1;stop-color:#c3e7a5" /><stop
         id="stop256"
         offset="0.2013"
         style="stop-opacity:1;stop-color:#bde59e" /><stop
         id="stop258"
         offset="0.5096"
         style="stop-opacity:1;stop-color:#aee08c" /><stop
         id="stop260"
         offset="0.8845"
         style="stop-opacity:1;stop-color:#94d671" /><stop
         id="stop262"
         offset="1"
         style="stop-opacity:1;stop-color:#8cd369" /></linearGradient><linearGradient
       id="linearGradient294"
       spreadMethod="pad"
       gradientTransform="matrix(-23.074367,-6.7348676,6.7348676,-23.074367,68.437111,136.04219)"
       gradientUnits="userSpaceOnUse"
       y2="0"
       x2="1"
       y1="0"
       x1="0"><stop
         id="stop280"
         offset="0"
         style="stop-opacity:1;stop-color:#c3e7a5" /><stop
         id="stop282"
         offset="0.1797"
         style="stop-opacity:1;stop-color:#c2e7a1" /><stop
         id="stop284"
         offset="0.3649"
         style="stop-opacity:1;stop-color:#c0e695" /><stop
         id="stop286"
         offset="0.5528"
         style="stop-opacity:1;stop-color:#bee482" /><stop
         id="stop288"
         offset="0.7425"
         style="stop-opacity:1;stop-color:#bae26b" /><stop
         id="stop290"
         offset="0.9318"
         style="stop-opacity:1;stop-color:#b3de4b" /><stop
         id="stop292"
         offset="1"
         style="stop-opacity:1;stop-color:#b1dd3d" /></linearGradient><linearGradient
       id="linearGradient322"
       spreadMethod="pad"
       gradientTransform="matrix(-19.251194,-45.22089,45.22089,-19.251194,126.08347,174.78992)"
       gradientUnits="userSpaceOnUse"
       y2="0"
       x2="1"
       y1="0"
       x1="0"><stop
         id="stop318"
         offset="0"
         style="stop-opacity:1;stop-color:#57c6b6" /><stop
         id="stop320"
         offset="1"
         style="stop-opacity:1;stop-color:#3a80c9" /></linearGradient><linearGradient
       id="linearGradient350"
       spreadMethod="pad"
       gradientTransform="matrix(-19.250593,-45.219479,45.219479,-19.250593,91.023148,189.71666)"
       gradientUnits="userSpaceOnUse"
       y2="0"
       x2="1"
       y1="0"
       x1="0"><stop
         id="stop338"
         offset="0"
         style="stop-opacity:1;stop-color:#c3e7a5" /><stop
         id="stop340"
         offset="0.0488"
         style="stop-opacity:1;stop-color:#bee69e" /><stop
         id="stop342"
         offset="0.2986"
         style="stop-opacity:1;stop-color:#a7dc84" /><stop
         id="stop344"
         offset="0.5441"
         style="stop-opacity:1;stop-color:#97d776" /><stop
         id="stop346"
         offset="0.781"
         style="stop-opacity:1;stop-color:#8fd46c" /><stop
         id="stop348"
         offset="1"
         style="stop-opacity:1;stop-color:#8cd369" /></linearGradient><linearGradient
       id="linearGradient374"
       spreadMethod="pad"
       gradientTransform="matrix(-24.769291,-30.581531,30.581531,-24.769291,130.91637,110.79247)"
       gradientUnits="userSpaceOnUse"
       y2="0"
       x2="1"
       y1="0"
       x1="0"><stop
         id="stop370"
         offset="0"
         style="stop-opacity:1;stop-color:#3b8ebd" /><stop
         id="stop372"
         offset="1"
         style="stop-opacity:1;stop-color:#336ab5" /></linearGradient><linearGradient
       id="linearGradient394"
       spreadMethod="pad"
       gradientTransform="matrix(13.39728,-13.211999,13.211999,13.39728,64.931168,54.998455)"
       gradientUnits="userSpaceOnUse"
       y2="0"
       x2="1"
       y1="0"
       x1="0"><stop
         id="stop390"
         offset="0"
         style="stop-opacity:1;stop-color:#c3e7a5" /><stop
         id="stop392"
         offset="1"
         style="stop-opacity:1;stop-color:#57c6b6" /></linearGradient><linearGradient
       id="linearGradient418"
       spreadMethod="pad"
       gradientTransform="matrix(-12.513332,-29.393711,29.393711,-12.513332,89.719086,59.9375)"
       gradientUnits="userSpaceOnUse"
       y2="0"
       x2="1"
       y1="0"
       x1="0"><stop
         id="stop414"
         offset="0"
         style="stop-opacity:1;stop-color:#40a1c6" /><stop
         id="stop416"
         offset="1"
         style="stop-opacity:1;stop-color:#57c6b6" /></linearGradient><linearGradient
       id="linearGradient438"
       spreadMethod="pad"
       gradientTransform="matrix(5.0323019,-12.958149,12.958149,5.0323019,109.0179,74.586861)"
       gradientUnits="userSpaceOnUse"
       y2="0"
       x2="1"
       y1="0"
       x1="0"><stop
         id="stop434"
         offset="0"
         style="stop-opacity:1;stop-color:#58c6b5" /><stop
         id="stop436"
         offset="1"
         style="stop-opacity:1;stop-color:#3b7dc9" /></linearGradient><linearGradient
       id="linearGradient470"
       spreadMethod="pad"
       gradientTransform="matrix(4.9608197,-3.7139707,3.7139707,4.9608197,131.06944,96.553764)"
       gradientUnits="userSpaceOnUse"
       y2="0"
       x2="1"
       y1="0"
       x1="0"><stop
         id="stop454"
         offset="0"
         style="stop-opacity:1;stop-color:#4eb4e8" /><stop
         id="stop456"
         offset="0.1576"
         style="stop-opacity:1;stop-color:#4eb4e8" /><stop
         id="stop458"
         offset="0.4019"
         style="stop-opacity:1;stop-color:#4db2e7" /><stop
         id="stop460"
         offset="0.5614"
         style="stop-opacity:1;stop-color:#4aace2" /><stop
         id="stop462"
         offset="0.6966"
         style="stop-opacity:1;stop-color:#47a2db" /><stop
         id="stop464"
         offset="0.8183"
         style="stop-opacity:1;stop-color:#4293d2" /><stop
         id="stop466"
         offset="0.9299"
         style="stop-opacity:1;stop-color:#3b81c6" /><stop
         id="stop468"
         offset="1"
         style="stop-opacity:1;stop-color:#3775bd" /></linearGradient><clipPath
       id="clipPath480"
       clipPathUnits="userSpaceOnUse"><path
         id="path478"
         d="M 0,216.686 H 837.114 V 0 H 0 Z" /></clipPath></defs><g
     transform="matrix(1.3333333,0,0,-1.3333333,0,288.91467)"
     id="g10"><path
       id="path12"
       style="fill:#ffffff;fill-opacity:1;fill-rule:nonzero;stroke:none"
       d="M 0,1.134 H 837.114 V 216.686 L 0,216.686 Z" /><g
       transform="translate(48.9547,84.8404)"
       id="g14"><path
         id="path16"
         style="fill:#94d9b8;fill-opacity:1;fill-rule:nonzero;stroke:none"
         d="m 0,0 14.179,-26.439 23.4,24.794 z" /></g><g
       id="g18"><g
         clip-path="url(#clipPath24)"
         id="g20"><g
           id="g26"><g
             id="g28"><path
               id="path36"
               style="fill:url(#linearGradient34);stroke:none"
               d="m 49.684,81.045 9.692,-38.232 3.021,14.523 z" /></g></g></g></g><g
       id="g38"><g
         clip-path="url(#clipPath44)"
         id="g40"><g
           id="g46"><g
             id="g48"><path
               id="path56"
               style="fill:url(#linearGradient54);stroke:none"
               d="M 31.785,110.009 56.801,48.282 47.431,85.23 Z" /></g></g></g></g><g
       id="g58"><g
         clip-path="url(#clipPath64)"
         id="g60"><g
           id="g66"><g
             id="g68"><path
               id="path80"
               style="fill:url(#linearGradient78);stroke:none"
               d="m 35.346,132.699 -4.46,-12.77 4.81,7.253 z" /></g></g></g></g><g
       id="g82"><g
         clip-path="url(#clipPath88)"
         id="g84"><g
           id="g90"><g
             id="g92"><path
               id="path114"
               style="fill:url(#linearGradient112);stroke:none"
               d="M 29.511,115.773 46.339,89.12 36.07,125.656 Z" /></g></g></g></g><g
       id="g116"><g
         id="g118"><g
           id="g124"><g
             id="g126"><path
               id="path134"
               style="fill:url(#linearGradient132);stroke:none"
               d="m 37.253,125.698 10.614,-37.743 5.325,27.32 z" /></g></g></g></g><g
       id="g136"><g
         id="g138"><g
           id="g144"><g
             id="g146"><path
               id="path154"
               style="fill:url(#linearGradient152);stroke:none"
               d="m 46.995,144.29 -9.938,-17.081 15.911,-10.41 z" /></g></g></g></g><g
       id="g156"><g
         id="g158"><g
           id="g164"><g
             id="g166"><path
               id="path174"
               style="fill:url(#linearGradient172);stroke:none"
               d="m 47.598,157.259 -11.27,-21.805 0.455,-6.59 9.898,17.18 z" /></g></g></g></g><g
       transform="translate(68.2947,166.3623)"
       id="g176"><path
         id="path178"
         style="fill:#8dd369;fill-opacity:1;fill-rule:nonzero;stroke:none"
         d="m 0,0 -19.16,-7.07 -1.168,-11.959 z" /></g><g
       id="g180"><g
         id="g182"><g
           id="g188"><g
             id="g190"><path
               id="path204"
               style="fill:url(#linearGradient202);stroke:none"
               d="m 67.904,170.76 -13.899,-8.441 15.846,5.846 z" /></g></g></g></g><g
       id="g206"><g
         id="g208"><g
           id="g214"><g
             id="g216"><path
               id="path240"
               style="fill:url(#linearGradient238);stroke:none"
               d="M 92.33,181.623 68.945,171.29 70.922,168.656 Z" /></g></g></g></g><g
       id="g242"><g
         id="g244"><g
           id="g250"><g
             id="g252"><path
               id="path266"
               style="fill:url(#linearGradient264);stroke:none"
               d="M 70.475,166.817 48.531,146.279 77.085,142.584 Z" /></g></g></g></g><g
       id="g268"><g
         id="g270"><g
           id="g276"><g
             id="g278"><path
               id="path296"
               style="fill:url(#linearGradient294);stroke:none"
               d="m 47.981,145.187 6.176,-28.428 22.539,24.711 z" /></g></g></g></g><g
       transform="translate(86.9633,85.3147)"
       id="g298"><path
         id="path300"
         style="fill:#94d9b8;fill-opacity:1;fill-rule:nonzero;stroke:none"
         d="M 0,0 -9.463,55.326 -32.319,30.267 Z" /></g><g
       transform="translate(48.6593,86.0093)"
       id="g302"><path
         id="path304"
         style="fill:#4cbb9f;fill-opacity:1;fill-rule:nonzero;stroke:none"
         d="M 0,0 37.63,-1.65 5.539,28.403 Z" /></g><g
       id="g306"><g
         id="g308"><g
           id="g314"><g
             id="g316"><path
               id="path324"
               style="fill:url(#linearGradient322);stroke:none"
               d="M 141.268,131.706 100.391,184.7 78.743,142.338 Z" /></g></g></g></g><g
       id="g326"><g
         id="g328"><g
           id="g334"><g
             id="g336"><path
               id="path352"
               style="fill:url(#linearGradient350);stroke:none"
               d="M 98.855,184.228 71.45,167.625 78.039,143.492 Z" /></g></g></g></g><g
       transform="translate(141.3208,130.5289)"
       id="g354"><path
         id="path356"
         style="fill:#47bcb8;fill-opacity:1;fill-rule:nonzero;stroke:none"
         d="m 0,0 -62.742,10.665 9.635,-56.374 z" /></g><g
       id="g358"><g
         id="g360"><g
           id="g366"><g
             id="g368"><path
               id="path376"
               style="fill:url(#linearGradient374);stroke:none"
               d="m 117.718,69.516 23.51,59.41 -52.37,-45.079 z" /></g></g></g></g><g
       id="g378"><g
         id="g380"><g
           id="g386"><g
             id="g388"><path
               id="path396"
               style="fill:url(#linearGradient394);stroke:none"
               d="M 60.15,40.857 96.833,42.394 63.427,56.617 Z" /></g></g></g></g><g
       transform="translate(116.2701,68.9445)"
       id="g398"><path
         id="path400"
         style="fill:#47bcb8;fill-opacity:1;fill-rule:nonzero;stroke:none"
         d="M 0,0 -28.325,14.066 -51.594,-10.586 Z" /></g><g
       id="g402"><g
         id="g404"><g
           id="g410"><g
             id="g412"><path
               id="path420"
               style="fill:url(#linearGradient418);stroke:none"
               d="M 99.199,42.638 116.728,67.862 64.931,57.231 Z" /></g></g></g></g><g
       id="g422"><g
         id="g424"><g
           id="g430"><g
             id="g432"><path
               id="path440"
               style="fill:url(#linearGradient438);stroke:none"
               d="m 100.783,42.896 8.191,2.22 18.356,35.213 -8.838,-11.946 z" /></g></g></g></g><g
       id="g442"><g
         id="g444"><g
           id="g450"><g
             id="g452"><path
               id="path472"
               style="fill:url(#linearGradient470);stroke:none"
               d="m 130.713,86.844 9.067,35.283 -19.596,-49.518 z" /></g></g></g></g><g
       id="g474"><g
         clip-path="url(#clipPath480)"
         id="g476"><g
           transform="translate(184.6433,139.744)"
           id="g482"><path
             id="path484"
             style="fill:#231f20;fill-opacity:1;fill-rule:nonzero;stroke:none"
             d="M 0,0 C 0,-2.485 0.284,-3.875 0.858,-4.167 2.65,-4.831 3.549,-5.926 3.549,-7.455 v -11.16 c 0,-3.389 -1.839,-5.084 -5.523,-5.084 h -7.93 c -3.653,0 -5.482,1.695 -5.482,5.084 V 6.696 h 3.984 v -25.311 c 0,-1.051 0.501,-1.576 1.498,-1.576 h 7.93 c 1.023,0 1.535,0.525 1.535,1.576 v 10.364 c 0,0.45 -0.145,0.829 -0.439,1.134 -0.29,0.308 -0.775,0.558 -1.452,0.76 C -3.394,-6.04 -3.947,-3.921 -3.983,0 Z" /></g><g
           transform="translate(196.5625,129.4988)"
           id="g486"><path
             id="path488"
             style="fill:#231f20;fill-opacity:1;fill-rule:nonzero;stroke:none"
             d="m 0,0 v -8.37 c 0,-1.051 0.496,-1.576 1.493,-1.576 h 7.972 c 0.997,0 1.498,0.525 1.498,1.576 l 0.099,14.709 c 0,1.062 -0.502,1.594 -1.494,1.594 H 7.672 c -4.515,0 -6.778,2.943 -6.778,8.83 h 3.988 c 0,-3.563 0.915,-5.342 2.749,-5.342 h 1.937 c 3.653,0 5.477,-1.695 5.477,-5.082 L 14.947,-8.37 c 0,-3.389 -1.824,-5.084 -5.482,-5.084 H 1.493 c -3.653,0 -5.482,1.695 -5.482,5.084 l 0,8.37 z" /></g><g
           transform="translate(217.3887,139.8629)"
           id="g490"><path
             id="path492"
             style="fill:#231f20;fill-opacity:1;fill-rule:nonzero;stroke:none"
             d="m 0,0 c -0.015,0.106 -0.021,0.199 -0.021,0.279 v 0.279 c 0,1.328 0.357,2.315 1.075,2.96 0.718,0.644 1.782,0.967 3.193,0.967 h 3.027 c 1.158,0 3.317,-0.985 6.479,-2.951 v 5.022 h 3.984 v -25.31 c 0,-3.39 -1.958,-5.084 -5.88,-5.084 H 4.283 c -3.653,0 -5.482,1.694 -5.482,5.084 l 0.202,7.912 H 2.986 L 2.79,-18.754 c 0,-1.052 0.496,-1.576 1.493,-1.576 h 7.574 c 1.261,0 1.896,0.524 1.896,1.576 V -2.909 C 10.431,-0.305 8.137,0.997 6.877,0.997 H 5.482 C 4.35,0.997 3.787,0.465 3.787,-0.597 L 3.983,-5.799 H 0 Z" /></g><g
           transform="translate(243.6966,129.4988)"
           id="g494"><path
             id="path496"
             style="fill:#231f20;fill-opacity:1;fill-rule:nonzero;stroke:none"
             d="m 0,0 v -8.37 c 0,-1.051 0.496,-1.576 1.493,-1.576 h 7.972 c 0.997,0 1.498,0.525 1.498,1.576 l 0.099,14.709 c 0,1.062 -0.502,1.594 -1.494,1.594 H 7.672 c -4.515,0 -6.778,2.943 -6.778,8.83 h 3.988 c 0,-3.563 0.915,-5.342 2.749,-5.342 h 1.937 c 3.653,0 5.477,-1.695 5.477,-5.082 L 14.947,-8.37 c 0,-3.389 -1.824,-5.084 -5.482,-5.084 H 1.493 c -3.653,0 -5.482,1.695 -5.482,5.084 l 0,8.37 z" /></g><g
           transform="translate(283.7578,142.7535)"
           id="g498"><path
             id="path500"
             style="fill:#231f20;fill-opacity:1;fill-rule:nonzero;stroke:none"
             d="m 0,0 h -14.094 c -1.53,-0.054 -2.294,-0.511 -2.294,-1.377 l -0.057,-4.345 c 1.25,0.651 2.356,0.979 3.327,0.979 h 3.348 c 1.209,0 2.439,-0.886 3.689,-2.653 1.25,1.767 2.609,2.653 4.087,2.653 h 4.422 c 3.761,0 5.642,-1.694 5.642,-5.084 L 7.869,-26.21 H 3.885 l 0.197,16.383 c 0.015,0.532 -0.124,0.93 -0.419,1.196 -0.289,0.266 -0.718,0.398 -1.276,0.398 h -4.381 c -1.395,0 -2.093,-0.529 -2.093,-1.594 v -10.005 h -3.988 v 10.005 c 0,1.065 -0.563,1.594 -1.695,1.594 h -5.182 c -1.023,0 -1.519,-0.529 -1.493,-1.594 l 0.196,-16.383 h -3.983 v 16.383 l -0.14,8.949 c 0,2.911 1.902,4.365 5.699,4.365 L 0,3.487 Z" /></g><g
           transform="translate(308.8671,119.5533)"
           id="g502"><path
             id="path504"
             style="fill:#231f20;fill-opacity:1;fill-rule:nonzero;stroke:none"
             d="m 0,0 c 1.131,0 1.695,0.524 1.695,1.576 v 20.229 c 0,1.062 -0.899,1.594 -2.692,1.594 h -5.978 c -0.997,0 -1.498,-0.532 -1.498,-1.594 V 1.576 C -8.473,0.524 -7.972,0 -6.975,0 Z m 14.451,-3.009 0.196,24.972 c 0,0.958 -0.563,1.436 -1.689,1.436 H 9.171 c -2.155,0 -3.369,-0.917 -3.648,-2.751 0.026,-0.199 0.052,-0.4 0.078,-0.607 0.025,-0.207 0.051,-0.416 0.077,-0.628 V 1.576 C 5.678,-1.813 3.787,-3.508 0,-3.508 h -6.975 c -3.653,0 -5.481,1.695 -5.481,5.084 v 20.229 c 0,3.387 1.813,5.082 5.44,5.082 h 6.019 c 1.86,0 3.441,-0.951 4.743,-2.85 1.198,1.899 2.723,2.85 4.588,2.85 h 4.624 c 3.782,0 5.678,-1.641 5.678,-4.924 L 18.434,-3.009 Z" /></g><g
           transform="translate(340.357,133.4848)"
           id="g506"><path
             id="path508"
             style="fill:#231f20;fill-opacity:1;fill-rule:nonzero;stroke:none"
             d="m 0,0 h 4.448 c 1.22,0 1.829,0.79 1.829,2.371 v 5.702 c 0,0.93 -0.496,1.395 -1.493,1.395 h -6.876 c -0.93,0 -1.395,-0.52 -1.395,-1.555 l 0.16,-4.663 h -3.984 l -0.16,4.663 c 0,3.36 1.778,5.042 5.342,5.042 h 6.913 c 3.653,0 5.482,-1.627 5.482,-4.882 V 3.567 c 0,-2.193 -1.002,-3.905 -3.007,-5.14 2.268,-1.238 3.405,-3.01 3.405,-5.322 v -5.481 c 0,-3.39 -1.824,-5.084 -5.482,-5.084 H -2.79 c -3.653,0 -5.482,1.694 -5.482,5.084 l 0.202,6.755 h 3.983 l -0.196,-6.755 c 0,-1.052 0.496,-1.576 1.493,-1.576 h 7.972 c 0.997,0 1.498,0.524 1.498,1.576 v 6.677 c 0,1.46 -0.635,2.191 -1.896,2.191 l -4.784,0 z" /></g><g
           transform="translate(356.9984,141.418)"
           id="g510"><path
             id="path512"
             style="fill:#231f20;fill-opacity:1;fill-rule:nonzero;stroke:none"
             d="m 0,0 c -0.01,0.093 -0.016,0.178 -0.016,0.258 v 0.279 c 0,1.517 0.424,2.64 1.282,3.379 0.857,0.736 2.118,1.106 3.777,1.106 h 7.016 c 3.658,0 5.481,-1.641 5.481,-4.924 v -20.387 c 0,-3.389 -1.823,-5.084 -5.481,-5.084 H 4.087 c -3.653,0 -5.482,1.695 -5.482,5.084 l 0.202,7.711 H 2.79 l -0.196,-7.711 c 0,-1.051 0.496,-1.576 1.493,-1.576 h 7.972 c 0.997,0 1.498,0.525 1.498,1.576 V 0.098 c 0,0.959 -0.501,1.436 -1.498,1.436 H 5.084 C 4.221,1.534 3.787,1.023 3.787,0 L 3.989,-5.66 H 0 Z" /></g><g
           transform="translate(403.838,130.0361)"
           id="g514"><path
             id="path516"
             style="fill:#231f20;fill-opacity:1;fill-rule:nonzero;stroke:none"
             d="m 0,0 v 11.34 c 0,1.065 -0.563,1.597 -1.695,1.597 h -4.582 c -1.132,0 -1.695,-0.532 -1.695,-1.597 V 0 h -3.988 v 11.34 c 0,1.065 -0.496,1.597 -1.494,1.597 h -5.781 c -0.997,0 -1.493,-0.532 -1.493,-1.597 l 0.32,-16.341 c 0,-3.348 1.359,-5.025 4.082,-5.025 l 25.094,0.021 v -3.508 h -25.291 c -5.264,0 -7.894,2.836 -7.894,8.512 l -0.3,16.341 c 0,3.39 1.814,5.084 5.446,5.084 h 5.817 c 1.049,0 2.207,-0.816 3.467,-2.451 1.25,1.635 2.475,2.451 3.668,2.451 h 4.624 c 1.158,0 2.367,-0.798 3.627,-2.392 1.251,1.594 2.501,2.392 3.746,2.392 h 5.223 c 3.762,0 5.642,-1.694 5.642,-5.084 L 15.944,-4.782 H 11.96 l 0.595,16.122 c 0,1.065 -0.564,1.597 -1.695,1.597 H 5.678 c -1.126,0 -1.695,-0.532 -1.695,-1.597 L 3.983,0 Z" /></g><g
           transform="translate(437.1207,124.5157)"
           id="g518"><path
             id="path520"
             style="fill:#231f20;fill-opacity:1;fill-rule:nonzero;stroke:none"
             d="m 0,0 v 16.861 c 0,1.064 -0.961,1.596 -2.888,1.596 h -3.787 c -1.023,0 -1.524,-0.532 -1.498,-1.596 l 0.201,-24.833 h -3.983 l -0.202,24.833 c 0,3.389 1.814,5.084 5.441,5.084 h 3.828 c 1.994,0 3.622,-1.018 4.882,-3.051 1.251,2.033 2.878,3.051 4.883,3.051 h 3.43 c 3.756,0 5.637,-1.695 5.637,-5.084 L 15.748,-7.972 h -3.989 l 0.201,24.833 c 0,1.064 -0.568,1.596 -1.694,1.596 H 6.877 c -1.927,0 -2.888,-0.532 -2.888,-1.596 L 3.989,0 Z" /></g><g
           transform="translate(473.2347,139.744)"
           id="g522"><path
             id="path524"
             style="fill:#231f20;fill-opacity:1;fill-rule:nonzero;stroke:none"
             d="M 0,0 C 0,-2.485 0.284,-3.875 0.858,-4.167 2.65,-4.831 3.549,-5.926 3.549,-7.455 v -11.16 c 0,-3.389 -1.839,-5.084 -5.523,-5.084 h -7.93 c -3.653,0 -5.482,1.695 -5.482,5.084 V 6.696 h 3.984 v -25.311 c 0,-1.051 0.501,-1.576 1.498,-1.576 h 7.93 c 1.023,0 1.535,0.525 1.535,1.576 v 10.364 c 0,0.45 -0.145,0.829 -0.439,1.134 -0.29,0.308 -0.775,0.558 -1.452,0.76 C -3.394,-6.04 -3.947,-3.921 -3.983,0 Z" /></g><g
           transform="translate(495.3629,116.5231)"
           id="g526"><path
             id="path528"
             style="fill:#231f20;fill-opacity:1;fill-rule:nonzero;stroke:none"
             d="m 0,0 -0.202,24.874 c 0,3.348 1.814,5.022 5.441,5.022 h 7.476 c 3.611,0 5.419,-1.674 5.419,-5.022 L 17.933,0 H 13.95 l 0.196,24.874 c 0,1.023 -0.475,1.535 -1.431,1.535 H 5.28 c -1.023,0 -1.524,-0.512 -1.498,-1.535 L 3.983,0 Z" /></g><g
           transform="translate(531.7352,119.5533)"
           id="g530"><path
             id="path532"
             style="fill:#231f20;fill-opacity:1;fill-rule:nonzero;stroke:none"
             d="m 0,0 c 0.997,0 1.493,0.524 1.493,1.576 v 10.263 c 0,0.997 -0.496,1.496 -1.493,1.496 h -6.577 c -1.927,0 -2.893,-0.499 -2.893,-1.496 V 1.576 C -9.47,0.524 -8.969,0 -7.972,0 Z m -13.454,21.426 c 0,3.389 1.829,5.083 5.482,5.083 l 11.459,-0.02 v -3.488 l -11.459,0.018 c -0.997,0 -1.498,-0.529 -1.498,-1.593 v -5.542 c 0.987,0.626 1.937,0.938 2.852,0.938 H 0 c 3.653,0 5.482,-1.661 5.482,-4.983 V 1.576 C 5.482,-1.813 3.653,-3.508 0,-3.508 h -7.972 c -3.653,0 -5.482,1.695 -5.482,5.084 z" /></g><g
           transform="translate(553.9564,124.5157)"
           id="g534"><path
             id="path536"
             style="fill:#231f20;fill-opacity:1;fill-rule:nonzero;stroke:none"
             d="m 0,0 v 16.861 c 0,1.064 -0.961,1.596 -2.888,1.596 h -3.787 c -1.023,0 -1.524,-0.532 -1.498,-1.596 l 0.201,-24.833 h -3.983 l -0.202,24.833 c 0,3.389 1.814,5.084 5.441,5.084 h 3.828 c 1.994,0 3.622,-1.018 4.882,-3.051 1.251,2.033 2.878,3.051 4.883,3.051 h 3.43 c 3.756,0 5.637,-1.695 5.637,-5.084 L 15.748,-7.972 h -3.989 l 0.202,24.833 c 0,1.064 -0.569,1.596 -1.695,1.596 H 6.877 c -1.927,0 -2.888,-0.532 -2.888,-1.596 L 3.989,0 Z" /></g><g
           transform="translate(582.7545,133.4848)"
           id="g538"><path
             id="path540"
             style="fill:#231f20;fill-opacity:1;fill-rule:nonzero;stroke:none"
             d="m 0,0 h 4.448 c 1.22,0 1.829,0.79 1.829,2.371 v 5.702 c 0,0.93 -0.496,1.395 -1.493,1.395 h -6.876 c -0.93,0 -1.395,-0.52 -1.395,-1.555 l 0.16,-4.663 h -3.984 l -0.16,4.663 c 0,3.36 1.778,5.042 5.342,5.042 h 6.913 c 3.653,0 5.482,-1.627 5.482,-4.882 V 3.567 c 0,-2.193 -1.002,-3.905 -3.007,-5.14 2.268,-1.238 3.405,-3.01 3.405,-5.322 v -5.481 c 0,-3.39 -1.824,-5.084 -5.482,-5.084 H -2.79 c -3.653,0 -5.482,1.694 -5.482,5.084 l 0.202,6.755 h 3.983 l -0.196,-6.755 c 0,-1.052 0.496,-1.576 1.493,-1.576 h 7.972 c 0.997,0 1.498,0.524 1.498,1.576 v 6.677 c 0,1.46 -0.635,2.191 -1.896,2.191 l -4.784,0 z" /></g><g
           transform="translate(601.9895,129.4988)"
           id="g542"><path
             id="path544"
             style="fill:#231f20;fill-opacity:1;fill-rule:nonzero;stroke:none"
             d="m 0,0 v -8.37 c 0,-1.051 0.496,-1.576 1.493,-1.576 h 7.972 c 0.997,0 1.498,0.525 1.498,1.576 l 0.099,14.709 c 0,1.062 -0.502,1.594 -1.494,1.594 H 7.672 c -4.515,0 -6.778,2.943 -6.778,8.83 h 3.988 c 0,-3.563 0.915,-5.342 2.749,-5.342 h 1.937 c 3.653,0 5.477,-1.695 5.477,-5.082 L 14.947,-8.37 c 0,-3.389 -1.824,-5.084 -5.482,-5.084 H 1.493 c -3.653,0 -5.482,1.695 -5.482,5.084 l 0,8.37 z" /></g><g
           transform="translate(635.7888,146.4605)"
           id="g546"><path
             id="path548"
             style="fill:#231f20;fill-opacity:1;fill-rule:nonzero;stroke:none"
             d="m 0,0 c 0,-1.834 0.558,-2.751 1.674,-2.751 2.578,0 3.87,-1.341 3.87,-4.025 v -3.707 c 0,-1.503 -0.698,-2.738 -2.093,-3.709 1.674,-1.261 2.511,-2.537 2.511,-3.826 v -7.334 c 0,-3.389 -1.896,-5.084 -5.683,-5.084 h -8.768 c -3.652,0 -5.481,1.695 -5.481,5.084 v 24.773 h 3.983 v -24.773 c 0,-1.051 0.501,-1.576 1.498,-1.576 h 8.768 c 1.131,0 1.695,0.525 1.695,1.576 v 7.334 c 0,1.328 -0.564,1.994 -1.695,1.994 h -5.978 v 3.487 l 5.978,0.021 c 0.424,0 0.744,0.111 0.956,0.339 0.212,0.224 0.32,0.545 0.32,0.955 v 3.09 c 0,1.235 -0.351,1.855 -1.054,1.855 -2.991,0 -4.484,2.092 -4.484,6.277 z" /></g><g
           transform="translate(646.5352,116.5231)"
           id="g550"><path
             id="path552"
             style="fill:#231f20;fill-opacity:1;fill-rule:nonzero;stroke:none"
             d="m 0,0 -0.202,24.874 c 0,3.348 1.814,5.022 5.441,5.022 h 7.476 c 3.611,0 5.419,-1.674 5.419,-5.022 L 17.933,0 H 13.95 l 0.196,24.874 c 0,1.023 -0.475,1.535 -1.431,1.535 H 5.28 c -1.023,0 -1.524,-0.512 -1.498,-1.535 L 3.983,0 Z" /></g><g
           transform="translate(670.6473,141.418)"
           id="g554"><path
             id="path556"
             style="fill:#231f20;fill-opacity:1;fill-rule:nonzero;stroke:none"
             d="m 0,0 c -0.01,0.093 -0.016,0.178 -0.016,0.258 v 0.279 c 0,1.517 0.424,2.64 1.282,3.379 0.857,0.736 2.118,1.106 3.777,1.106 h 7.016 c 3.658,0 5.481,-1.641 5.481,-4.924 v -20.387 c 0,-3.389 -1.823,-5.084 -5.481,-5.084 H 4.087 c -3.653,0 -5.482,1.695 -5.482,5.084 l 0.202,7.711 H 2.79 l -0.196,-7.711 c 0,-1.051 0.496,-1.576 1.493,-1.576 h 7.972 c 0.997,0 1.498,0.525 1.498,1.576 V 0.098 c 0,0.959 -0.501,1.436 -1.498,1.436 H 5.084 C 4.221,1.534 3.787,1.023 3.787,0 L 3.989,-5.66 H 0 Z" /></g><g
           transform="translate(706.224,119.5533)"
           id="g558"><path
             id="path560"
             style="fill:#231f20;fill-opacity:1;fill-rule:nonzero;stroke:none"
             d="m 0,0 c 0.997,0 1.498,0.524 1.498,1.576 v 10.162 c 0,1.065 -0.501,1.597 -1.498,1.597 h -8.37 c -0.728,0 -1.095,-0.532 -1.095,-1.597 V 1.576 C -9.465,0.524 -8.969,0 -7.972,0 Z m -13.454,11.738 c 0,3.39 1.752,5.084 5.244,5.084 h 2.692 l 0.398,1.852 c 0,2.101 -0.698,3.503 -2.092,4.206 -1.395,0.679 -2.093,2.079 -2.093,4.205 h 5.001 c 0.016,-1.154 0.543,-2.164 1.597,-3.027 0.93,-0.76 1.395,-2.248 1.395,-4.467 v -0.676 c 0,-0.08 -0.011,-0.161 -0.021,-0.241 l -0.201,-1.852 h 2.433 c 3.053,0 4.583,-1.694 4.583,-5.084 V 1.576 C 5.482,-1.813 3.658,-3.508 0,-3.508 h -7.972 c -3.653,0 -5.482,1.695 -5.482,5.084 z" /></g><g
           transform="translate(716.495,116.5231)"
           id="g562"><path
             id="path564"
             style="fill:#231f20;fill-opacity:1;fill-rule:nonzero;stroke:none"
             d="m 0,0 -0.201,24.874 c 0,3.348 1.813,5.022 5.44,5.022 h 7.476 c 3.611,0 5.42,-1.674 5.42,-5.022 L 17.933,0 H 13.95 l 0.196,24.874 c 0,1.023 -0.475,1.535 -1.431,1.535 H 5.28 c -1.023,0 -1.524,-0.512 -1.498,-1.535 L 3.983,0 Z" /></g><g
           transform="translate(754.7996,139.744)"
           id="g566"><path
             id="path568"
             style="fill:#231f20;fill-opacity:1;fill-rule:nonzero;stroke:none"
             d="M 0,0 C 0,-2.485 0.284,-3.875 0.858,-4.167 2.65,-4.831 3.549,-5.926 3.549,-7.455 v -11.16 c 0,-3.389 -1.839,-5.084 -5.523,-5.084 h -7.93 c -3.653,0 -5.482,1.695 -5.482,5.084 V 6.696 h 3.984 v -25.311 c 0,-1.051 0.501,-1.576 1.498,-1.576 h 7.93 c 1.023,0 1.535,0.525 1.535,1.576 v 10.364 c 0,0.45 -0.145,0.829 -0.439,1.134 -0.29,0.308 -0.775,0.558 -1.452,0.76 C -3.394,-6.04 -3.947,-3.921 -3.983,0 Z" /></g><g
           transform="translate(195.589,81.9165)"
           id="g570"><path
             id="path572"
             style="fill:#231f20;fill-opacity:1;fill-rule:nonzero;stroke:none"
             d="m 0,0 c 0.863,0 1.297,0.478 1.297,1.434 v 10.604 c 0,0.969 -0.434,1.454 -1.297,1.454 h -7.972 c -1.131,0 -1.695,-0.485 -1.695,-1.454 V 1.434 C -9.667,0.478 -9.103,0 -7.972,0 Z m -0.837,-12.896 -19.095,-0.02 c -2.098,0 -3.653,0.534 -4.655,1.604 -1.003,1.069 -1.504,2.707 -1.504,4.913 l -0.32,18.297 c 0,3.387 1.829,5.082 5.481,5.082 h 4.624 c 1.85,0 3.328,-0.884 4.444,-2.651 0.93,1.767 2.226,2.651 3.89,2.651 h 8.013 c 3.493,0 5.239,-1.648 5.239,-4.942 V 1.434 C 5.28,-1.863 3.518,-3.508 0,-3.508 h -7.972 c -3.787,0 -5.683,1.645 -5.683,4.942 v 10.604 c 0,0.969 -1.163,1.454 -3.488,1.454 h -3.787 c -0.997,0 -1.493,-0.532 -1.493,-1.594 l 0.321,-17.62 c 0,-2.485 1.446,-3.728 4.345,-3.728 l 16.92,0.021 z" /></g><g
           transform="translate(209.2389,81.9552)"
           id="g574"><path
             id="path576"
             style="fill:#231f20;fill-opacity:1;fill-rule:nonzero;stroke:none"
             d="m 0,0 v -8.37 c 0,-1.051 0.496,-1.576 1.493,-1.576 h 7.972 c 0.997,0 1.498,0.525 1.498,1.576 l 0.099,14.709 c 0,1.062 -0.502,1.594 -1.494,1.594 H 7.672 c -4.515,0 -6.778,2.943 -6.778,8.83 h 3.988 c 0,-3.563 0.915,-5.342 2.749,-5.342 h 1.937 c 3.653,0 5.477,-1.695 5.477,-5.082 L 14.947,-8.37 c 0,-3.389 -1.824,-5.084 -5.482,-5.084 H 1.493 c -3.653,0 -5.482,1.695 -5.482,5.084 l 0,8.37 z" /></g><g
           transform="translate(252.3484,94.2128)"
           id="g578"><path
             id="path580"
             style="fill:#231f20;fill-opacity:1;fill-rule:nonzero;stroke:none"
             d="m 0,0 h -4.004 c -0.997,0 -1.498,-0.431 -1.498,-1.294 v -19.333 c 0,-1.052 0.501,-1.576 1.498,-1.576 H 8.013 c 0.863,0 1.297,0.524 1.297,1.576 V -1.294 C 9.31,-0.431 8.876,0 8.013,0 H 3.591 V -8.122 H 0 Z m -9.486,-1.594 c 0,3.188 1.814,4.784 5.441,4.784 H 0 V 4.683 H 3.591 V 3.19 h 4.422 c 3.519,0 5.28,-1.596 5.28,-4.784 v -19.033 c 0,-3.39 -1.761,-5.084 -5.28,-5.084 H -4.004 c -3.653,0 -5.482,1.694 -5.482,5.084 z" /></g><g
           transform="translate(271.6195,93.8744)"
           id="g582"><path
             id="path584"
             style="fill:#231f20;fill-opacity:1;fill-rule:nonzero;stroke:none"
             d="m 0,0 c -0.01,0.093 -0.016,0.178 -0.016,0.258 v 0.279 c 0,1.517 0.424,2.64 1.282,3.379 0.857,0.736 2.118,1.106 3.777,1.106 h 7.016 c 3.658,0 5.481,-1.641 5.481,-4.924 v -20.387 c 0,-3.389 -1.823,-5.084 -5.481,-5.084 H 4.087 c -3.653,0 -5.482,1.695 -5.482,5.084 l 0.202,7.711 H 2.79 l -0.196,-7.711 c 0,-1.051 0.496,-1.576 1.493,-1.576 h 7.972 c 0.997,0 1.498,0.525 1.498,1.576 V 0.098 c 0,0.959 -0.501,1.436 -1.498,1.436 H 5.084 C 4.221,1.534 3.787,1.023 3.787,0 L 3.989,-5.66 H 0 Z" /></g><g
           transform="translate(294.9411,92.3193)"
           id="g586"><path
             id="path588"
             style="fill:#231f20;fill-opacity:1;fill-rule:nonzero;stroke:none"
             d="m 0,0 c -0.016,0.106 -0.021,0.199 -0.021,0.279 v 0.279 c 0,1.328 0.357,2.315 1.075,2.96 0.718,0.644 1.782,0.967 3.193,0.967 h 3.027 c 1.158,0 3.317,-0.985 6.479,-2.951 v 5.022 h 3.984 v -25.31 c 0,-3.39 -1.958,-5.084 -5.88,-5.084 H 4.283 c -3.653,0 -5.482,1.694 -5.482,5.084 l 0.202,7.912 H 2.986 L 2.79,-18.754 c 0,-1.052 0.496,-1.576 1.493,-1.576 h 7.574 c 1.261,0 1.896,0.524 1.896,1.576 V -2.909 C 10.431,-0.305 8.137,0.997 6.877,0.997 H 5.482 C 4.35,0.997 3.787,0.465 3.787,-0.597 L 3.983,-5.799 H 0 Z" /></g><g
           transform="translate(330.9156,72.0097)"
           id="g590"><path
             id="path592"
             style="fill:#231f20;fill-opacity:1;fill-rule:nonzero;stroke:none"
             d="m 0,0 c 0.997,0 1.493,0.524 1.493,1.576 v 10.263 c 0,0.997 -0.496,1.496 -1.493,1.496 h -6.577 c -1.927,0 -2.893,-0.499 -2.893,-1.496 V 1.576 C -9.47,0.524 -8.969,0 -7.972,0 Z m -13.454,21.426 c 0,3.389 1.829,5.083 5.482,5.083 l 11.459,-0.02 v -3.488 l -11.459,0.018 c -0.997,0 -1.498,-0.529 -1.498,-1.593 v -5.542 c 0.987,0.626 1.937,0.938 2.852,0.938 H 0 c 3.653,0 5.482,-1.661 5.482,-4.983 V 1.576 C 5.482,-1.813 3.653,-3.508 0,-3.508 h -7.972 c -3.653,0 -5.482,1.695 -5.482,5.084 z" /></g><g
           transform="translate(353.1368,76.9721)"
           id="g594"><path
             id="path596"
             style="fill:#231f20;fill-opacity:1;fill-rule:nonzero;stroke:none"
             d="m 0,0 v 16.861 c 0,1.064 -0.961,1.596 -2.888,1.596 h -3.787 c -1.023,0 -1.524,-0.532 -1.498,-1.596 l 0.201,-24.833 h -3.983 l -0.202,24.833 c 0,3.389 1.814,5.084 5.441,5.084 h 3.828 c 1.994,0 3.622,-1.018 4.882,-3.051 1.251,2.033 2.878,3.051 4.883,3.051 h 3.43 c 3.756,0 5.637,-1.695 5.637,-5.084 L 15.748,-7.972 h -3.989 l 0.201,24.833 c 0,1.064 -0.568,1.596 -1.694,1.596 H 6.877 c -1.927,0 -2.888,-0.532 -2.888,-1.596 L 3.989,0 Z" /></g><g
           transform="translate(398.38,82.4925)"
           id="g598"><path
             id="path600"
             style="fill:#231f20;fill-opacity:1;fill-rule:nonzero;stroke:none"
             d="m 0,0 v 11.34 c 0,1.065 -0.563,1.597 -1.695,1.597 h -4.582 c -1.132,0 -1.695,-0.532 -1.695,-1.597 V 0 h -3.989 v 11.34 c 0,1.065 -0.495,1.597 -1.493,1.597 h -5.781 c -0.997,0 -1.493,-0.532 -1.493,-1.597 l 0.32,-16.341 c 0,-3.348 1.359,-5.025 4.082,-5.025 l 25.094,0.021 v -3.508 h -25.291 c -5.264,0 -7.894,2.836 -7.894,8.512 l -0.3,16.341 c 0,3.39 1.814,5.084 5.446,5.084 h 5.817 c 1.049,0 2.206,-0.816 3.467,-2.451 1.25,1.635 2.475,2.451 3.668,2.451 h 4.624 c 1.158,0 2.367,-0.798 3.627,-2.392 1.251,1.594 2.501,2.392 3.746,2.392 h 5.223 c 3.762,0 5.642,-1.694 5.642,-5.084 L 15.944,-4.782 H 11.96 l 0.595,16.122 c 0,1.065 -0.564,1.597 -1.695,1.597 H 5.678 c -1.126,0 -1.695,-0.532 -1.695,-1.597 L 3.983,0 Z" /></g><g
           transform="translate(431.6627,76.9721)"
           id="g602"><path
             id="path604"
             style="fill:#231f20;fill-opacity:1;fill-rule:nonzero;stroke:none"
             d="m 0,0 v 16.861 c 0,1.064 -0.961,1.596 -2.888,1.596 h -3.787 c -1.023,0 -1.524,-0.532 -1.498,-1.596 l 0.201,-24.833 h -3.983 l -0.202,24.833 c 0,3.389 1.814,5.084 5.441,5.084 h 3.828 c 1.994,0 3.622,-1.018 4.882,-3.051 1.251,2.033 2.878,3.051 4.883,3.051 h 3.43 c 3.756,0 5.637,-1.695 5.637,-5.084 L 15.748,-7.972 h -3.989 l 0.202,24.833 c 0,1.064 -0.569,1.596 -1.695,1.596 H 6.877 c -1.927,0 -2.888,-0.532 -2.888,-1.596 L 3.989,0 Z" /></g><g
           transform="translate(467.2393,72.0097)"
           id="g606"><path
             id="path608"
             style="fill:#231f20;fill-opacity:1;fill-rule:nonzero;stroke:none"
             d="m 0,0 c 0.997,0 1.493,0.524 1.493,1.576 v 9.963 c 0,1.196 -0.63,1.796 -1.891,1.796 h -9.17 c -0.998,0 -1.494,-0.6 -1.494,-1.796 V 1.576 C -11.062,0.524 -10.566,0 -9.568,0 Z m -15.05,11.539 c 0,3.521 1.813,5.283 5.445,5.283 h 7.311 v 4.983 c 0,1.062 -0.532,1.594 -1.591,1.594 h -3.09 c -1.173,0 -1.741,-0.431 -1.715,-1.297 l 0.021,-1.692 h -3.787 v 2.491 c 0,2.658 1.555,3.986 4.665,3.986 h 5.301 c 2.79,0 4.185,-1.429 4.185,-4.286 v -5.998 c 1.286,0 2.242,-0.313 2.857,-0.938 0.62,-0.623 0.93,-1.602 0.93,-2.93 V 1.576 C 5.482,-1.813 3.653,-3.508 0,-3.508 h -9.568 c -3.653,0 -5.482,1.695 -5.482,5.084 z" /></g><g
           transform="translate(477.5052,68.9795)"
           id="g610"><path
             id="path612"
             style="fill:#231f20;fill-opacity:1;fill-rule:nonzero;stroke:none"
             d="m 0,0 -0.202,24.874 c 0,3.348 1.814,5.022 5.441,5.022 h 7.476 c 3.611,0 5.419,-1.674 5.419,-5.022 L 17.933,0 H 13.95 l 0.196,24.874 c 0,1.023 -0.475,1.535 -1.431,1.535 H 5.28 c -1.023,0 -1.524,-0.512 -1.498,-1.535 L 3.983,0 Z" /></g><g
           transform="translate(501.6174,93.8744)"
           id="g614"><path
             id="path616"
             style="fill:#231f20;fill-opacity:1;fill-rule:nonzero;stroke:none"
             d="m 0,0 c -0.01,0.093 -0.016,0.178 -0.016,0.258 v 0.279 c 0,1.517 0.424,2.64 1.282,3.379 0.857,0.736 2.118,1.106 3.777,1.106 h 7.016 c 3.658,0 5.481,-1.641 5.481,-4.924 v -20.387 c 0,-3.389 -1.823,-5.084 -5.481,-5.084 H 4.087 c -3.653,0 -5.482,1.695 -5.482,5.084 l 0.202,7.711 H 2.79 l -0.196,-7.711 c 0,-1.051 0.496,-1.576 1.493,-1.576 h 7.972 c 0.997,0 1.498,0.525 1.498,1.576 V 0.098 c 0,0.959 -0.501,1.436 -1.498,1.436 H 5.084 C 4.221,1.534 3.787,1.023 3.787,0 L 3.989,-5.66 H 0 Z" /></g><g
           transform="translate(537.194,72.0097)"
           id="g618"><path
             id="path620"
             style="fill:#231f20;fill-opacity:1;fill-rule:nonzero;stroke:none"
             d="m 0,0 c 0.997,0 1.498,0.524 1.498,1.576 v 10.162 c 0,1.065 -0.501,1.597 -1.498,1.597 h -8.37 c -0.728,0 -1.095,-0.532 -1.095,-1.597 V 1.576 C -9.465,0.524 -8.969,0 -7.972,0 Z m -13.454,11.738 c 0,3.39 1.752,5.084 5.244,5.084 h 2.692 l 0.398,1.852 c 0,2.101 -0.698,3.503 -2.092,4.206 -1.395,0.679 -2.093,2.079 -2.093,4.205 h 5.001 c 0.016,-1.154 0.543,-2.164 1.597,-3.027 0.93,-0.76 1.395,-2.248 1.395,-4.467 v -0.676 c 0,-0.08 -0.011,-0.161 -0.021,-0.241 l -0.201,-1.852 h 2.433 c 3.053,0 4.583,-1.694 4.583,-5.084 V 1.576 C 5.482,-1.813 3.658,-3.508 0,-3.508 h -7.972 c -3.653,0 -5.482,1.695 -5.482,5.084 z" /></g><g
           transform="translate(547.465,68.9795)"
           id="g622"><path
             id="path624"
             style="fill:#231f20;fill-opacity:1;fill-rule:nonzero;stroke:none"
             d="m 0,0 -0.201,24.874 c 0,3.348 1.813,5.022 5.44,5.022 h 7.476 c 3.611,0 5.42,-1.674 5.42,-5.022 L 17.933,0 H 13.95 l 0.196,24.874 c 0,1.023 -0.475,1.535 -1.431,1.535 H 5.28 c -1.023,0 -1.524,-0.512 -1.498,-1.535 L 3.983,0 Z" /></g><g
           transform="translate(585.7696,92.2004)"
           id="g626"><path
             id="path628"
             style="fill:#231f20;fill-opacity:1;fill-rule:nonzero;stroke:none"
             d="M 0,0 C 0,-2.485 0.284,-3.875 0.858,-4.167 2.65,-4.831 3.549,-5.926 3.549,-7.455 v -11.16 c 0,-3.389 -1.839,-5.084 -5.523,-5.084 h -7.93 c -3.653,0 -5.482,1.695 -5.482,5.084 V 6.696 h 3.984 v -25.311 c 0,-1.051 0.501,-1.576 1.498,-1.576 h 7.93 c 1.023,0 1.535,0.525 1.535,1.576 v 10.364 c 0,0.45 -0.145,0.829 -0.439,1.134 -0.29,0.308 -0.775,0.558 -1.452,0.76 C -3.394,-6.04 -3.947,-3.921 -3.983,0 Z" /></g><g
           transform="translate(623.0822,92.2004)"
           id="g630"><path
             id="path632"
             style="fill:#231f20;fill-opacity:1;fill-rule:nonzero;stroke:none"
             d="M 0,0 C 0,-2.485 0.284,-3.875 0.858,-4.167 2.65,-4.831 3.549,-5.926 3.549,-7.455 v -11.16 c 0,-3.389 -1.839,-5.084 -5.523,-5.084 h -7.93 c -3.653,0 -5.482,1.695 -5.482,5.084 V 6.696 h 3.983 v -25.311 c 0,-1.051 0.502,-1.576 1.499,-1.576 h 7.93 c 1.023,0 1.535,0.525 1.535,1.576 v 10.364 c 0,0.45 -0.145,0.829 -0.439,1.134 -0.29,0.308 -0.775,0.558 -1.452,0.76 C -3.394,-6.04 -3.947,-3.921 -3.983,0 Z" /></g><g
           transform="translate(635.0013,81.9552)"
           id="g634"><path
             id="path636"
             style="fill:#231f20;fill-opacity:1;fill-rule:nonzero;stroke:none"
             d="m 0,0 v -8.37 c 0,-1.051 0.496,-1.576 1.493,-1.576 h 7.972 c 0.997,0 1.498,0.525 1.498,1.576 l 0.099,14.709 c 0,1.062 -0.502,1.594 -1.494,1.594 H 7.672 c -4.515,0 -6.778,2.943 -6.778,8.83 h 3.988 c 0,-3.563 0.915,-5.342 2.749,-5.342 h 1.937 c 3.653,0 5.477,-1.695 5.477,-5.082 L 14.947,-8.37 c 0,-3.389 -1.824,-5.084 -5.482,-5.084 H 1.493 c -3.653,0 -5.482,1.695 -5.482,5.084 l 0,8.37 z" /></g><g
           transform="translate(658.6175,81.9552)"
           id="g638"><path
             id="path640"
             style="fill:#231f20;fill-opacity:1;fill-rule:nonzero;stroke:none"
             d="m 0,0 v -8.37 c 0,-1.051 0.496,-1.576 1.493,-1.576 h 7.972 c 0.997,0 1.498,0.525 1.498,1.576 l 0.099,14.709 c 0,1.062 -0.502,1.594 -1.494,1.594 H 7.672 c -4.515,0 -6.778,2.943 -6.778,8.83 h 3.988 c 0,-3.563 0.915,-5.342 2.749,-5.342 h 1.937 c 3.653,0 5.477,-1.695 5.477,-5.082 L 14.947,-8.37 c 0,-3.389 -1.824,-5.084 -5.482,-5.084 H 1.493 c -3.653,0 -5.482,1.695 -5.482,5.084 l 0,8.37 z" /></g><g
           transform="translate(693.2952,72.0097)"
           id="g642"><path
             id="path644"
             style="fill:#231f20;fill-opacity:1;fill-rule:nonzero;stroke:none"
             d="m 0,0 c 0.997,0 1.493,0.524 1.493,1.576 v 9.963 c 0,1.196 -0.63,1.796 -1.891,1.796 h -9.17 c -0.997,0 -1.494,-0.6 -1.494,-1.796 V 1.576 C -11.062,0.524 -10.565,0 -9.568,0 Z m -15.05,11.539 c 0,3.521 1.813,5.283 5.445,5.283 h 7.311 v 4.983 c 0,1.062 -0.532,1.594 -1.591,1.594 h -3.09 c -1.173,0 -1.741,-0.431 -1.715,-1.297 l 0.021,-1.692 h -3.787 v 2.491 c 0,2.658 1.555,3.986 4.665,3.986 h 5.301 c 2.79,0 4.185,-1.429 4.185,-4.286 v -5.998 c 1.286,0 2.242,-0.313 2.857,-0.938 0.62,-0.623 0.93,-1.602 0.93,-2.93 V 1.576 C 5.482,-1.813 3.653,-3.508 0,-3.508 h -9.568 c -3.653,0 -5.482,1.695 -5.482,5.084 z" /></g><g
           transform="translate(704.553,93.8744)"
           id="g646"><path
             id="path648"
             style="fill:#231f20;fill-opacity:1;fill-rule:nonzero;stroke:none"
             d="m 0,0 c -0.01,0.093 -0.016,0.178 -0.016,0.258 v 0.279 c 0,1.517 0.424,2.64 1.282,3.379 0.857,0.736 2.118,1.106 3.776,1.106 h 7.017 c 3.658,0 5.481,-1.641 5.481,-4.924 v -20.387 c 0,-3.389 -1.823,-5.084 -5.481,-5.084 H 4.087 c -3.653,0 -5.482,1.695 -5.482,5.084 l 0.202,7.711 H 2.79 l -0.196,-7.711 c 0,-1.051 0.496,-1.576 1.493,-1.576 h 7.972 c 0.997,0 1.498,0.525 1.498,1.576 V 0.098 c 0,0.959 -0.501,1.436 -1.498,1.436 H 5.084 C 4.221,1.534 3.787,1.023 3.787,0 L 3.989,-5.66 H 0 Z" /></g><g
           transform="translate(740.3312,72.0097)"
           id="g650"><path
             id="path652"
             style="fill:#231f20;fill-opacity:1;fill-rule:nonzero;stroke:none"
             d="m 0,0 c 0.997,0 1.493,0.524 1.493,1.576 v 10.263 c 0,0.997 -0.496,1.496 -1.493,1.496 h -6.577 c -1.927,0 -2.893,-0.499 -2.893,-1.496 V 1.576 C -9.47,0.524 -8.969,0 -7.972,0 Z m -13.454,21.426 c 0,3.389 1.829,5.083 5.482,5.083 l 11.459,-0.02 v -3.488 l -11.459,0.018 c -0.997,0 -1.498,-0.529 -1.498,-1.593 v -5.542 c 0.987,0.626 1.937,0.938 2.852,0.938 H 0 c 3.653,0 5.482,-1.661 5.482,-4.983 V 1.576 C 5.482,-1.813 3.653,-3.508 0,-3.508 h -7.972 c -3.653,0 -5.482,1.695 -5.482,5.084 z" /></g><g
           transform="translate(759.8813,94.2128)"
           id="g654"><path
             id="path656"
             style="fill:#231f20;fill-opacity:1;fill-rule:nonzero;stroke:none"
             d="m 0,0 h -4.004 c -0.997,0 -1.498,-0.431 -1.498,-1.294 v -19.333 c 0,-1.052 0.501,-1.576 1.498,-1.576 H 8.013 c 0.863,0 1.297,0.524 1.297,1.576 V -1.294 C 9.31,-0.431 8.876,0 8.013,0 H 3.591 V -13.412 H 0 Z m -9.486,-1.594 c 0,3.188 1.814,4.784 5.441,4.784 H 0 V 4.683 H 3.591 V 3.19 h 4.422 c 3.519,0 5.28,-1.596 5.28,-4.784 v -19.033 c 0,-3.39 -1.761,-5.084 -5.28,-5.084 H -4.004 c -3.653,0 -5.482,1.694 -5.482,5.084 z" /></g><g
           transform="translate(790.1157,76.9721)"
           id="g658"><path
             id="path660"
             style="fill:#231f20;fill-opacity:1;fill-rule:nonzero;stroke:none"
             d="m 0,0 v 16.861 c 0,1.064 -0.961,1.596 -2.888,1.596 h -3.787 c -1.023,0 -1.524,-0.532 -1.498,-1.596 l 0.201,-24.833 h -3.983 l -0.202,24.833 c 0,3.389 1.814,5.084 5.441,5.084 h 3.828 c 1.994,0 3.622,-1.018 4.882,-3.051 1.251,2.033 2.878,3.051 4.883,3.051 h 3.43 c 3.756,0 5.637,-1.695 5.637,-5.084 L 15.748,-7.972 h -3.989 l 0.202,24.833 c 0,1.064 -0.569,1.596 -1.695,1.596 H 6.877 c -1.927,0 -2.888,-0.532 -2.888,-1.596 L 3.989,0 Z" /></g></g></g></g></svg>