<?xml version="1.0" encoding="utf-8"?>
<!-- Generator: Adobe Illustrator 16.0.0, SVG Export Plug-In . SVG Version: 6.00 Build 0)  -->
<!DOCTYPE svg PUBLIC "-//W3C//DTD SVG 1.1//EN" "http://www.w3.org/Graphics/SVG/1.1/DTD/svg11.dtd">
<svg version="1.1" id="Layer_1" xmlns="http://www.w3.org/2000/svg" xmlns:xlink="http://www.w3.org/1999/xlink" x="0px" y="0px"
	 width="260px" height="66px" viewBox="0 0 260 66" enable-background="new 0 0 260 66" xml:space="preserve">
<g>
	<g>
		<polygon fill="#93D0BE" points="8.466,45.206 14.38,56.235 24.141,45.894 		"/>
		<g>
			<defs>
				<polygon id="SVGID_1_" points="8.77,46.79 12.813,62.736 14.074,56.68 				"/>
			</defs>
			<clipPath id="SVGID_2_">
				<use xlink:href="#SVGID_1_"  overflow="visible"/>
			</clipPath>
			
				<linearGradient id="SVGID_3_" gradientUnits="userSpaceOnUse" x1="-172.811" y1="137.1299" x2="-172.3672" y2="137.1299" gradientTransform="matrix(10.9355 1.1411 -1.1411 10.9355 2054.385 -1247.9703)">
				<stop  offset="0" style="stop-color:#C5E1B2"/>
				<stop  offset="1" style="stop-color:#44BFB8"/>
			</linearGradient>
			<polygon clip-path="url(#SVGID_2_)" fill="url(#SVGID_3_)" points="7.125,62.565 14.016,63.284 15.719,46.962 8.829,46.243 			
				"/>
		</g>
		<g>
			<defs>
				<polygon id="SVGID_4_" points="1.304,34.708 11.739,60.457 7.831,45.044 				"/>
			</defs>
			<clipPath id="SVGID_5_">
				<use xlink:href="#SVGID_4_"  overflow="visible"/>
			</clipPath>
			
				<linearGradient id="SVGID_6_" gradientUnits="userSpaceOnUse" x1="-185.3359" y1="138.4902" x2="-184.8924" y2="138.4902" gradientTransform="matrix(-21.1714 49.7315 -49.7315 -21.1714 2974.5552 12186.0488)">
				<stop  offset="0" style="stop-color:#C5E1B2"/>
				<stop  offset="1" style="stop-color:#3BB4A2"/>
			</linearGradient>
			<polygon clip-path="url(#SVGID_5_)" fill="url(#SVGID_6_)" points="2.905,30.947 -7.975,56.507 10.138,64.218 21.019,38.658 			
				"/>
		</g>
		<g>
			<defs>
				<polygon id="SVGID_7_" points="2.79,25.244 0.93,30.571 2.936,27.545 				"/>
			</defs>
			<clipPath id="SVGID_8_">
				<use xlink:href="#SVGID_7_"  overflow="visible"/>
			</clipPath>
			
				<linearGradient id="SVGID_9_" gradientUnits="userSpaceOnUse" x1="-186.4736" y1="134.0293" x2="-186.0299" y2="134.0293" gradientTransform="matrix(-7.7062 18.1019 -18.1019 -7.7062 992.672 4432.6494)">
				<stop  offset="0" style="stop-color:#EEED92"/>
				<stop  offset="0.1626" style="stop-color:#EEED92"/>
				<stop  offset="0.5487" style="stop-color:#A7D099"/>
				<stop  offset="1" style="stop-color:#3BB4A2"/>
			</linearGradient>
			<polygon clip-path="url(#SVGID_8_)" fill="url(#SVGID_9_)" points="1.237,24.521 -0.99,29.753 2.627,31.294 4.856,26.062 			"/>
		</g>
		<g>
			<defs>
				<polygon id="SVGID_10_" points="0.356,32.305 7.375,43.422 3.092,28.182 				"/>
			</defs>
			<clipPath id="SVGID_11_">
				<use xlink:href="#SVGID_10_"  overflow="visible"/>
			</clipPath>
			
				<linearGradient id="SVGID_12_" gradientUnits="userSpaceOnUse" x1="-185.8032" y1="136.7578" x2="-185.3596" y2="136.7578" gradientTransform="matrix(-12.3957 29.1174 -29.1174 -12.3957 1685.5847 7134.4209)">
				<stop  offset="0" style="stop-color:#EEED92"/>
				<stop  offset="0.2208" style="stop-color:#ECEC92"/>
				<stop  offset="0.3788" style="stop-color:#E3E993"/>
				<stop  offset="0.5172" style="stop-color:#D6E194"/>
				<stop  offset="0.6444" style="stop-color:#BFD898"/>
				<stop  offset="0.7638" style="stop-color:#A2CD9A"/>
				<stop  offset="0.8775" style="stop-color:#7DC19E"/>
				<stop  offset="0.9847" style="stop-color:#45B5A2"/>
				<stop  offset="1" style="stop-color:#3BB4A2"/>
			</linearGradient>
			<polygon clip-path="url(#SVGID_11_)" fill="url(#SVGID_12_)" points="1.433,25.652 -5.136,41.083 6.298,45.952 12.868,30.521 			
				"/>
		</g>
		<g>
			<defs>
				<polygon id="SVGID_13_" points="3.584,28.165 8.012,43.908 10.234,32.513 				"/>
			</defs>
			<clipPath id="SVGID_14_">
				<use xlink:href="#SVGID_13_"  overflow="visible"/>
			</clipPath>
			
				<linearGradient id="SVGID_15_" gradientUnits="userSpaceOnUse" x1="-173.8091" y1="135.3018" x2="-173.3652" y2="135.3018" gradientTransform="matrix(10.3542 5.161 -5.161 10.3542 2501.3315 -469.6397)">
				<stop  offset="0" style="stop-color:#93CB7E"/>
				<stop  offset="1" style="stop-color:#68C18C"/>
			</linearGradient>
			<polygon clip-path="url(#SVGID_14_)" fill="url(#SVGID_15_)" points="-2.701,40.775 8.911,46.562 16.519,31.298 4.909,25.511 			
				"/>
		</g>
		<g>
			<defs>
				<polygon id="SVGID_16_" points="7.649,20.409 3.503,27.534 10.14,31.876 				"/>
			</defs>
			<clipPath id="SVGID_17_">
				<use xlink:href="#SVGID_16_"  overflow="visible"/>
			</clipPath>
			
				<linearGradient id="SVGID_18_" gradientUnits="userSpaceOnUse" x1="-182.4409" y1="148.1797" x2="-181.9972" y2="148.1797" gradientTransform="matrix(4.9166 -16.0697 16.0697 4.9166 -1478.2671 -3631.2188)">
				<stop  offset="0" style="stop-color:#AFCA6F"/>
				<stop  offset="1" style="stop-color:#93CB7E"/>
			</linearGradient>
			<polygon clip-path="url(#SVGID_17_)" fill="url(#SVGID_18_)" points="9.573,33.733 13.348,21.391 4.072,18.553 0.295,30.896 			
				"/>
		</g>
		<g>
			<defs>
				<polygon id="SVGID_19_" points="7.901,15 3.2,24.095 3.389,26.845 7.518,19.678 				"/>
			</defs>
			<clipPath id="SVGID_20_">
				<use xlink:href="#SVGID_19_"  overflow="visible"/>
			</clipPath>
			
				<linearGradient id="SVGID_21_" gradientUnits="userSpaceOnUse" x1="-184.894" y1="137.6016" x2="-184.45" y2="137.6016" gradientTransform="matrix(-16.737 39.315 -39.315 -16.737 2325.2358 9582.7305)">
				<stop  offset="0" style="stop-color:#AFCA6F"/>
				<stop  offset="1" style="stop-color:#93CB7E"/>
			</linearGradient>
			<polygon clip-path="url(#SVGID_20_)" fill="url(#SVGID_21_)" points="3.92,13.306 -1.069,25.026 7.179,28.537 12.168,16.817 			
				"/>
		</g>
		<polygon fill="#94CB7E" points="16.534,11.202 8.542,14.151 8.054,19.14 		"/>
		<g>
			<defs>
				<polygon id="SVGID_22_" points="16.371,9.368 10.573,12.89 17.182,10.45 				"/>
			</defs>
			<clipPath id="SVGID_23_">
				<use xlink:href="#SVGID_22_"  overflow="visible"/>
			</clipPath>
			
				<linearGradient id="SVGID_24_" gradientUnits="userSpaceOnUse" x1="-165.2373" y1="130.9258" x2="-164.7936" y2="130.9258" gradientTransform="matrix(4.5593 3.8868 -3.8868 4.5593 1274.9946 55.4907)">
				<stop  offset="0" style="stop-color:#F4F2B5"/>
				<stop  offset="0.0476" style="stop-color:#F2F1AF"/>
				<stop  offset="0.4832" style="stop-color:#E4E98A"/>
				<stop  offset="0.8143" style="stop-color:#DDE473"/>
				<stop  offset="1" style="stop-color:#D9E269"/>
			</linearGradient>
			<polygon clip-path="url(#SVGID_23_)" fill="url(#SVGID_24_)" points="8.834,11.407 14.401,16.152 18.92,10.85 13.355,6.104 			
				"/>
		</g>
		<g>
			<defs>
				<polygon id="SVGID_25_" points="26.559,4.837 16.805,9.147 17.629,10.245 				"/>
			</defs>
			<clipPath id="SVGID_26_">
				<use xlink:href="#SVGID_25_"  overflow="visible"/>
			</clipPath>
			
				<linearGradient id="SVGID_27_" gradientUnits="userSpaceOnUse" x1="-181.4736" y1="150.3555" x2="-181.0297" y2="150.3555" gradientTransform="matrix(5.9961 -10.2515 10.2515 5.9961 -434.1219 -2749.988)">
				<stop  offset="0" style="stop-color:#F8F7D4"/>
				<stop  offset="0.0335" style="stop-color:#F4F5CA"/>
				<stop  offset="0.1328" style="stop-color:#EBEEAB"/>
				<stop  offset="0.2365" style="stop-color:#E6EA93"/>
				<stop  offset="0.344" style="stop-color:#E0E680"/>
				<stop  offset="0.457" style="stop-color:#DDE475"/>
				<stop  offset="0.579" style="stop-color:#D9E36B"/>
				<stop  offset="0.7267" style="stop-color:#D9E269"/>
				<stop  offset="0.7653" style="stop-color:#D9E269"/>
				<stop  offset="1" style="stop-color:#D9E269"/>
			</linearGradient>
			<polygon clip-path="url(#SVGID_26_)" fill="url(#SVGID_27_)" points="24.073,14.497 28.917,6.216 19.292,0.586 14.448,8.867 			
				"/>
		</g>
		<g>
			<defs>
				<polygon id="SVGID_28_" points="17.443,11.013 8.29,19.579 20.2,21.121 				"/>
			</defs>
			<clipPath id="SVGID_29_">
				<use xlink:href="#SVGID_28_"  overflow="visible"/>
			</clipPath>
			
				<linearGradient id="SVGID_30_" gradientUnits="userSpaceOnUse" x1="-185.0425" y1="136.3613" x2="-184.5988" y2="136.3613" gradientTransform="matrix(-10.8563 25.5014 -25.5014 -10.8563 1485.2709 6209.437)">
				<stop  offset="0" style="stop-color:#C5E1B2"/>
				<stop  offset="0.2013" style="stop-color:#C0DFAC"/>
				<stop  offset="0.5096" style="stop-color:#B3D89D"/>
				<stop  offset="0.8845" style="stop-color:#9ACE85"/>
				<stop  offset="1" style="stop-color:#93CB7E"/>
			</linearGradient>
			<polygon clip-path="url(#SVGID_29_)" fill="url(#SVGID_30_)" points="10.118,6.72 4.647,19.569 18.374,25.413 23.843,12.563 			
				"/>
		</g>
		<g>
			<defs>
				<polygon id="SVGID_31_" points="8.06,20.035 10.637,31.893 20.038,21.585 				"/>
			</defs>
			<clipPath id="SVGID_32_">
				<use xlink:href="#SVGID_31_"  overflow="visible"/>
			</clipPath>
			
				<linearGradient id="SVGID_33_" gradientUnits="userSpaceOnUse" x1="-189.2871" y1="138.5117" x2="-188.8434" y2="138.5117" gradientTransform="matrix(-21.6891 6.3305 -6.3305 -21.6891 -3211.6528 4227.5864)">
				<stop  offset="0" style="stop-color:#C5E1B2"/>
				<stop  offset="0.1797" style="stop-color:#C5E1AE"/>
				<stop  offset="0.3649" style="stop-color:#C3DFA5"/>
				<stop  offset="0.5528" style="stop-color:#C3DE96"/>
				<stop  offset="0.7425" style="stop-color:#C1DB83"/>
				<stop  offset="0.9318" style="stop-color:#BBD765"/>
				<stop  offset="1" style="stop-color:#BBD655"/>
			</linearGradient>
			<polygon clip-path="url(#SVGID_32_)" fill="url(#SVGID_33_)" points="19.097,16.813 4.871,20.966 9,35.115 23.227,30.962 			"/>
		</g>
		<polygon fill="#93D0BE" points="24.321,45.009 20.374,21.931 10.839,32.384 		"/>
		<polygon fill="#3BB3A2" points="8.343,44.72 24.04,45.407 10.654,32.872 		"/>
		<g>
			<defs>
				<polygon id="SVGID_34_" points="46.972,25.658 29.921,3.554 20.891,21.224 				"/>
			</defs>
			<clipPath id="SVGID_35_">
				<use xlink:href="#SVGID_34_"  overflow="visible"/>
			</clipPath>
			
				<linearGradient id="SVGID_36_" gradientUnits="userSpaceOnUse" x1="-184.4556" y1="138.6289" x2="-184.0116" y2="138.6289" gradientTransform="matrix(-18.0955 42.5061 -42.5061 -18.0955 2592.2776 10355.375)">
				<stop  offset="0" style="stop-color:#44BFB8"/>
				<stop  offset="1" style="stop-color:#0A80C2"/>
			</linearGradient>
			<polygon clip-path="url(#SVGID_35_)" fill="url(#SVGID_36_)" points="24.893,-5.846 12.924,22.268 42.971,35.058 54.939,6.945 
							"/>
		</g>
		<g>
			<defs>
				<polygon id="SVGID_37_" points="29.281,3.75 17.85,10.676 20.598,20.742 				"/>
			</defs>
			<clipPath id="SVGID_38_">
				<use xlink:href="#SVGID_37_"  overflow="visible"/>
			</clipPath>
			
				<linearGradient id="SVGID_39_" gradientUnits="userSpaceOnUse" x1="-184.4551" y1="138.0801" x2="-184.0116" y2="138.0801" gradientTransform="matrix(-18.0949 42.5048 -42.5048 -18.0949 2559.2136 10341.0186)">
				<stop  offset="0" style="stop-color:#C5E1B2"/>
				<stop  offset="0.0488" style="stop-color:#C1DFAC"/>
				<stop  offset="0.2986" style="stop-color:#ABD495"/>
				<stop  offset="0.5441" style="stop-color:#9CCF88"/>
				<stop  offset="0.781" style="stop-color:#95CC80"/>
				<stop  offset="1" style="stop-color:#93CB7E"/>
			</linearGradient>
			<polygon clip-path="url(#SVGID_38_)" fill="url(#SVGID_39_)" points="19.604,-0.37 11.725,18.136 27.527,24.862 35.405,6.357 			
				"/>
		</g>
		<polygon fill="#17B5B8" points="46.995,26.149 20.823,21.7 24.842,45.216 		"/>
		<g>
			<defs>
				<polygon id="SVGID_40_" points="37.149,51.601 46.956,26.818 25.112,45.621 				"/>
			</defs>
			<clipPath id="SVGID_41_">
				<use xlink:href="#SVGID_40_"  overflow="visible"/>
			</clipPath>
			
				<linearGradient id="SVGID_42_" gradientUnits="userSpaceOnUse" x1="-185.8428" y1="138.8496" x2="-185.399" y2="138.8496" gradientTransform="matrix(-23.2823 28.7456 -28.7456 -23.2823 -294.5312 8607.9316)">
				<stop  offset="0" style="stop-color:#088DB7"/>
				<stop  offset="1" style="stop-color:#186FAE"/>
			</linearGradient>
			<polygon clip-path="url(#SVGID_41_)" fill="url(#SVGID_42_)" points="33.764,16.134 12.991,41.782 38.302,62.283 59.077,36.635 
							"/>
		</g>
		<g>
			<defs>
				<polygon id="SVGID_43_" points="13.136,63.554 28.437,62.912 14.502,56.979 				"/>
			</defs>
			<clipPath id="SVGID_44_">
				<use xlink:href="#SVGID_43_"  overflow="visible"/>
			</clipPath>
			
				<linearGradient id="SVGID_45_" gradientUnits="userSpaceOnUse" x1="-180.6221" y1="134.5137" x2="-180.1783" y2="134.5137" gradientTransform="matrix(12.593 12.4188 -12.4188 12.593 3961.6943 605.3362)">
				<stop  offset="0" style="stop-color:#C5E1B2"/>
				<stop  offset="1" style="stop-color:#44BFB8"/>
			</linearGradient>
			<polygon clip-path="url(#SVGID_44_)" fill="url(#SVGID_45_)" points="9.85,60.312 20.893,71.204 31.723,60.221 20.68,49.329 			
				"/>
		</g>
		<polygon fill="#17B5B8" points="36.545,51.837 24.73,45.97 15.024,56.253 		"/>
		<g>
			<defs>
				<polygon id="SVGID_46_" points="29.424,62.811 36.736,52.289 15.13,56.724 				"/>
			</defs>
			<clipPath id="SVGID_47_">
				<use xlink:href="#SVGID_46_"  overflow="visible"/>
			</clipPath>
			
				<linearGradient id="SVGID_48_" gradientUnits="userSpaceOnUse" x1="-186.5908" y1="137.6025" x2="-186.1469" y2="137.6025" gradientTransform="matrix(-11.7621 27.6291 -27.6291 -11.7621 1633.6708 6829.8877)">
				<stop  offset="0" style="stop-color:#039FC2"/>
				<stop  offset="1" style="stop-color:#44BFB8"/>
			</linearGradient>
			<polygon clip-path="url(#SVGID_47_)" fill="url(#SVGID_48_)" points="18.446,44.502 11.338,61.196 33.421,70.598 40.528,53.903 
							"/>
		</g>
		<g>
			<defs>
				<polygon id="SVGID_49_" points="30.084,62.702 33.501,61.776 41.159,47.089 37.472,52.072 				"/>
			</defs>
			<clipPath id="SVGID_50_">
				<use xlink:href="#SVGID_49_"  overflow="visible"/>
			</clipPath>
			
				<linearGradient id="SVGID_51_" gradientUnits="userSpaceOnUse" x1="-182.9717" y1="133.0781" x2="-182.528" y2="133.0781" gradientTransform="matrix(4.7302 12.1802 -12.1802 4.7302 2519.936 1648.6508)">
				<stop  offset="0" style="stop-color:#44BFB8"/>
				<stop  offset="1" style="stop-color:#107FC2"/>
			</linearGradient>
			<polygon clip-path="url(#SVGID_50_)" fill="url(#SVGID_51_)" points="24.816,49.135 31.536,66.44 46.427,60.656 39.708,43.353 
							"/>
		</g>
		<g>
			<defs>
				<polygon id="SVGID_52_" points="42.57,44.372 46.352,29.653 38.177,50.31 				"/>
			</defs>
			<clipPath id="SVGID_53_">
				<use xlink:href="#SVGID_52_"  overflow="visible"/>
			</clipPath>
			
				<linearGradient id="SVGID_54_" gradientUnits="userSpaceOnUse" x1="-173.1553" y1="130.6855" x2="-172.7115" y2="130.6855" gradientTransform="matrix(4.663 3.491 -3.491 4.663 1306.3649 35.4182)">
				<stop  offset="0" style="stop-color:#14AEE3"/>
				<stop  offset="0.1576" style="stop-color:#14AEE3"/>
				<stop  offset="0.4019" style="stop-color:#14ADE1"/>
				<stop  offset="0.5614" style="stop-color:#0CA8DD"/>
				<stop  offset="0.6966" style="stop-color:#109FD5"/>
				<stop  offset="0.8183" style="stop-color:#1193CB"/>
				<stop  offset="0.9299" style="stop-color:#1883BF"/>
				<stop  offset="1" style="stop-color:#1979B6"/>
			</linearGradient>
			<polygon clip-path="url(#SVGID_53_)" fill="url(#SVGID_54_)" points="28.268,42.89 43.416,54.229 56.26,37.072 41.114,25.731 			
				"/>
		</g>
	</g>
	<g>
		<path fill="#231F20" d="M58.543,23.576c0-0.744,0.071-1.37,0.217-1.878c0.145-0.509,0.381-0.92,0.713-1.232
			c0.33-0.312,0.762-0.537,1.297-0.677c0.533-0.14,1.188-0.209,1.963-0.209h1.418c1.434,0,2.491,0.247,3.17,0.743
			c0.68,0.495,1.018,1.265,1.018,2.309v0.627h-1.579v-0.287c0-0.372-0.04-0.68-0.12-0.926c-0.079-0.245-0.221-0.44-0.422-0.589
			c-0.201-0.146-0.477-0.251-0.821-0.312c-0.345-0.062-0.786-0.094-1.315-0.094h-0.992c-0.398,0-0.726,0.009-0.986,0.028
			c-0.262,0.018-0.48,0.046-0.655,0.084c-0.175,0.039-0.321,0.092-0.438,0.16c-0.115,0.066-0.227,0.147-0.336,0.246
			c-0.098,0.088-0.182,0.186-0.252,0.29c-0.068,0.107-0.124,0.235-0.166,0.385v-0.009c-0.035,0.15-0.064,0.361-0.086,0.637
			c-0.02,0.272-0.031,0.61-0.031,1.013v3.191c0,0.402,0.012,0.737,0.031,1.007c0.021,0.269,0.051,0.478,0.086,0.627v-0.008
			c0.093,0.316,0.246,0.556,0.46,0.72c0.215,0.166,0.462,0.285,0.741,0.356c0.293,0.083,0.839,0.124,1.633,0.124h0.992
			c0.355,0,0.651-0.007,0.887-0.022c0.234-0.016,0.432-0.041,0.59-0.075c0.162-0.032,0.295-0.079,0.401-0.139
			s0.208-0.136,0.306-0.229c0.092-0.087,0.172-0.18,0.236-0.278s0.115-0.225,0.154-0.379c0.038-0.156,0.066-0.349,0.08-0.576
			c0.018-0.23,0.024-0.522,0.024-0.872v-0.543h-3.113v-1.44h4.692v2.029c0,0.743-0.07,1.369-0.212,1.879
			c-0.142,0.507-0.378,0.918-0.706,1.229c-0.328,0.314-0.759,0.54-1.292,0.68c-0.535,0.14-1.194,0.209-1.978,0.209h-1.418
			c-0.786,0-1.445-0.069-1.979-0.209c-0.535-0.14-0.967-0.365-1.295-0.68c-0.327-0.311-0.562-0.722-0.703-1.229
			c-0.142-0.51-0.213-1.136-0.213-1.879V23.576z"/>
		<polygon fill="#231F20" points="70.6,31.234 70.6,19.719 78.771,19.719 78.771,21.206 72.135,21.206 72.135,24.574 78.584,24.574 
			78.584,26.022 72.135,26.022 72.135,29.755 78.771,29.755 78.771,31.234 		"/>
		<path fill="#231F20" d="M80.395,23.576c0-0.744,0.073-1.37,0.217-1.878c0.146-0.509,0.383-0.92,0.713-1.232
			c0.332-0.312,0.764-0.537,1.299-0.677c0.533-0.14,1.189-0.21,1.971-0.21h1.407c1.566,0,2.657,0.295,3.276,0.883v-0.007
			c0.615,0.588,0.923,1.628,0.923,3.121v3.802c0,0.738-0.073,1.362-0.214,1.869c-0.142,0.51-0.377,0.92-0.704,1.236
			c-0.327,0.314-0.761,0.542-1.298,0.681c-0.536,0.141-1.197,0.21-1.983,0.21h-1.407c-0.785,0-1.447-0.069-1.982-0.21
			c-0.537-0.139-0.971-0.364-1.299-0.679c-0.328-0.311-0.562-0.721-0.703-1.229c-0.142-0.51-0.215-1.136-0.215-1.879V23.576z
			 M84.942,21.051c-0.398,0-0.723,0.009-0.98,0.028c-0.254,0.018-0.471,0.046-0.646,0.084c-0.174,0.039-0.32,0.092-0.438,0.16
			c-0.115,0.066-0.232,0.147-0.352,0.246c-0.104,0.088-0.19,0.188-0.264,0.299c-0.072,0.111-0.128,0.252-0.17,0.422
			c-0.043,0.17-0.07,0.385-0.089,0.643c-0.017,0.258-0.028,0.579-0.028,0.961v3.183c0,0.371,0.012,0.684,0.028,0.937
			c0.019,0.254,0.046,0.465,0.089,0.635c0.042,0.171,0.098,0.312,0.17,0.427c0.073,0.114,0.16,0.216,0.264,0.31
			c0.113,0.104,0.23,0.188,0.352,0.256c0.121,0.067,0.27,0.118,0.447,0.159c0.174,0.037,0.392,0.065,0.65,0.081
			c0.257,0.016,0.579,0.022,0.967,0.022h0.697c0.392,0,0.721-0.007,0.982-0.022c0.266-0.016,0.484-0.044,0.664-0.081
			c0.176-0.041,0.324-0.092,0.443-0.159c0.12-0.068,0.232-0.152,0.342-0.256c0.107-0.094,0.197-0.191,0.263-0.295
			c0.066-0.103,0.122-0.238,0.164-0.406c0.04-0.167,0.068-0.38,0.084-0.634c0.016-0.257,0.022-0.58,0.022-0.973v-3.191
			c0-0.396-0.009-0.725-0.027-0.983c-0.018-0.258-0.049-0.472-0.093-0.643c-0.044-0.17-0.1-0.307-0.171-0.41
			c-0.067-0.103-0.154-0.201-0.258-0.294c-0.109-0.093-0.221-0.172-0.336-0.237c-0.117-0.064-0.264-0.115-0.439-0.154
			c-0.174-0.038-0.393-0.066-0.658-0.084c-0.262-0.02-0.591-0.028-0.982-0.028H84.942z"/>
		<path fill="#231F20" d="M92.562,31.234V19.719h5.213c0.659,0,1.212,0.048,1.654,0.143c0.445,0.097,0.802,0.253,1.067,0.47
			c0.265,0.217,0.455,0.496,0.568,0.841c0.112,0.343,0.17,0.762,0.17,1.258v1.695c0,1.038-0.36,1.71-1.084,2.014
			c0.19,0.088,0.354,0.192,0.491,0.31c0.137,0.119,0.251,0.266,0.337,0.442c0.088,0.175,0.152,0.385,0.194,0.626
			c0.042,0.243,0.062,0.532,0.062,0.867v2.851h-1.596v-2.462c0-0.389-0.023-0.705-0.072-0.953s-0.14-0.442-0.268-0.585
			c-0.129-0.142-0.306-0.238-0.527-0.29c-0.221-0.052-0.506-0.077-0.852-0.077h-3.825v4.367H92.562z M94.095,21.206v4.189h3.432
			c0.454,0,0.819-0.023,1.097-0.07c0.279-0.046,0.494-0.126,0.645-0.24c0.15-0.113,0.25-0.262,0.299-0.444s0.072-0.412,0.072-0.686
			v-1.309c0-0.273-0.023-0.503-0.068-0.685c-0.049-0.184-0.146-0.332-0.296-0.446c-0.148-0.114-0.36-0.192-0.638-0.239
			c-0.276-0.048-0.646-0.07-1.11-0.07H94.095z"/>
		<path fill="#231F20" d="M103.226,23.576c0-0.744,0.071-1.37,0.218-1.878c0.143-0.509,0.38-0.92,0.712-1.232
			c0.329-0.312,0.761-0.537,1.296-0.677c0.533-0.14,1.188-0.209,1.963-0.209h1.418c1.434,0,2.491,0.247,3.171,0.743
			c0.679,0.495,1.018,1.265,1.018,2.309v0.627h-1.579v-0.287c0-0.372-0.04-0.68-0.12-0.926c-0.079-0.245-0.222-0.44-0.423-0.589
			c-0.201-0.146-0.475-0.251-0.82-0.312c-0.346-0.062-0.785-0.094-1.316-0.094h-0.991c-0.397,0-0.726,0.009-0.987,0.028
			c-0.261,0.018-0.48,0.046-0.654,0.084c-0.175,0.039-0.32,0.092-0.438,0.16c-0.114,0.066-0.228,0.147-0.337,0.246
			c-0.097,0.088-0.181,0.186-0.252,0.29c-0.068,0.107-0.123,0.235-0.166,0.385v-0.009c-0.035,0.15-0.063,0.361-0.086,0.637
			c-0.02,0.272-0.031,0.61-0.031,1.013v3.191c0,0.402,0.012,0.737,0.031,1.007c0.022,0.269,0.051,0.478,0.086,0.627v-0.008
			c0.094,0.316,0.246,0.556,0.461,0.72c0.215,0.166,0.462,0.285,0.74,0.356c0.293,0.083,0.84,0.124,1.634,0.124h0.991
			c0.355,0,0.652-0.007,0.887-0.022s0.432-0.041,0.591-0.075c0.161-0.032,0.294-0.079,0.401-0.139
			c0.105-0.06,0.207-0.136,0.305-0.229c0.093-0.087,0.173-0.18,0.236-0.278c0.064-0.099,0.115-0.225,0.155-0.379
			c0.038-0.156,0.066-0.349,0.08-0.576c0.018-0.23,0.024-0.522,0.024-0.872v-0.543h-3.113v-1.44h4.692v2.029
			c0,0.743-0.07,1.369-0.212,1.879c-0.142,0.507-0.379,0.918-0.706,1.229c-0.327,0.314-0.759,0.54-1.292,0.68
			c-0.535,0.14-1.195,0.209-1.979,0.209h-1.418c-0.785,0-1.445-0.069-1.978-0.209c-0.536-0.14-0.968-0.365-1.295-0.68
			c-0.327-0.311-0.562-0.722-0.703-1.229c-0.142-0.51-0.213-1.136-0.213-1.879V23.576z"/>
		<rect x="115.188" y="19.72" fill="#231F20" width="1.548" height="11.515"/>
		<path fill="#231F20" d="M118.104,31.234l4.256-11.516h2.256l4.28,11.516h-1.61l-1.066-2.873h-5.451
			c-0.174,0.47-0.348,0.948-0.531,1.437c-0.184,0.487-0.359,0.967-0.522,1.437H118.104z M121.286,26.951h4.42
			c-0.354-0.975-0.708-1.934-1.055-2.872c-0.35-0.939-0.704-1.898-1.064-2.873h-0.195L121.286,26.951z"/>
		<path fill="#231F20" d="M127.749,21.578V19.72h1.53v2.028c0,0.439-0.128,0.772-0.39,0.999s-0.642,0.341-1.141,0.341v-0.944
			c0.179-0.016,0.309-0.054,0.385-0.113c0.078-0.059,0.117-0.152,0.117-0.282v-0.17H127.749z"/>
		<path fill="#231F20" d="M130.637,27.276h1.549v0.365c0,0.454,0.02,0.818,0.062,1.092c0.042,0.272,0.113,0.488,0.213,0.643
			c0.102,0.154,0.238,0.266,0.411,0.333s0.394,0.116,0.661,0.146c0.197,0.025,0.486,0.043,0.872,0.052
			c0.385,0.006,0.864,0.011,1.444,0.011c0.608,0,1.08-0.039,1.417-0.116c0.335-0.077,0.579-0.201,0.733-0.372
			c0.084-0.087,0.145-0.241,0.184-0.465c0.038-0.222,0.058-0.527,0.058-0.921c0-0.393-0.015-0.704-0.046-0.934
			c-0.031-0.229-0.086-0.406-0.166-0.53s-0.192-0.207-0.338-0.248c-0.145-0.04-0.332-0.069-0.564-0.085l-3.454-0.271
			c-0.542-0.041-0.995-0.126-1.362-0.256c-0.368-0.13-0.662-0.317-0.888-0.562c-0.224-0.244-0.386-0.558-0.485-0.936
			c-0.098-0.381-0.146-0.841-0.146-1.383c0-0.913,0.151-1.63,0.448-2.148c0.299-0.52,0.781-0.847,1.45-0.979
			c0.206-0.041,0.489-0.073,0.847-0.098c0.359-0.021,0.804-0.034,1.334-0.034h0.403c0.606,0,1.106,0.013,1.507,0.038
			c0.4,0.026,0.734,0.07,1.002,0.133c0.27,0.062,0.494,0.141,0.671,0.239c0.179,0.099,0.352,0.219,0.524,0.364
			c0.226,0.195,0.398,0.473,0.514,0.828c0.117,0.356,0.174,0.792,0.174,1.309c0,0.145-0.002,0.28-0.006,0.406
			c-0.008,0.127-0.012,0.222-0.018,0.283h-1.541v-0.426c0-0.351-0.016-0.627-0.045-0.828c-0.031-0.201-0.088-0.355-0.162-0.461
			c-0.08-0.105-0.184-0.179-0.314-0.217c-0.133-0.039-0.296-0.074-0.49-0.104c-0.399-0.062-1.147-0.094-2.248-0.094
			c-1.129,0-1.822,0.116-2.076,0.349c-0.133,0.119-0.232,0.303-0.297,0.55c-0.063,0.247-0.098,0.55-0.098,0.906
			c0,0.31,0.022,0.566,0.067,0.771c0.044,0.204,0.105,0.362,0.19,0.477v-0.008c0.086,0.103,0.212,0.187,0.378,0.252
			c0.166,0.064,0.378,0.104,0.644,0.119l3.522,0.295c0.491,0.04,0.903,0.128,1.239,0.259c0.336,0.132,0.606,0.321,0.814,0.566
			c0.205,0.244,0.354,0.552,0.444,0.921s0.134,0.809,0.134,1.32c0,0.388-0.012,0.719-0.039,0.996
			c-0.023,0.274-0.064,0.515-0.115,0.718c-0.051,0.205-0.119,0.383-0.201,0.531c-0.082,0.15-0.181,0.296-0.293,0.435
			c-0.156,0.17-0.318,0.311-0.487,0.423c-0.173,0.109-0.392,0.199-0.659,0.267c-0.268,0.066-0.609,0.114-1.018,0.143
			c-0.412,0.028-0.932,0.043-1.562,0.043h-0.559c-0.53,0-0.975-0.012-1.334-0.034c-0.357-0.024-0.663-0.064-0.914-0.122
			c-0.25-0.056-0.461-0.132-0.635-0.229c-0.172-0.095-0.338-0.215-0.492-0.358h0.008c-0.298-0.255-0.518-0.592-0.658-1.02
			c-0.138-0.425-0.209-0.972-0.209-1.637V27.276z"/>
		<rect x="147.641" y="19.72" fill="#231F20" width="1.549" height="11.515"/>
		<polygon fill="#231F20" points="151.825,31.234 151.825,19.719 153.969,19.719 159.817,29.345 159.817,19.719 161.357,19.719 
			161.357,31.234 159.21,31.234 153.365,21.593 153.365,31.234 		"/>
		<polygon fill="#231F20" points="164.114,31.234 164.114,19.719 166.257,19.719 172.106,29.345 172.106,19.719 173.645,19.719 
			173.645,31.234 171.499,31.234 165.653,21.593 165.653,31.234 		"/>
		<path fill="#231F20" d="M176.045,23.576c0-0.744,0.074-1.37,0.217-1.878c0.146-0.509,0.383-0.92,0.713-1.232
			c0.332-0.312,0.764-0.537,1.299-0.677c0.533-0.14,1.19-0.21,1.971-0.21h1.408c1.565,0,2.656,0.295,3.275,0.883v-0.007
			c0.615,0.588,0.924,1.628,0.924,3.121v3.802c0,0.738-0.073,1.362-0.215,1.869c-0.143,0.51-0.377,0.92-0.703,1.236
			c-0.328,0.314-0.762,0.542-1.299,0.681c-0.535,0.141-1.197,0.21-1.982,0.21h-1.408c-0.785,0-1.446-0.069-1.982-0.21
			c-0.537-0.139-0.971-0.364-1.299-0.679c-0.327-0.311-0.562-0.721-0.703-1.229c-0.141-0.51-0.215-1.136-0.215-1.879V23.576z
			 M180.592,21.051c-0.398,0-0.723,0.009-0.98,0.028c-0.254,0.018-0.471,0.046-0.646,0.084c-0.175,0.039-0.32,0.092-0.438,0.16
			c-0.115,0.066-0.231,0.147-0.352,0.246c-0.104,0.088-0.19,0.188-0.264,0.299c-0.072,0.111-0.128,0.252-0.17,0.422
			c-0.043,0.17-0.07,0.385-0.088,0.643c-0.019,0.258-0.029,0.579-0.029,0.961v3.183c0,0.371,0.011,0.684,0.029,0.937
			c0.018,0.254,0.045,0.465,0.088,0.635c0.042,0.171,0.098,0.312,0.17,0.427c0.073,0.114,0.16,0.216,0.264,0.31
			c0.113,0.104,0.23,0.188,0.352,0.256c0.122,0.067,0.271,0.118,0.447,0.159c0.175,0.037,0.392,0.065,0.65,0.081
			c0.257,0.016,0.58,0.022,0.967,0.022h0.697c0.392,0,0.721-0.007,0.982-0.022c0.266-0.016,0.484-0.044,0.664-0.081
			c0.177-0.041,0.324-0.092,0.444-0.159c0.119-0.068,0.232-0.152,0.341-0.256c0.108-0.094,0.197-0.191,0.263-0.295
			c0.067-0.103,0.122-0.238,0.163-0.406c0.04-0.167,0.07-0.38,0.086-0.634c0.015-0.257,0.021-0.58,0.021-0.973v-3.191
			c0-0.396-0.01-0.725-0.026-0.983c-0.019-0.258-0.049-0.472-0.094-0.643c-0.044-0.17-0.1-0.307-0.17-0.41
			c-0.068-0.103-0.155-0.201-0.259-0.294c-0.109-0.093-0.221-0.172-0.337-0.237c-0.116-0.064-0.263-0.115-0.438-0.154
			c-0.174-0.038-0.393-0.066-0.658-0.084c-0.262-0.02-0.591-0.028-0.982-0.028H180.592z"/>
		<path fill="#231F20" d="M186.778,19.719h1.66l3.469,9.75c0.578-1.637,1.158-3.263,1.742-4.879s1.164-3.239,1.74-4.871h1.651
			l-4.222,11.516H191L186.778,19.719z"/>
		<path fill="#231F20" d="M196.125,31.234l4.257-11.516h2.255l4.28,11.516h-1.609l-1.067-2.873h-5.451
			c-0.173,0.47-0.347,0.948-0.53,1.437c-0.185,0.487-0.359,0.967-0.523,1.437H196.125z M199.306,26.951h4.421
			c-0.354-0.975-0.709-1.934-1.055-2.872c-0.35-0.939-0.705-1.898-1.065-2.873h-0.194L199.306,26.951z"/>
		<polygon fill="#231F20" points="206.344,21.206 206.344,19.719 215.04,19.719 215.04,21.206 211.456,21.206 211.456,31.234 
			209.913,31.234 209.913,21.206 		"/>
		<rect x="216.538" y="19.72" fill="#231F20" width="1.549" height="11.515"/>
		<path fill="#231F20" d="M220.362,23.576c0-0.744,0.072-1.37,0.217-1.878c0.145-0.509,0.381-0.92,0.711-1.232
			c0.332-0.312,0.764-0.537,1.299-0.677c0.533-0.14,1.19-0.21,1.973-0.21h1.406c1.566,0,2.658,0.295,3.276,0.883v-0.007
			c0.616,0.588,0.923,1.628,0.923,3.121v3.802c0,0.738-0.072,1.362-0.215,1.869c-0.141,0.51-0.376,0.92-0.703,1.236
			c-0.328,0.314-0.762,0.542-1.299,0.681c-0.535,0.141-1.197,0.21-1.982,0.21h-1.406c-0.787,0-1.448-0.069-1.982-0.21
			c-0.539-0.139-0.973-0.364-1.301-0.679c-0.326-0.311-0.561-0.721-0.703-1.229c-0.141-0.51-0.213-1.136-0.213-1.879V23.576z
			 M224.908,21.051c-0.398,0-0.724,0.009-0.98,0.028c-0.254,0.018-0.472,0.046-0.646,0.084c-0.176,0.039-0.322,0.092-0.438,0.16
			c-0.114,0.066-0.232,0.147-0.353,0.246c-0.104,0.088-0.189,0.188-0.263,0.299s-0.128,0.252-0.171,0.422
			c-0.042,0.17-0.07,0.385-0.088,0.643s-0.029,0.579-0.029,0.961v3.183c0,0.371,0.012,0.684,0.029,0.937
			c0.018,0.254,0.046,0.465,0.088,0.635c0.043,0.171,0.098,0.312,0.171,0.427s0.159,0.216,0.263,0.31
			c0.113,0.104,0.23,0.188,0.353,0.256c0.122,0.067,0.27,0.118,0.446,0.159c0.176,0.037,0.393,0.065,0.65,0.081
			s0.58,0.022,0.968,0.022h0.696c0.393,0,0.722-0.007,0.982-0.022c0.267-0.016,0.484-0.044,0.664-0.081
			c0.178-0.041,0.325-0.092,0.445-0.159c0.119-0.068,0.232-0.152,0.34-0.256c0.109-0.094,0.197-0.191,0.264-0.295
			c0.066-0.103,0.121-0.238,0.164-0.406c0.039-0.167,0.068-0.38,0.084-0.634c0.016-0.257,0.021-0.58,0.021-0.973v-3.191
			c0-0.396-0.008-0.725-0.026-0.983c-0.018-0.258-0.048-0.472-0.093-0.643c-0.044-0.17-0.1-0.307-0.171-0.41
			c-0.067-0.103-0.154-0.201-0.258-0.294c-0.108-0.093-0.222-0.172-0.337-0.237c-0.117-0.064-0.263-0.115-0.438-0.154
			c-0.176-0.038-0.394-0.066-0.66-0.084c-0.261-0.02-0.59-0.028-0.982-0.028H224.908z"/>
		<polygon fill="#231F20" points="232.539,31.234 232.539,19.719 234.682,19.719 240.53,29.345 240.53,19.719 242.07,19.719 
			242.07,31.234 239.924,31.234 234.079,21.593 234.079,31.234 		"/>
		<path fill="#231F20" d="M256.955,29.926c-0.146,0.272-0.313,0.502-0.509,0.685c-0.192,0.184-0.451,0.334-0.777,0.449
			c-0.324,0.117-0.733,0.199-1.227,0.248c-0.493,0.05-1.108,0.074-1.848,0.074c-0.538,0-0.989-0.016-1.358-0.047
			c-0.37-0.03-0.687-0.086-0.948-0.162c-0.264-0.078-0.488-0.18-0.672-0.311c-0.184-0.129-0.354-0.289-0.515-0.48
			c-0.103-0.123-0.192-0.27-0.271-0.438c-0.078-0.167-0.143-0.365-0.189-0.592c-0.049-0.228-0.085-0.488-0.109-0.782
			c-0.021-0.294-0.033-0.63-0.033-1.007c0-0.455,0.033-0.853,0.1-1.197c0.066-0.343,0.175-0.639,0.321-0.889
			c0.147-0.252,0.337-0.46,0.57-0.625c0.231-0.164,0.514-0.299,0.843-0.402c-0.294-0.263-0.508-0.579-0.646-0.949
			c-0.138-0.368-0.206-0.817-0.206-1.351c0-0.47,0.058-0.867,0.17-1.196c0.113-0.328,0.306-0.593,0.574-0.799
			c0.268-0.202,0.627-0.35,1.074-0.439c0.452-0.09,1.012-0.136,1.682-0.136c0.636,0,1.175,0.05,1.622,0.151
			c0.446,0.1,0.813,0.257,1.1,0.468c0.288,0.212,0.495,0.481,0.628,0.809c0.132,0.329,0.197,0.72,0.197,1.174v1.092h-1.548v-1.015
			c0-0.485-0.096-0.807-0.286-0.968c-0.104-0.088-0.299-0.149-0.581-0.187c-0.284-0.036-0.662-0.054-1.132-0.054
			c-0.414,0-0.744,0.011-0.995,0.031c-0.25,0.021-0.442,0.069-0.575,0.144c-0.135,0.074-0.225,0.185-0.266,0.328
			c-0.039,0.146-0.062,0.344-0.062,0.597c0,0.325,0.081,0.644,0.245,0.953c0.161,0.31,0.414,0.604,0.754,0.883l0.084,0.069
			c0.328,0.273,0.646,0.541,0.959,0.802c0.312,0.261,0.622,0.521,0.932,0.781c0.309,0.262,0.623,0.523,0.938,0.787
			s0.638,0.532,0.97,0.805v-1.394h1.548v1.805c0,0.113-0.006,0.238-0.017,0.375c-0.01,0.137-0.032,0.288-0.062,0.453
			c0.341,0.294,0.702,0.598,1.082,0.911c0.378,0.312,0.739,0.606,1.08,0.886l-0.924,1.107L256.955,29.926z M251.696,25.534
			c-0.306,0.01-0.56,0.048-0.768,0.112c-0.206,0.065-0.372,0.178-0.498,0.337c-0.126,0.161-0.217,0.377-0.271,0.65
			c-0.054,0.274-0.08,0.625-0.08,1.054c0,0.325,0.004,0.591,0.018,0.798c0.013,0.207,0.035,0.377,0.066,0.511
			c0.031,0.135,0.072,0.239,0.125,0.313c0.049,0.075,0.111,0.144,0.185,0.205c0.077,0.062,0.175,0.122,0.295,0.179
			c0.118,0.052,0.271,0.091,0.457,0.116c0.386,0.062,1.065,0.093,2.036,0.093c0.371,0,0.697-0.018,0.975-0.054
			c0.279-0.037,0.519-0.096,0.717-0.179c0.201-0.082,0.361-0.188,0.485-0.317s0.217-0.284,0.278-0.465L251.696,25.534z"/>
		<polygon fill="#231F20" points="58.543,41.597 58.543,40.11 67.239,40.11 67.239,41.597 63.655,41.597 63.655,51.625 
			62.113,51.625 62.113,41.597 		"/>
		<polygon fill="#231F20" points="68.383,51.625 68.383,40.11 76.554,40.11 76.554,41.597 69.918,41.597 69.918,44.966 
			76.368,44.966 76.368,46.413 69.918,46.413 69.918,50.146 76.554,50.146 76.554,51.625 		"/>
		<path fill="#231F20" d="M78.167,43.967c0-0.744,0.066-1.37,0.199-1.878c0.136-0.509,0.356-0.92,0.664-1.232
			s0.706-0.537,1.199-0.678c0.494-0.139,1.102-0.208,1.823-0.208h1.319c0.716,0,1.322,0.062,1.818,0.186
			c0.495,0.124,0.896,0.319,1.203,0.589c0.309,0.269,0.529,0.613,0.666,1.038c0.137,0.423,0.206,0.935,0.206,1.532v0.643h-1.589
			v-0.464c0-0.408-0.033-0.743-0.1-1.007s-0.189-0.473-0.367-0.627c-0.18-0.155-0.424-0.264-0.736-0.325
			c-0.312-0.062-0.711-0.094-1.195-0.094h-0.867c-0.332,0-0.608,0.009-0.834,0.023c-0.223,0.017-0.416,0.042-0.578,0.082
			c-0.158,0.038-0.296,0.089-0.408,0.154c-0.113,0.065-0.222,0.146-0.325,0.244c-0.104,0.099-0.188,0.196-0.257,0.298
			c-0.066,0.101-0.12,0.233-0.158,0.395c-0.039,0.164-0.063,0.375-0.076,0.632c-0.014,0.258-0.02,0.594-0.02,1.006v3.191
			c0,0.393,0.006,0.714,0.02,0.968c0.013,0.254,0.037,0.463,0.076,0.631c0.038,0.168,0.092,0.306,0.156,0.415
			c0.063,0.108,0.15,0.214,0.259,0.317c0.093,0.093,0.187,0.172,0.287,0.236c0.097,0.064,0.224,0.115,0.378,0.155
			c0.155,0.037,0.348,0.065,0.582,0.081c0.23,0.016,0.531,0.023,0.898,0.023h0.867c0.496,0,0.898-0.031,1.211-0.094
			c0.312-0.062,0.559-0.177,0.74-0.342c0.18-0.164,0.304-0.391,0.373-0.677c0.065-0.287,0.1-0.655,0.1-1.104
			c0-0.14-0.003-0.272-0.008-0.397c-0.007-0.127-0.011-0.225-0.018-0.291h1.589v0.891c0,1.29-0.29,2.193-0.868,2.71h0.01
			c-0.564,0.517-1.576,0.774-3.035,0.774h-1.319c-0.722,0-1.329-0.07-1.823-0.209c-0.493-0.14-0.892-0.365-1.199-0.68
			c-0.308-0.31-0.528-0.721-0.664-1.229c-0.133-0.509-0.199-1.135-0.199-1.878V43.967z"/>
		<polygon fill="#231F20" points="89.372,51.625 89.372,40.11 90.903,40.11 90.903,44.95 97.067,44.95 97.067,40.11 98.602,40.11 
			98.602,51.625 97.067,51.625 97.067,46.429 90.903,46.429 90.903,51.625 		"/>
		<polygon fill="#231F20" points="100.708,51.625 100.708,40.11 102.852,40.11 108.7,49.735 108.7,40.11 110.24,40.11 
			110.24,51.625 108.094,51.625 102.249,41.984 102.249,51.625 		"/>
		<path fill="#231F20" d="M112.638,43.967c0-0.743,0.073-1.37,0.218-1.878c0.146-0.509,0.383-0.92,0.712-1.232
			c0.332-0.312,0.763-0.537,1.298-0.678c0.533-0.139,1.191-0.208,1.973-0.208h1.406c1.566,0,2.658,0.295,3.277,0.883v-0.009
			c0.615,0.59,0.922,1.629,0.922,3.122v3.802c0,0.738-0.072,1.361-0.214,1.869c-0.142,0.51-0.376,0.921-0.704,1.236
			c-0.327,0.314-0.761,0.542-1.299,0.682c-0.535,0.139-1.196,0.209-1.982,0.209h-1.406c-0.785,0-1.447-0.07-1.982-0.209
			c-0.538-0.14-0.972-0.365-1.299-0.68c-0.328-0.31-0.562-0.721-0.703-1.229c-0.143-0.509-0.216-1.134-0.216-1.878V43.967z
			 M117.186,41.441c-0.398,0-0.725,0.01-0.98,0.028c-0.255,0.019-0.473,0.047-0.646,0.084c-0.175,0.04-0.32,0.092-0.438,0.159
			c-0.114,0.067-0.231,0.149-0.352,0.248c-0.104,0.087-0.19,0.187-0.264,0.298c-0.072,0.111-0.128,0.252-0.17,0.422
			s-0.07,0.385-0.089,0.643c-0.018,0.258-0.028,0.579-0.028,0.961v3.183c0,0.371,0.011,0.683,0.028,0.938
			c0.019,0.253,0.047,0.465,0.089,0.634c0.042,0.171,0.098,0.312,0.17,0.427c0.073,0.114,0.159,0.217,0.264,0.31
			c0.113,0.104,0.23,0.188,0.352,0.256c0.122,0.067,0.271,0.119,0.447,0.159c0.175,0.037,0.392,0.065,0.65,0.081
			c0.257,0.016,0.58,0.023,0.968,0.023h0.697c0.391,0,0.721-0.008,0.98-0.023c0.267-0.016,0.484-0.044,0.664-0.081
			c0.178-0.04,0.326-0.092,0.445-0.159s0.232-0.152,0.341-0.256c0.108-0.093,0.196-0.191,0.263-0.294
			c0.066-0.104,0.123-0.239,0.164-0.406c0.04-0.169,0.068-0.381,0.084-0.635c0.016-0.257,0.022-0.58,0.022-0.973v-3.191
			c0-0.396-0.009-0.725-0.026-0.982s-0.049-0.473-0.094-0.644c-0.043-0.17-0.1-0.308-0.17-0.41
			c-0.068-0.103-0.155-0.201-0.259-0.294c-0.108-0.093-0.222-0.172-0.337-0.236c-0.117-0.064-0.263-0.115-0.438-0.155
			c-0.176-0.037-0.394-0.065-0.66-0.084c-0.26-0.019-0.59-0.028-0.98-0.028H117.186z"/>
		<polygon fill="#231F20" points="124.79,51.625 124.79,40.11 126.315,40.11 126.315,50.146 132.673,50.146 132.673,51.625 		"/>
		<path fill="#231F20" d="M133.927,43.967c0-0.743,0.073-1.37,0.218-1.878c0.146-0.509,0.382-0.92,0.712-1.232
			c0.331-0.312,0.764-0.537,1.299-0.678c0.533-0.139,1.19-0.208,1.971-0.208h1.407c1.566,0,2.657,0.295,3.277,0.883v-0.009
			c0.615,0.59,0.922,1.629,0.922,3.122v3.802c0,0.738-0.072,1.361-0.214,1.869c-0.142,0.51-0.376,0.921-0.704,1.236
			c-0.327,0.314-0.76,0.542-1.298,0.682c-0.536,0.139-1.198,0.209-1.983,0.209h-1.407c-0.784,0-1.446-0.07-1.981-0.209
			c-0.538-0.14-0.973-0.365-1.299-0.68c-0.328-0.31-0.562-0.721-0.703-1.229c-0.143-0.509-0.216-1.134-0.216-1.878V43.967z
			 M138.475,41.441c-0.398,0-0.725,0.01-0.98,0.028s-0.473,0.047-0.646,0.084c-0.174,0.04-0.32,0.092-0.438,0.159
			c-0.116,0.067-0.232,0.149-0.354,0.248c-0.104,0.087-0.189,0.187-0.262,0.298c-0.073,0.111-0.129,0.252-0.171,0.422
			s-0.071,0.385-0.089,0.643c-0.017,0.258-0.027,0.579-0.027,0.961v3.183c0,0.371,0.011,0.683,0.027,0.938
			c0.018,0.253,0.047,0.465,0.089,0.634c0.042,0.171,0.098,0.312,0.171,0.427c0.072,0.114,0.158,0.217,0.262,0.31
			c0.113,0.104,0.231,0.188,0.354,0.256c0.121,0.067,0.27,0.119,0.446,0.159c0.175,0.037,0.392,0.065,0.651,0.081
			c0.256,0.016,0.578,0.023,0.967,0.023h0.696c0.392,0,0.722-0.008,0.982-0.023c0.267-0.016,0.484-0.044,0.664-0.081
			c0.177-0.04,0.325-0.092,0.444-0.159s0.232-0.152,0.34-0.256c0.109-0.093,0.197-0.191,0.264-0.294
			c0.067-0.104,0.122-0.239,0.164-0.406c0.04-0.169,0.068-0.381,0.084-0.635c0.016-0.257,0.022-0.58,0.022-0.973v-3.191
			c0-0.396-0.009-0.725-0.026-0.982s-0.049-0.473-0.094-0.644c-0.043-0.17-0.1-0.308-0.17-0.41c-0.068-0.103-0.154-0.201-0.26-0.294
			c-0.107-0.093-0.22-0.172-0.336-0.236c-0.117-0.064-0.262-0.115-0.438-0.155c-0.175-0.037-0.393-0.065-0.659-0.084
			c-0.261-0.019-0.591-0.028-0.982-0.028H138.475z"/>
		<path fill="#231F20" d="M145.336,43.967c0-0.744,0.072-1.37,0.218-1.878c0.144-0.509,0.38-0.92,0.712-1.232
			c0.33-0.312,0.762-0.537,1.297-0.678c0.533-0.139,1.188-0.208,1.963-0.208h1.418c1.434,0,2.49,0.248,3.17,0.744
			c0.68,0.495,1.018,1.264,1.018,2.307v0.628h-1.579v-0.287c0-0.372-0.04-0.681-0.12-0.926c-0.079-0.244-0.221-0.44-0.422-0.589
			c-0.201-0.146-0.476-0.251-0.82-0.312c-0.346-0.062-0.786-0.094-1.316-0.094h-0.992c-0.398,0-0.726,0.01-0.986,0.028
			c-0.262,0.019-0.48,0.047-0.655,0.084c-0.175,0.04-0.32,0.092-0.438,0.159c-0.115,0.067-0.227,0.149-0.336,0.248
			c-0.098,0.087-0.182,0.185-0.252,0.289c-0.069,0.107-0.124,0.235-0.166,0.386v-0.01c-0.035,0.15-0.064,0.363-0.086,0.636
			c-0.021,0.272-0.031,0.612-0.031,1.014v3.191c0,0.402,0.011,0.738,0.031,1.007c0.021,0.269,0.051,0.478,0.086,0.627v-0.008
			c0.093,0.315,0.246,0.556,0.46,0.721c0.215,0.165,0.462,0.284,0.741,0.355c0.292,0.084,0.839,0.125,1.633,0.125h0.992
			c0.355,0,0.652-0.008,0.887-0.023s0.432-0.04,0.59-0.074c0.162-0.034,0.295-0.08,0.401-0.14s0.208-0.135,0.306-0.228
			c0.092-0.088,0.172-0.181,0.236-0.279c0.063-0.099,0.115-0.225,0.154-0.38c0.037-0.154,0.066-0.347,0.08-0.575
			c0.018-0.231,0.024-0.521,0.024-0.872V47.18h-3.113v-1.44h4.692v2.029c0,0.743-0.07,1.369-0.211,1.878
			c-0.143,0.509-0.379,0.92-0.707,1.229c-0.328,0.314-0.759,0.54-1.291,0.68c-0.536,0.139-1.195,0.209-1.979,0.209h-1.418
			c-0.786,0-1.445-0.07-1.979-0.209c-0.535-0.14-0.967-0.365-1.295-0.68c-0.327-0.31-0.561-0.721-0.703-1.229
			c-0.141-0.509-0.213-1.135-0.213-1.878V43.967z"/>
		<path fill="#231F20" d="M161.843,51.625h-1.517v-5.064c-0.386-0.517-0.785-1.045-1.189-1.587c-0.404-0.543-0.81-1.088-1.215-1.639
			c-0.404-0.549-0.81-1.096-1.212-1.638c-0.403-0.542-0.794-1.07-1.177-1.587h1.836l3.709,5.119
			c0.623-0.863,1.248-1.719,1.866-2.567c0.62-0.85,1.232-1.7,1.841-2.552h1.846l-4.788,6.427V51.625z"/>
		<path fill="#231F20" d="M171.908,51.625l4.257-11.516h2.256l4.28,11.516h-1.61l-1.066-2.873h-5.452
			c-0.173,0.471-0.347,0.947-0.53,1.438c-0.184,0.486-0.359,0.966-0.522,1.436H171.908z M175.09,47.343h4.42
			c-0.354-0.976-0.708-1.935-1.055-2.873c-0.35-0.939-0.705-1.896-1.064-2.873h-0.195L175.09,47.343z"/>
		<path fill="#231F20" d="M183.716,43.967c0-0.744,0.071-1.37,0.218-1.878c0.144-0.509,0.379-0.92,0.712-1.232
			c0.329-0.312,0.761-0.537,1.296-0.678c0.533-0.139,1.189-0.208,1.963-0.208h1.418c1.435,0,2.492,0.248,3.171,0.744
			c0.679,0.495,1.018,1.264,1.018,2.307v0.628h-1.579v-0.287c0-0.372-0.04-0.681-0.12-0.926c-0.079-0.244-0.221-0.44-0.423-0.589
			c-0.201-0.146-0.476-0.251-0.82-0.312c-0.346-0.062-0.785-0.094-1.316-0.094h-0.99c-0.398,0-0.727,0.01-0.988,0.028
			c-0.261,0.019-0.48,0.047-0.654,0.084c-0.175,0.04-0.32,0.092-0.438,0.159c-0.114,0.067-0.228,0.149-0.337,0.248
			c-0.096,0.087-0.181,0.185-0.252,0.289c-0.068,0.107-0.123,0.235-0.166,0.386v-0.01c-0.035,0.15-0.063,0.363-0.086,0.636
			c-0.02,0.272-0.03,0.612-0.03,1.014v3.191c0,0.402,0.011,0.738,0.03,1.007c0.022,0.269,0.051,0.478,0.086,0.627v-0.008
			c0.093,0.315,0.246,0.556,0.461,0.721s0.462,0.284,0.74,0.355c0.293,0.084,0.84,0.125,1.635,0.125h0.99
			c0.355,0,0.652-0.008,0.887-0.023s0.432-0.04,0.591-0.074c0.162-0.034,0.294-0.08,0.401-0.14c0.105-0.06,0.207-0.135,0.305-0.228
			c0.093-0.088,0.173-0.181,0.236-0.279c0.064-0.099,0.115-0.225,0.155-0.38c0.038-0.154,0.066-0.347,0.079-0.575
			c0.019-0.231,0.025-0.521,0.025-0.872V47.18h-3.113v-1.44h4.692v2.029c0,0.743-0.071,1.369-0.212,1.878
			c-0.142,0.509-0.379,0.92-0.706,1.229c-0.327,0.314-0.759,0.54-1.292,0.68c-0.535,0.139-1.195,0.209-1.979,0.209h-1.418
			c-0.785,0-1.445-0.07-1.978-0.209c-0.536-0.14-0.968-0.365-1.294-0.68c-0.328-0.31-0.562-0.721-0.704-1.229
			s-0.213-1.135-0.213-1.878V43.967z"/>
		<polygon fill="#231F20" points="195.773,51.625 195.773,40.11 203.944,40.11 203.944,41.597 197.308,41.597 197.308,44.966 
			203.758,44.966 203.758,46.413 197.308,46.413 197.308,50.146 203.944,50.146 203.944,51.625 		"/>
		<polygon fill="#231F20" points="205.926,51.625 205.926,40.11 208.07,40.11 213.917,49.735 213.917,40.11 215.458,40.11 
			215.458,51.625 213.312,51.625 207.465,41.984 207.465,51.625 		"/>
		<path fill="#231F20" d="M217.043,43.967c0-0.744,0.066-1.37,0.198-1.878c0.135-0.509,0.356-0.92,0.664-1.232
			s0.706-0.537,1.198-0.678c0.494-0.139,1.103-0.208,1.824-0.208h1.318c0.717,0,1.323,0.062,1.818,0.186
			c0.496,0.124,0.896,0.319,1.204,0.589c0.308,0.269,0.528,0.613,0.666,1.038c0.136,0.423,0.206,0.935,0.206,1.532v0.643h-1.589
			v-0.464c0-0.408-0.034-0.743-0.1-1.007c-0.067-0.264-0.19-0.473-0.367-0.627c-0.18-0.155-0.425-0.264-0.737-0.325
			c-0.312-0.062-0.711-0.094-1.194-0.094h-0.867c-0.332,0-0.608,0.009-0.834,0.023c-0.224,0.017-0.417,0.042-0.578,0.082
			c-0.159,0.038-0.296,0.089-0.409,0.154s-0.221,0.146-0.325,0.244c-0.104,0.099-0.188,0.196-0.257,0.298
			c-0.066,0.101-0.119,0.233-0.156,0.395c-0.041,0.164-0.064,0.375-0.078,0.632c-0.014,0.258-0.02,0.594-0.02,1.006v3.191
			c0,0.393,0.006,0.714,0.02,0.968s0.037,0.463,0.078,0.631c0.037,0.168,0.09,0.306,0.154,0.415c0.064,0.108,0.15,0.214,0.259,0.317
			c0.093,0.093,0.188,0.172,0.288,0.236c0.097,0.064,0.223,0.115,0.378,0.155c0.155,0.037,0.347,0.065,0.581,0.081
			c0.23,0.016,0.531,0.023,0.899,0.023h0.867c0.495,0,0.897-0.031,1.21-0.094c0.312-0.062,0.56-0.177,0.741-0.342
			c0.179-0.164,0.304-0.391,0.372-0.677c0.066-0.287,0.1-0.655,0.1-1.104c0-0.14-0.002-0.272-0.007-0.397
			c-0.007-0.127-0.011-0.225-0.018-0.291h1.589v0.891c0,1.29-0.29,2.193-0.868,2.71h0.009c-0.564,0.517-1.574,0.774-3.035,0.774
			h-1.318c-0.722,0-1.33-0.07-1.824-0.209c-0.492-0.14-0.891-0.365-1.198-0.68c-0.308-0.31-0.529-0.721-0.664-1.229
			c-0.132-0.509-0.198-1.135-0.198-1.878V43.967z"/>
		<path fill="#231F20" d="M232.774,51.625h-1.518v-5.064c-0.385-0.517-0.783-1.045-1.189-1.587
			c-0.404-0.543-0.809-1.088-1.214-1.639c-0.404-0.549-0.81-1.096-1.212-1.638c-0.403-0.542-0.795-1.07-1.178-1.587h1.837
			l3.708,5.119c0.625-0.863,1.248-1.719,1.867-2.567c0.619-0.85,1.232-1.7,1.842-2.552h1.844l-4.787,6.427V51.625z"/>
	</g>
</g>
</svg>
