<?xml version="1.0" encoding="utf-8"?>
<!-- Generator: Adobe Illustrator 16.0.0, SVG Export Plug-In . SVG Version: 6.00 Build 0)  -->
<!DOCTYPE svg PUBLIC "-//W3C//DTD SVG 1.1//EN" "http://www.w3.org/Graphics/SVG/1.1/DTD/svg11.dtd">
<svg version="1.1" id="Layer_1" xmlns="http://www.w3.org/2000/svg" xmlns:xlink="http://www.w3.org/1999/xlink" x="0px" y="0px"
	 width="228px" height="66px" viewBox="0 0 228 66" enable-background="new 0 0 228 66" xml:space="preserve">
<g>
	<g>
		<path fill="none" d="M47.876,9.162c-1.871,2.471-3.753,4.933-5.592,7.404C44.124,14.095,46.007,11.633,47.876,9.162z"/>
		<path fill="none" d="M46.968,27.45c-0.337-0.934-1.491-3.126-1.611-3.316c-0.719-1.164-1.557-2.188-2.488-3.124
			c-0.74-0.747-1.564-1.38-2.404-1.971c-1.254-0.882-2.59-1.624-4.02-2.145c-1.926-0.719-3.947-1.085-6.012-1.097l0.031-6.172
			l-0.031,6.172c-1.837-0.012-3.678,0.189-5.479,0.773c-0.672,0.211-1.318,0.551-1.973,0.848c-0.461,0.214-2.766,1.555-3.41,2.059
			c-0.412,0.316-0.832,0.616-1.206,0.964c-0.153,0.142-0.28,0.304-0.424,0.45c-0.813,0.805-1.534,1.665-2.167,2.594
			c-1.281,1.884-2.18,3.97-2.662,6.173c-0.441,1.999-0.57,4.062-0.293,6.132c0.173,1.304,0.535,2.594,1.016,3.861
			c0.18,0.481,0.395,0.949,0.621,1.412c0.131,0.273,0.223,0.554,0.369,0.824c0.053,0.097,0.072,0.201,0.129,0.298
			c1.271,2.229,2.971,4.061,4.91,5.483c2.139,1.578,4.594,2.585,7.172,3.08c2.455,0.474,4.992,0.419,7.486-0.188
			c1.559-0.381,3.105-0.904,4.578-1.736l0.007-0.003c1.081-0.617,2.065-1.336,2.968-2.125c0.8-0.707,1.518-1.487,2.164-2.311
			c1.613-2.045,2.708-4.4,3.299-6.904v-0.003c0.47-1.996,0.643-4.063,0.396-6.13c-0.029-0.303-0.09-0.598-0.146-0.908
			C47.625,29.434,47.328,28.435,46.968,27.45z"/>
		<path fill="#C32E30" d="M17.942,20.892c0.144-0.146,0.271-0.309,0.424-0.45l-8.344-9.038c-0.329,0.297-0.445,0.402-0.757,0.715
			c-1.303,1.297-2.643,2.901-3.675,4.42l10.185,6.947C16.408,22.557,17.128,21.696,17.942,20.892z"/>
		<path fill="#F6B72D" d="M15.775,23.485L5.59,16.538c-2.345,3.432-3.642,6.436-4.517,10.493C1.07,27.036,1.07,27.036,1.07,27.036
			l12.043,2.622C13.595,27.455,14.494,25.369,15.775,23.485z"/>
		<path fill="#EB5D30" d="M13.113,29.658L1.07,27.036c-0.004,0-0.004,0-0.004,0C0.279,30.641,0.15,33.777,0.65,37.431l12.17-1.641
			C12.542,33.72,12.671,31.657,13.113,29.658z"/>
		<path fill="#C32E30" d="M12.82,35.79L0.65,37.431l-0.002,0.001c0.305,2.276,0.854,4.421,1.662,6.577l11.525-4.357
			C13.355,38.384,12.993,37.094,12.82,35.79z"/>
		<path fill="#EE5E2D" d="M13.835,39.651L2.31,44.009c0.32,0.844,0.639,1.582,1.03,2.402l11.116-5.348
			C14.23,40.601,14.015,40.133,13.835,39.651z"/>
		<path fill="#C32E30" d="M14.457,41.063L3.34,46.411c0.259,0.526,0.526,1.048,0.806,1.547c3.521-2,6.925-3.936,10.68-6.07
			C14.679,41.617,14.587,41.337,14.457,41.063z"/>
		<path fill="#F6B72D" d="M14.955,42.186c-0.057-0.097-0.076-0.201-0.129-0.298c-3.755,2.135-7.159,4.07-10.68,6.07
			c2.104,3.851,4.842,6.948,8.454,9.6l7.265-9.889C17.925,46.246,16.225,44.415,14.955,42.186z"/>
		<path fill="#C32E30" d="M19.865,47.669L12.6,57.558l0.004,0.005c3.629,2.663,7.484,4.427,11.516,5.282
			c0.972-4.036,1.944-8.066,2.917-12.096C24.458,50.254,22.003,49.247,19.865,47.669z"/>
		<path fill="#F6B72D" d="M27.037,50.749c-0.973,4.029-1.945,8.06-2.917,12.096c4.253,0.903,8.71,0.81,13.318-0.32l-2.915-11.964
			C32.029,51.168,29.492,51.223,27.037,50.749z"/>
		<path fill="#C32E30" d="M39.108,48.821c2.01,3.536,4.019,7.068,6.063,10.664c1.793-1.005,3.473-2.199,5.031-3.596
			c-2.711-3.07-5.414-6.128-8.127-9.193C41.173,47.485,40.189,48.204,39.108,48.821z"/>
		<path fill="#EB5D30" d="M39.101,48.824c-1.473,0.832-3.02,1.355-4.578,1.736l2.915,11.964c2.804-0.682,5.376-1.703,7.733-3.039
			c-2.045-3.596-4.054-7.128-6.063-10.664L39.101,48.824z"/>
		<path fill="#F6B72D" d="M42.076,46.696c2.713,3.065,5.416,6.123,8.127,9.193c1.292-1.168,2.512-2.46,3.65-3.904l-9.613-7.6
			C43.593,45.209,42.875,45.989,42.076,46.696z"/>
		<path fill="#C32E30" d="M44.24,44.386l9.613,7.6c2.858-3.624,4.582-7.184,5.646-11.672l-11.961-2.832
			C46.948,39.985,45.853,42.341,44.24,44.386z"/>
		<path fill="#F6B72D" d="M60.093,29.917l-12.158,1.432c0.246,2.066,0.073,4.134-0.396,6.13l11.956,2.826l0.005,0.009
			C60.341,36.712,60.525,33.59,60.093,29.917z"/>
		<polygon fill="#909293" points="47.539,37.479 47.539,37.481 59.5,40.313 59.495,40.305 		"/>
		<path fill="#C32E30" d="M47.935,31.349l12.158-1.432c-0.053-0.439-0.152-1.11-0.223-1.548L47.789,30.44
			C47.845,30.751,47.906,31.046,47.935,31.349z"/>
		<path fill="#EE5E2D" d="M47.789,30.44l12.082-2.071c-0.308-1.813-0.715-3.324-1.33-5.056L46.968,27.45
			C47.328,28.435,47.625,29.434,47.789,30.44z"/>
		<path fill="#F6B72D" d="M46.968,27.45l11.572-4.137c-0.769-2.162-1.506-3.682-2.709-5.643l-10.475,6.463
			C45.477,24.324,46.631,26.517,46.968,27.45z"/>
		<path fill="#EE5E2D" d="M45.357,24.134l10.475-6.463c-1.211-1.955-2.59-3.678-4.211-5.318l-8.752,8.657
			C43.8,21.945,44.638,22.97,45.357,24.134z"/>
		<path fill="#C32E30" d="M40.464,19.039c0.84,0.591,1.664,1.224,2.404,1.971l8.752-8.657c-1.213-1.229-2.461-2.25-3.744-3.19
			c-1.869,2.471-3.753,4.933-5.592,7.404C41.671,17.389,41.064,18.214,40.464,19.039z"/>
		<path fill="#EE5E2D" d="M40.464,19.039c0.6-0.825,1.207-1.65,1.82-2.473c1.839-2.472,3.721-4.934,5.592-7.404
			c-2.153-1.572-4.43-2.845-7.14-3.85l-4.292,11.582C37.875,17.415,39.21,18.157,40.464,19.039z"/>
		<path fill="#F6B72D" d="M30.464,9.626l-0.031,6.172c2.064,0.012,4.086,0.378,6.012,1.097l4.292-11.582
			c-3.466-1.278-6.558-1.837-10.243-1.857l0,0l0,0L30.464,9.626z"/>
		<path fill="#EB5D30" d="M30.433,15.798l0.031-6.172l0.029-6.171l0,0c-3.225-0.015-6.195,0.433-9.263,1.415l3.724,11.701
			C26.755,15.987,28.596,15.786,30.433,15.798z"/>
		<path fill="#C32E30" d="M24.955,16.571L21.231,4.87c-1.31,0.423-2.162,0.753-3.411,1.324l5.162,11.225
			C23.636,17.122,24.283,16.782,24.955,16.571z"/>
		<path fill="#F6B72D" d="M22.982,17.419L17.82,6.194c-2.092,0.968-3.989,2.104-5.805,3.514l7.557,9.77
			C20.216,18.974,22.521,17.633,22.982,17.419z"/>
		<path fill="#EB5D30" d="M19.572,19.478l-7.557-9.77c-0.722,0.556-1.331,1.074-1.993,1.695l8.344,9.038
			C18.74,20.094,19.16,19.794,19.572,19.478z"/>
	</g>
	<g>
		<g>
			<g>
				<path fill="#C32E30" d="M69.43,47.37c-1.093,0-1.851-0.122-2.548-0.242V43.73c0.486,0.183,1.152,0.304,1.88,0.304
					c1.425,0,2.245-0.606,2.245-2.818V20.628h3.939v20.74C74.947,44.731,73.583,47.37,69.43,47.37z"/>
				<path fill="#C32E30" d="M89.53,41.122c0-0.696,0.029-1.848,0.182-2.695l-0.062-0.032c-0.881,1.79-2.637,3.032-5.094,3.032
					c-3.424,0-4.518-2.183-4.518-4.818v-7.611c-0.728-0.121-1.729-0.246-2.607-0.305v-2.426c2.002-0.241,4.396-0.332,6.488-0.272
					v9.671c0,1.578,0.425,2.517,1.849,2.517c1.972,0,3.519-2.244,3.519-4.881v-7.275h3.853v12.097
					c0.727,0.121,1.758,0.244,2.637,0.305v2.424C93.866,41.093,91.531,41.185,89.53,41.122z"/>
				<path fill="#C32E30" d="M117.331,41.093V31.54c0-1.605-0.365-2.605-1.791-2.605c-1.696,0-3.457,2.001-3.457,4.941v7.217h-3.819
					V31.54c0-1.483-0.301-2.605-1.789-2.605c-1.789,0-3.456,2.122-3.456,4.941v7.217h-3.851V28.997
					c-0.729-0.121-1.757-0.246-2.639-0.305v-2.426c1.91-0.241,4.275-0.332,6.278-0.272c0,0.729-0.064,1.851-0.183,2.729h0.03
					c0.908-1.852,2.729-3.033,4.974-3.033c2.666,0,3.788,1.577,4.154,3.033c0.697-1.486,2.362-3.033,4.908-3.033
					c2.912,0,4.519,1.607,4.519,5.034v10.368H117.331z"/>
				<path fill="#C32E30" d="M123.751,28.692v-2.426c1.911-0.241,4.213-0.332,6.216-0.272c0,0.756-0.028,1.758-0.151,2.546h0.062
					c0.848-1.758,2.455-2.818,4.729-2.818c3.577,0,5.52,2.576,5.52,7.033c0,5.244-2.729,8.551-7.944,8.551
					c-0.729,0-1.305-0.03-1.943-0.121v7.215h-3.849V28.997C125.663,28.876,124.631,28.751,123.751,28.692z M133.484,28.903
					c-2.032,0-3.246,2.367-3.246,4.943v4.185c0.609,0.182,1.245,0.271,2.034,0.271c2.215,0,3.79-1.395,3.79-5.122
					C136.062,30.359,135.243,28.903,133.484,28.903z"/>
				<path fill="#C32E30" d="M147.125,41.427c-1.454,0-2.911-0.151-4.183-0.483l0.24-3.67c1.153,0.394,2.792,0.726,4.277,0.726
					c2.002,0,3.548-0.816,3.548-2.697c0-3.91-8.583-2.122-8.583-8.852c0-3.641,2.882-6.157,7.793-6.157
					c1.153,0,2.487,0.152,3.698,0.363l-0.211,3.459c-1.152-0.334-2.426-0.546-3.667-0.546c-2.275,0-3.428,1.03-3.428,2.486
					c0,3.668,8.611,2.305,8.611,8.703C155.221,38.606,152.158,41.427,147.125,41.427z"/>
				<path fill="#C32E30" d="M163.617,41.398c-3.338,0-4.365-1.214-4.365-4.729v-7.643h-2.609v-3.001h2.58v-4.638l3.879-1.034v5.672
					h3.668v3.001h-3.668v6.611c0,1.938,0.455,2.484,1.787,2.484c0.639,0,1.336-0.091,1.881-0.244v3.127
					C165.799,41.243,164.678,41.398,163.617,41.398z"/>
				<path fill="#C32E30" d="M177.984,41.122c0-0.875,0.031-1.789,0.15-2.575l-0.027-0.031c-0.727,1.696-2.576,2.883-4.82,2.883
					c-2.73,0-4.307-1.547-4.307-3.974c0-3.608,3.578-5.521,8.703-5.521v-0.815c0-1.577-0.76-2.396-2.943-2.396
					c-1.363,0-3.182,0.455-4.457,1.181l-0.334-3.243c1.518-0.543,3.457-0.939,5.398-0.939c4.852,0,6.215,1.94,6.215,5.245v7.187
					c0.73,0.121,1.76,0.244,2.637,0.305v2.424C182.293,41.093,179.957,41.185,177.984,41.122z M177.684,34.423
					c-4.094,0-5.004,1.183-5.004,2.396c0,0.969,0.664,1.607,1.789,1.607c1.91,0,3.215-1.818,3.215-3.641V34.423z"/>
				<path fill="#C32E30" d="M190.711,29.056h0.059c0.729-1.911,2.184-3.576,4.793-3.365l-0.184,3.82
					c-2.789-0.576-4.184,1.243-4.184,5.428v6.154h-3.852V28.997c-0.725-0.121-1.758-0.246-2.637-0.305v-2.426
					c1.912-0.241,4.246-0.332,6.277-0.272C190.984,26.782,190.891,27.997,190.711,29.056z"/>
				<path fill="#C32E30" d="M203.883,41.398c-3.336,0-4.367-1.214-4.367-4.729v-7.643h-2.607v-3.001h2.578v-4.638l3.879-1.034v5.672
					h3.67v3.001h-3.67v6.611c0,1.938,0.455,2.484,1.787,2.484c0.637,0,1.336-0.091,1.883-0.244v3.127
					C206.062,41.243,204.941,41.398,203.883,41.398z"/>
			</g>
		</g>
		<path fill="#C32E30" d="M218.301,20.243c-0.893-0.347-1.916-0.56-2.957-0.56c-2.197,0-3.781,1.388-3.781,3.879
			c0,2.361,1.285,3.75,3.551,3.75c0.527,0,0.99-0.065,1.42-0.199v-3.879h2.143v5.316c-1.102,0.443-2.473,0.692-3.809,0.692
			c-3.537,0-5.635-2.08-5.635-5.48c0-3.503,2.379-5.994,6.244-5.994c1.107,0,2.195,0.197,3.152,0.479L218.301,20.243z"/>
		<path fill="#C32E30" d="M227.582,25.313h-5.086c-0.016,1.536,0.744,2.277,2.262,2.277c0.811,0,1.686-0.18,2.396-0.508l0.195,1.631
			c-0.875,0.35-1.912,0.529-2.938,0.529c-2.609,0-4.061-1.305-4.061-4.195c0-2.509,1.385-4.356,3.846-4.356
			c2.395,0,3.449,1.634,3.449,3.665C227.646,24.637,227.631,24.966,227.582,25.313z M224.131,22.24c-0.873,0-1.484,0.647-1.6,1.636
			h3.02C225.584,22.853,225.023,22.24,224.131,22.24z"/>
	</g>
</g>
</svg>
