<?xml version="1.0" encoding="utf-8"?>
<!-- Generator: Adobe Illustrator 16.0.0, SVG Export Plug-In . SVG Version: 6.00 Build 0)  -->
<!DOCTYPE svg PUBLIC "-//W3C//DTD SVG 1.1//EN" "http://www.w3.org/Graphics/SVG/1.1/DTD/svg11.dtd">
<svg version="1.1" id="Layer_1" xmlns="http://www.w3.org/2000/svg" xmlns:xlink="http://www.w3.org/1999/xlink" x="0px" y="0px"
	 width="95px" height="203px" viewBox="0 0 95 203" enable-background="new 0 0 95 203" xml:space="preserve">
<g>
	<path fill="#DF363D" d="M55.013,130.834V13.333c0-4.804-4.199-8.731-9-8.731s-9,3.928-9,8.731v117.501H55.013z"/>
	<path fill="#F9A720" d="M37.013,130.834V31.135c0-4.803-4.195-8.731-9-8.731c-4.8,0-9,3.928-9,8.731v99.699H37.013z"/>
	<path fill="#59C5D1" d="M64.513,34.941c-5.302,0-9.5,3.99-9.5,8.869v20.637v46.018v20.369h19v-20.369V64.447V43.811
		C74.013,38.931,69.812,34.941,64.513,34.941z"/>
	<path fill="#382E87" d="M19.013,130.834V81.645c0-4.879-3.701-8.869-9-8.869c-5.302,0-9,3.99-9,8.869v49.189H19.013z"/>
	<path fill="#294BB7" d="M92.013,130.834V61.613c0-4.803-4.198-8.731-9-8.731c-4.802,0-9,3.928-9,8.731v69.221H92.013z"/>
	<text transform="matrix(1 0 0 1 -0.0127 158.4268)"><tspan x="0" y="0" fill="#091451" font-family="'ALKRoundedMtav-Medium'" font-size="29.0002" letter-spacing="-1">coloring </tspan><tspan x="0" y="17.984" fill="#091451" font-family="'ALKRoundedMtav-Medium'" font-size="16.2717">communication </tspan><tspan x="0" y="40.679" fill="#091451" font-family="'ALKRoundedMtav-Medium'" font-size="24.771">with data</tspan></text>
</g>
</svg>
