<?xml version="1.0" encoding="utf-8"?>
<!-- Generator: Adobe Illustrator 16.0.0, SVG Export Plug-In . SVG Version: 6.00 Build 0)  -->
<!DOCTYPE svg PUBLIC "-//W3C//DTD SVG 1.1//EN" "http://www.w3.org/Graphics/SVG/1.1/DTD/svg11.dtd">
<svg version="1.1" id="Layer_1" xmlns="http://www.w3.org/2000/svg" xmlns:xlink="http://www.w3.org/1999/xlink" x="0px" y="0px"
	 width="64px" height="89px" viewBox="0 0 64 89" enable-background="new 0 0 64 89" xml:space="preserve">
<path fill="#DF363D" d="M38,88.593V6.547c0-3.378-2.624-6.141-6-6.141s-6,2.762-6,6.141v82.045H38z"/>
<path fill="#F9A720" d="M26,88.593V19.067c0-3.378-3.121-6.141-6.5-6.141c-3.376,0-6.5,2.763-6.5,6.141v69.525H26z"/>
<path fill="#59C5D1" d="M45,21.745c-3.729,0-7,2.805-7,6.237v14.514v32.364v13.733h14V74.859V42.495V27.981
	C52,24.55,48.727,21.745,45,21.745z"/>
<path fill="#382E87" d="M13,88.593V54.591c0-3.432-2.773-6.238-6.5-6.238c-3.729,0-6.5,2.807-6.5,6.238v34.002H13z"/>
<path fill="#294BB7" d="M64,88.593v-48.09c0-3.379-2.623-6.142-6-6.142s-6,2.763-6,6.142v48.09H64z"/>
</svg>
