<?xml version="1.0" encoding="utf-8"?>
<!-- Generator: Adobe Illustrator 16.0.0, SVG Export Plug-In . SVG Version: 6.00 Build 0)  -->
<!DOCTYPE svg PUBLIC "-//W3C//DTD SVG 1.1//EN" "http://www.w3.org/Graphics/SVG/1.1/DTD/svg11.dtd">
<svg version="1.1" id="Layer_1" xmlns="http://www.w3.org/2000/svg" xmlns:xlink="http://www.w3.org/1999/xlink" x="0px" y="0px"
	 width="78px" height="167px" viewBox="0 0 78 167" enable-background="new 0 0 78 167" xml:space="preserve">
<g>
	<g>
		<path fill="#091451" d="M7.721,117.179v6.485c0,0.819-0.289,1.541-0.883,2.119c-0.578,0.594-1.284,0.883-2.119,0.883H4.655
			c-0.834,0-1.541-0.289-2.119-0.883c-0.594-0.594-0.883-1.3-0.883-2.135v-1.686c0-0.835,0.289-1.541,0.883-2.135
			c0.578-0.578,1.284-0.883,2.119-0.883h0.064c0.482,0,0.931,0.112,1.365,0.337c0.048,0.032,0.08,0.016,0.08-0.048v-2.055
			c0-0.401-0.145-0.738-0.433-1.027c-0.289-0.273-0.626-0.417-1.012-0.417H4.623c-0.594,0-1.027,0.273-1.3,0.803
			c-0.145,0.289-0.385,0.434-0.706,0.434c-0.209,0-0.401-0.081-0.546-0.241c-0.161-0.145-0.241-0.337-0.241-0.545
			c0-0.113,0.016-0.241,0.08-0.354c0.257-0.498,0.626-0.915,1.108-1.204c0.481-0.305,1.011-0.466,1.589-0.466h0.097
			c0.834,0,1.541,0.305,2.135,0.899C7.432,115.638,7.721,116.36,7.721,117.179z M6.164,121.963c0-0.401-0.145-0.739-0.433-1.027
			c-0.273-0.273-0.61-0.417-1.012-0.417H4.655c-0.401,0-0.738,0.145-1.011,0.417c-0.289,0.289-0.434,0.626-0.434,1.027v1.686
			c0,0.401,0.145,0.738,0.434,1.027c0.273,0.289,0.61,0.417,1.011,0.417h0.064c0.401,0,0.739-0.128,1.012-0.417
			c0.289-0.289,0.433-0.626,0.433-1.027V121.963z"/>
		<path fill="#091451" d="M18.558,116.794v7.512c0,0.337-0.081,0.658-0.208,0.979c-0.209,0.545-0.53,0.995-0.996,1.348
			c-0.096,0.064-0.208,0.097-0.321,0.128c-0.225,0.032-0.417,0-0.594-0.128c-0.176-0.112-0.289-0.289-0.337-0.498
			c-0.064-0.321,0.048-0.578,0.305-0.771c0.369-0.273,0.578-0.642,0.578-1.06v-7.512c0-0.305-0.112-0.562-0.321-0.771
			c-0.209-0.209-0.466-0.321-0.771-0.321c-0.289,0-0.546,0.112-0.771,0.321c-0.209,0.208-0.305,0.465-0.305,0.771v2.873
			c0,0.225-0.08,0.417-0.241,0.562c-0.145,0.161-0.337,0.225-0.546,0.225c-0.225,0-0.401-0.064-0.562-0.225
			c-0.145-0.145-0.225-0.337-0.225-0.562v-2.873c0-0.305-0.112-0.562-0.321-0.771c-0.209-0.209-0.466-0.321-0.771-0.321
			c-0.289,0-0.546,0.112-0.771,0.321c-0.209,0.208-0.305,0.465-0.305,0.771v7.512c0,0.417,0.208,0.787,0.578,1.06
			c0.257,0.193,0.353,0.45,0.289,0.771c-0.032,0.208-0.145,0.385-0.321,0.498c-0.177,0.128-0.385,0.161-0.61,0.128
			c-0.112-0.032-0.209-0.064-0.305-0.128c-0.465-0.353-0.803-0.803-1.011-1.348c-0.112-0.321-0.193-0.642-0.193-0.979v-7.512
			c0-0.738,0.257-1.364,0.771-1.878c0.514-0.53,1.14-0.787,1.878-0.787c0.69,0,1.3,0.241,1.814,0.722
			c0.016,0.016,0.032,0.032,0.064,0.032c0.016,0,0.032-0.016,0.064-0.032c0.514-0.481,1.107-0.722,1.798-0.722
			c0.738,0,1.364,0.257,1.878,0.787C18.285,115.43,18.558,116.056,18.558,116.794z"/>
		<path fill="#091451" d="M26.376,121.963v1.686c0,0.834-0.289,1.541-0.883,2.135c-0.578,0.594-1.284,0.883-2.119,0.883H23.31
			c-0.835,0-1.541-0.289-2.119-0.883c-0.594-0.578-0.883-1.3-0.883-2.119v-6.806c0-0.257,0.032-0.498,0.096-0.722
			c0.161-0.562,0.466-1.027,0.915-1.364c0.45-0.354,0.963-0.53,1.557-0.53h2.44c0.225,0,0.401,0.08,0.562,0.241
			c0.145,0.161,0.225,0.337,0.225,0.562c0,0.209-0.08,0.401-0.225,0.546c-0.161,0.161-0.337,0.241-0.562,0.241h-2.44H22.86
			c-0.289,0-0.53,0.097-0.706,0.289c-0.193,0.208-0.289,0.45-0.289,0.738v2.376c0,0.064,0.032,0.08,0.08,0.048
			c0.434-0.225,0.883-0.337,1.365-0.337h0.064c0.835,0,1.541,0.305,2.119,0.883C26.087,120.422,26.376,121.128,26.376,121.963z
			 M24.819,121.963c0-0.401-0.145-0.739-0.434-1.027c-0.273-0.273-0.61-0.417-1.011-0.417H23.31c-0.401,0-0.739,0.145-1.012,0.417
			c-0.289,0.289-0.433,0.626-0.433,1.027v1.686c0,0.401,0.145,0.738,0.433,1.027c0.273,0.289,0.61,0.417,1.012,0.417h0.064
			c0.401,0,0.738-0.128,1.011-0.417c0.289-0.289,0.434-0.626,0.434-1.027V121.963z"/>
		<path fill="#091451" d="M34.21,123.6v0.016c0,0.834-0.289,1.557-0.899,2.151c-0.594,0.594-1.316,0.899-2.151,0.899h-0.064
			c-0.834,0-1.557-0.305-2.151-0.899c-0.594-0.594-0.883-1.316-0.883-2.151v-0.819c0-0.225,0.08-0.417,0.225-0.578
			c0.161-0.161,0.353-0.241,0.562-0.241c0.208,0,0.401,0.081,0.562,0.241c0.145,0.16,0.225,0.353,0.225,0.578v0.819
			c0,0.401,0.145,0.754,0.434,1.043c0.289,0.273,0.626,0.417,1.027,0.417h0.08c0.401,0,0.739-0.144,1.027-0.417
			c0.289-0.289,0.434-0.642,0.434-1.043V123.6l-0.016-5.907c0-1.525-2.392-1.268-2.632-2.761c-0.064-0.417,0.096-0.771,0.514-0.867
			c0.369-0.096,0.803,0.048,0.947,0.401c0.273,0.738,2.761,1.124,2.761,2.954V123.6z"/>
		<path fill="#091451" d="M42.622,121.947v0.465v1.252c0,0.835-0.305,1.557-0.899,2.151c-0.594,0.594-1.316,0.899-2.151,0.899
			h-0.706c-0.835,0-1.557-0.305-2.151-0.899c-0.594-0.594-0.899-1.316-0.899-2.151v-8.732c0-0.225,0.081-0.401,0.225-0.562
			c0.16-0.161,0.353-0.241,0.578-0.241c0.209,0,0.385,0.08,0.546,0.241c0.161,0.16,0.225,0.337,0.225,0.562v8.749
			c0,0.401,0.145,0.739,0.434,1.027c0.289,0.273,0.642,0.417,1.043,0.417h0.706c0.401,0,0.754-0.145,1.043-0.417
			c0.273-0.289,0.417-0.642,0.417-1.043v-1.252v-0.465c0-0.401-0.145-0.739-0.417-1.027c-0.289-0.289-0.626-0.434-1.027-0.434H39.54
			c-0.208,0-0.401-0.08-0.545-0.225c-0.161-0.161-0.241-0.337-0.241-0.562c0-0.208,0.081-0.401,0.241-0.562
			c0.145-0.145,0.337-0.225,0.545-0.225h0.048c0.401,0,1.525-0.321,1.525-1.188c0-1.525-1.83-1.268-2.055-2.761
			c-0.064-0.401,0.081-0.754,0.498-0.867c0.369-0.081,0.819,0.064,0.947,0.417c0.273,0.722,2.119,1.124,2.119,2.938
			c0,1.027-0.401,1.686-0.931,2.199c-0.048,0.032-0.048,0.08,0,0.128C42.301,120.374,42.622,121.096,42.622,121.947z"/>
		<path fill="#091451" d="M50.184,117.211v0.016v6.453v0.016c0,0.835-0.305,1.557-0.899,2.151c-0.594,0.594-1.316,0.899-2.167,0.899
			h-0.064c-0.834,0-1.557-0.305-2.151-0.899c-0.594-0.594-0.883-1.316-0.883-2.151v-0.818c0-0.225,0.08-0.417,0.241-0.578
			c0.145-0.161,0.337-0.241,0.546-0.241c0.225,0,0.401,0.08,0.562,0.241c0.161,0.161,0.241,0.353,0.241,0.578v0.818
			c0,0.401,0.144,0.754,0.433,1.043c0.273,0.273,0.626,0.417,1.027,0.417h0.064c0.401,0,0.738-0.145,1.027-0.417
			c0.289-0.289,0.433-0.642,0.433-1.043v-0.016v-6.453v-0.016c0-0.401-0.145-0.754-0.433-1.043
			c-0.257-0.257-0.562-0.417-0.915-0.417c-0.337,0-0.658,0.161-0.915,0.417c-0.289,0.289-0.434,0.642-0.434,1.043v0.401
			c0,0.241-0.08,0.434-0.241,0.578c-0.145,0.161-0.337,0.241-0.546,0.241c-0.225,0-0.417-0.08-0.562-0.241
			c-0.161-0.145-0.241-0.337-0.241-0.578v-0.401c0-0.835,0.305-1.557,0.899-2.151c0.529-0.545,1.3-0.899,2.039-0.899
			c0.738,0,1.509,0.369,2.039,0.899C49.878,115.654,50.184,116.376,50.184,117.211z"/>
		<path fill="#091451" d="M58.13,117.179v6.485c0,0.819-0.289,1.541-0.883,2.119c-0.578,0.594-1.284,0.883-2.119,0.883h-0.064
			c-0.834,0-1.541-0.289-2.119-0.883c-0.594-0.594-0.883-1.3-0.883-2.135v-1.686c0-0.835,0.289-1.541,0.883-2.135
			c0.578-0.578,1.284-0.883,2.119-0.883h0.064c0.482,0,0.931,0.112,1.365,0.337c0.048,0.032,0.08,0.016,0.08-0.048v-2.055
			c0-0.401-0.145-0.738-0.433-1.027c-0.289-0.273-0.626-0.417-1.012-0.417h-0.096c-0.594,0-1.027,0.273-1.3,0.803
			c-0.145,0.289-0.385,0.434-0.706,0.434c-0.209,0-0.401-0.081-0.546-0.241c-0.161-0.145-0.241-0.337-0.241-0.545
			c0-0.113,0.016-0.241,0.08-0.354c0.257-0.498,0.626-0.915,1.108-1.204c0.481-0.305,1.011-0.466,1.589-0.466h0.097
			c0.834,0,1.541,0.305,2.135,0.899C57.841,115.638,58.13,116.36,58.13,117.179z M56.573,121.963c0-0.401-0.145-0.739-0.433-1.027
			c-0.273-0.273-0.61-0.417-1.012-0.417h-0.064c-0.401,0-0.738,0.145-1.011,0.417c-0.289,0.289-0.434,0.626-0.434,1.027v1.686
			c0,0.401,0.145,0.738,0.434,1.027c0.273,0.289,0.61,0.417,1.011,0.417h0.064c0.401,0,0.739-0.128,1.012-0.417
			c0.289-0.289,0.433-0.626,0.433-1.027V121.963z"/>
		<path fill="#091451" d="M68.95,116.842v7.529c0,0.337-0.08,0.658-0.193,0.979c-0.208,0.546-0.545,0.995-1.011,1.349
			c-0.096,0.064-0.192,0.096-0.321,0.128c-0.209,0.032-0.417,0-0.594-0.128c-0.177-0.112-0.289-0.289-0.337-0.498
			c-0.064-0.321,0.048-0.578,0.305-0.771c0.369-0.289,0.578-0.642,0.578-1.06v-7.529c0-0.305-0.096-0.562-0.321-0.771
			c-0.209-0.225-0.466-0.321-0.771-0.321c-0.289,0-0.546,0.096-0.754,0.321c-0.225,0.209-0.321,0.466-0.321,0.771v7.224
			c0,1.172-0.979,2.665-2.665,2.665s-2.665-1.493-2.665-2.665v-7.224c0-1.091,0.931-2.665,2.665-2.665c0.69,0,1.3,0.241,1.814,0.723
			c0.016,0.016,0.032,0.032,0.064,0.032c0.016,0,0.032-0.016,0.064-0.032c0.514-0.482,1.107-0.723,1.798-0.723
			c0.738,0,1.364,0.257,1.894,0.787C68.693,115.478,68.95,116.104,68.95,116.842z M63.637,116.842c0-0.305-0.273-1.091-1.091-1.091
			c-0.819,0-1.092,0.787-1.092,1.091v7.224c0,0.305,0.289,1.092,1.092,1.092s1.091-0.787,1.091-1.092V116.842z"/>
		<path fill="#091451" d="M76.641,123.6v0.016c0,0.834-0.289,1.557-0.899,2.151c-0.594,0.594-1.316,0.899-2.151,0.899h-0.064
			c-0.834,0-1.557-0.305-2.151-0.899s-0.883-1.316-0.883-2.151v-0.819c0-0.225,0.08-0.417,0.225-0.578
			c0.161-0.161,0.353-0.241,0.562-0.241c0.208,0,0.401,0.081,0.562,0.241c0.145,0.16,0.225,0.353,0.225,0.578v0.819
			c0,0.401,0.144,0.754,0.433,1.043c0.289,0.273,0.626,0.417,1.027,0.417h0.081c0.401,0,0.738-0.144,1.027-0.417
			c0.289-0.289,0.433-0.642,0.433-1.043V123.6l-0.016-5.907c0-1.525-2.392-1.268-2.632-2.761c-0.064-0.417,0.096-0.771,0.514-0.867
			c0.369-0.096,0.802,0.048,0.947,0.401c0.273,0.738,2.761,1.124,2.761,2.954V123.6z"/>
		<path fill="#091451" stroke="#091451" stroke-width="0.1171" stroke-miterlimit="10" d="M15.247,133.42
			c0,1.325-0.441,2.539-1.303,3.356c-0.066,0.066-0.066,0.132,0,0.199c0.861,0.817,1.303,1.833,1.303,3.003v0.64v1.722
			c0,1.17-0.419,2.164-1.258,2.981c-0.817,0.839-1.965,1.236-3.665,1.236c-1.722,0-2.849-0.397-3.666-1.236
			c-0.817-0.817-1.236-1.811-1.236-2.981c0-0.309,0.11-0.574,0.331-0.795c0.199-0.199,0.464-0.309,0.773-0.309
			c0.287,0,0.552,0.11,0.75,0.309c0.221,0.221,0.332,0.486,0.332,0.795c0,0.574,0.199,1.06,0.596,1.435
			c0.397,0.397,1.126,0.596,2.12,0.596c0.993,0,1.744-0.199,2.142-0.596c0.397-0.375,0.596-0.861,0.596-1.435v-1.722v-0.663
			c0-0.53-0.199-1.016-0.596-1.413s-0.751-0.574-1.303-0.574c-0.287,0-0.552-0.11-0.751-0.332c-0.221-0.221-0.331-0.463-0.331-0.772
			c0-0.287,0.11-0.552,0.331-0.773c0.199-0.221,0.464-0.309,0.751-0.309c0.552,0,0.905-0.199,1.303-0.596s0.596-0.861,0.596-1.413
			v-0.353v-0.53c0-0.419-0.155-0.772-0.464-1.06c-0.287-0.309-0.861-0.464-1.479-0.464c-0.618,0-1.258,0.155-1.545,0.464
			c-0.309,0.287-0.441,0.64-0.441,1.06v0.53v1.722v1.104c0,0.331-0.044,0.596-0.088,0.839c-0.397,1.634-1.854,2.87-3.621,2.87
			c-1.766,0-3.224-1.236-3.621-2.892c-0.044-0.221-0.088-0.486-0.088-0.817v-1.104v-1.722v-0.508c0-1.038,0.375-1.921,1.082-2.65
			c0.729-0.707,1.612-1.082,2.627-1.082c0.972,0,1.811,0.331,2.517,1.016c0.044,0.022,0.066,0.044,0.088,0.044
			c0.044,0,0.066-0.022,0.088-0.044c0.729-0.685,1.7-1.016,3.002-1.016c1.303,0,2.318,0.375,3.047,1.082
			c0.707,0.729,1.06,1.612,1.082,2.627V133.42z M6.945,132.89c0-0.419-0.154-0.772-0.463-1.06c-0.287-0.309-0.641-0.464-1.06-0.464
			s-0.773,0.155-1.06,0.464c-0.31,0.287-0.464,0.64-0.464,1.06v0.53v2.826c0,0.839,0.685,1.523,1.523,1.523s1.523-0.685,1.523-1.523
			v-2.826V132.89z"/>
		<path fill="#091451" stroke="#091451" stroke-width="0.1171" stroke-miterlimit="10" d="M25.335,133.575v0.022v8.876v0.022
			c0,1.148-0.419,2.142-1.236,2.958s-1.811,1.236-2.981,1.236H21.03c-1.148,0-2.142-0.419-2.958-1.236s-1.214-1.811-1.214-2.958
			v-1.126c0-0.309,0.11-0.574,0.331-0.794c0.199-0.221,0.464-0.332,0.751-0.332c0.309,0,0.552,0.11,0.772,0.332
			c0.221,0.221,0.332,0.485,0.332,0.794v1.126c0,0.552,0.199,1.038,0.596,1.435c0.375,0.375,0.861,0.574,1.413,0.574h0.088
			c0.552,0,1.016-0.199,1.413-0.574c0.397-0.397,0.596-0.883,0.596-1.435v-0.022v-8.876v-0.022c0-0.552-0.199-1.038-0.596-1.435
			c-0.353-0.354-0.772-0.574-1.258-0.574c-0.464,0-0.905,0.221-1.259,0.574c-0.397,0.397-0.596,0.883-0.596,1.435v0.552
			c0,0.331-0.111,0.596-0.332,0.795c-0.199,0.221-0.463,0.331-0.75,0.331c-0.309,0-0.574-0.11-0.773-0.331
			c-0.221-0.199-0.331-0.464-0.331-0.795v-0.552c0-1.148,0.419-2.142,1.236-2.958c0.729-0.751,1.789-1.236,2.804-1.236
			s2.076,0.508,2.804,1.236C24.916,131.433,25.335,132.427,25.335,133.575z"/>
		<path fill="#091451" stroke="#091451" stroke-width="0.1171" stroke-miterlimit="10" d="M40.436,139.735v3.709
			c0,0.464-0.11,0.905-0.265,1.347c-0.287,0.751-0.751,1.369-1.391,1.855c-0.11,0.088-0.265,0.132-0.419,0.176
			c-0.309,0.044-0.574,0-0.839-0.176c-0.243-0.155-0.397-0.397-0.442-0.685c-0.088-0.442,0.044-0.795,0.397-1.06
			c0.508-0.375,0.795-0.883,0.795-1.457l0.022-3.709c0-0.419-0.154-0.772-0.441-1.06c-0.309-0.287-0.663-0.442-1.06-0.442
			c-0.419,0-0.772,0.155-1.06,0.442s-0.442,0.64-0.442,1.06v2.627c0,0.309-0.11,0.574-0.309,0.773
			c-0.221,0.221-0.463,0.309-0.772,0.309c-0.287,0-0.53-0.088-0.751-0.309c-0.221-0.199-0.309-0.464-0.309-0.773v-2.627
			c0-0.419-0.154-0.772-0.441-1.06c-0.309-0.287-0.663-0.442-1.06-0.442c-0.419,0-0.772,0.155-1.06,0.442s-0.442,0.64-0.442,1.06
			v3.709c0,0.574,0.287,1.082,0.795,1.457c0.375,0.265,0.508,0.618,0.419,1.06c-0.066,0.287-0.199,0.53-0.463,0.685
			c-0.243,0.176-0.508,0.221-0.817,0.176c-0.155-0.044-0.309-0.088-0.442-0.176c-0.64-0.486-1.082-1.104-1.369-1.855
			c-0.177-0.441-0.265-0.883-0.265-1.347v-6.933c0-4.151,4.372-4.084,5.189-4.239c0.817-0.154,2.142-0.419,2.142-1.678
			c0-0.022,0-0.044,0-0.066c0-0.574,0.486-1.06,1.082-1.06c0.596,0,1.082,0.486,1.082,1.06c0,0.022,0,0.044,0,0.066
			c0,2.605-2.693,3.555-3.952,3.797c-1.281,0.265-3.29,0.044-3.4,1.987c0.464-0.199,0.95-0.309,1.501-0.309
			c0.95,0,1.789,0.331,2.473,0.994c0.044,0.022,0.066,0.044,0.088,0.044c0.044,0,0.066-0.022,0.088-0.044
			c0.707-0.663,1.545-0.994,2.495-0.994c1.016,0,1.877,0.353,2.583,1.082C40.083,137.858,40.436,138.719,40.436,139.735z"/>
		<path fill="#091451" stroke="#091451" stroke-width="0.1171" stroke-miterlimit="10" d="M50.967,142.362v0.022
			c0,1.148-0.397,2.142-1.237,2.959c-0.817,0.817-1.81,1.236-2.958,1.236h-0.088c-1.148,0-2.142-0.419-2.958-1.236
			s-1.214-1.811-1.214-2.959v-1.126c0-0.309,0.11-0.574,0.309-0.795c0.221-0.221,0.486-0.331,0.773-0.331s0.552,0.11,0.772,0.331
			c0.199,0.221,0.309,0.486,0.309,0.795v1.126c0,0.552,0.199,1.038,0.596,1.436c0.397,0.375,0.861,0.574,1.413,0.574h0.11
			c0.552,0,1.016-0.199,1.413-0.574c0.397-0.397,0.596-0.883,0.596-1.436v-0.022l-0.022-8.125c0-2.098-3.29-1.745-3.621-3.798
			c-0.088-0.574,0.133-1.06,0.707-1.192c0.508-0.132,1.104,0.066,1.303,0.552c0.375,1.016,3.798,1.545,3.798,4.062V142.362z"/>
		<path fill="#091451" stroke="#091451" stroke-width="0.1171" stroke-miterlimit="10" d="M65.803,133.023v0.508v1.7v1.126
			c0,0.309-0.044,0.574-0.11,0.817c-0.375,1.634-1.833,2.87-3.577,2.87c-1.767,0-3.224-1.236-3.599-2.87
			c-0.066-0.243-0.11-0.508-0.11-0.817v-1.126v-1.7V133c0-0.397-0.132-0.772-0.441-1.06c-0.287-0.309-0.641-0.441-1.06-0.441
			s-0.772,0.132-1.06,0.441c-0.309,0.287-0.442,0.663-0.442,1.06v5.608v0.883c0,2.098,2.098,1.876,3.445,2.142
			c1.258,0.265,3.974,1.214,3.974,3.842c0,0.022,0,0.044,0,0.066c0,0.596-0.486,1.082-1.104,1.082c-0.596,0-1.082-0.485-1.082-1.082
			c0-0.022,0-0.044,0-0.066c0-1.258-1.325-1.545-2.142-1.678c-0.839-0.154-5.277-0.088-5.277-4.305v-0.883v-5.586
			c0-1.038,0.353-1.899,1.082-2.627c0.707-0.729,1.59-1.082,2.605-1.082c0.972,0,1.811,0.331,2.517,0.994
			c0.022,0.044,0.044,0.044,0.088,0.044c0.022,0,0.044,0,0.088-0.044c0.707-0.663,1.545-0.994,2.517-0.994
			c1.016,0,1.877,0.353,2.605,1.082C65.428,131.124,65.803,131.985,65.803,133.023z M63.706,133.133
			c0-0.419-0.155-0.795-0.442-1.082c-0.309-0.287-0.662-0.441-1.06-0.441c-0.419,0-0.773,0.154-1.082,0.441
			c-0.287,0.287-0.441,0.663-0.441,1.082v0.508v2.826c0,0.839,0.684,1.501,1.523,1.501c0.817,0,1.501-0.663,1.501-1.501v-2.826
			V133.133z"/>
		<path fill="#091451" stroke="#091451" stroke-width="0.1171" stroke-miterlimit="10" d="M76.487,133.575v9.848
			c0,0.463-0.11,0.905-0.265,1.347c-0.287,0.75-0.751,1.369-1.391,1.854c-0.132,0.088-0.265,0.133-0.442,0.177
			c-0.287,0.044-0.574,0-0.817-0.177c-0.243-0.154-0.397-0.397-0.463-0.684c-0.088-0.442,0.066-0.795,0.419-1.06
			c0.53-0.397,0.795-0.905,0.795-1.479v-9.826c0-0.574-0.177-1.038-0.574-1.435c-0.397-0.375-0.861-0.574-1.391-0.574h-0.044H72.27
			c-0.552,0-1.016,0.199-1.413,0.574c-0.375,0.397-0.574,0.861-0.574,1.435v9.826c0,0.574,0.287,1.082,0.795,1.479
			c0.353,0.265,0.508,0.618,0.419,1.06c-0.066,0.287-0.221,0.53-0.464,0.684c-0.243,0.177-0.53,0.221-0.817,0.177
			c-0.154-0.044-0.309-0.088-0.441-0.177c-0.641-0.485-1.104-1.104-1.369-1.854c-0.177-0.441-0.287-0.883-0.287-1.347v-9.848
			c0-1.148,0.397-2.142,1.214-2.958c0.795-0.817,1.789-1.214,2.937-1.214h0.044h0.044c1.126,0,2.12,0.397,2.915,1.214
			C76.09,131.433,76.487,132.427,76.487,133.575z"/>
		<path fill="#091451" d="M6.58,156.112v0.397v1.069v0.014c0,0.713-0.26,1.329-0.768,1.85c-0.521,0.507-1.124,0.767-1.85,0.767
			H3.908c-0.727,0-1.329-0.26-1.836-0.767c-0.507-0.521-0.767-1.137-0.767-1.85v-0.699c0-0.192,0.068-0.356,0.206-0.493
			c0.123-0.137,0.288-0.206,0.479-0.206c0.178,0,0.343,0.068,0.466,0.206c0.137,0.137,0.206,0.301,0.206,0.493v0.699
			c0,0.343,0.124,0.644,0.37,0.891s0.534,0.37,0.877,0.37h0.055c0.356,0,0.644-0.124,0.891-0.37s0.37-0.548,0.37-0.891v-0.014
			v-1.069v-0.397c0-0.343-0.124-0.63-0.37-0.877c-0.247-0.247-0.534-0.37-0.877-0.37H3.538c-0.178,0-0.342-0.068-0.479-0.206
			c-0.124-0.124-0.192-0.288-0.192-0.466c0-0.192,0.068-0.356,0.192-0.479c0.137-0.137,0.301-0.206,0.479-0.206h0.438
			c0.343,0,0.63-0.124,0.877-0.37c0.247-0.233,0.37-0.534,0.37-0.877v-0.206v-0.014c0-0.343-0.124-0.644-0.37-0.891
			c-0.219-0.219-0.507-0.356-0.767-0.356c-0.37-0.014-0.672-0.315-0.672-0.685s0.302-0.671,0.672-0.671c0.014,0,0.014,0,0.014,0
			c1.932,0,2.48,1.822,2.48,2.617c0,0.822-0.274,1.562-0.809,2.083c-0.027,0.042-0.027,0.069,0,0.11
			C6.306,154.769,6.58,155.386,6.58,156.112z"/>
		<path fill="#091451" d="M15.884,151.741v6.413c0,0.288-0.068,0.562-0.178,0.836c-0.178,0.466-0.452,0.849-0.85,1.151
			c-0.082,0.055-0.178,0.082-0.274,0.109c-0.192,0.027-0.356,0-0.507-0.109c-0.151-0.096-0.247-0.247-0.288-0.425
			c-0.055-0.274,0.042-0.493,0.261-0.658c0.315-0.233,0.493-0.548,0.493-0.904v-6.413c0-0.261-0.096-0.48-0.274-0.658
			c-0.178-0.178-0.397-0.274-0.658-0.274c-0.247,0-0.466,0.096-0.658,0.274c-0.178,0.178-0.26,0.397-0.26,0.658v2.453
			c0,0.192-0.069,0.356-0.206,0.479c-0.124,0.137-0.288,0.192-0.466,0.192c-0.191,0-0.342-0.055-0.479-0.192
			c-0.123-0.124-0.192-0.288-0.192-0.479v-2.453c0-0.261-0.096-0.48-0.274-0.658c-0.178-0.178-0.397-0.274-0.658-0.274
			c-0.247,0-0.466,0.096-0.658,0.274c-0.178,0.178-0.26,0.397-0.26,0.658v6.413c0,0.356,0.178,0.671,0.493,0.904
			c0.219,0.165,0.302,0.384,0.247,0.658c-0.027,0.178-0.123,0.329-0.274,0.425c-0.151,0.109-0.329,0.137-0.521,0.109
			c-0.096-0.027-0.178-0.055-0.26-0.109c-0.397-0.302-0.686-0.685-0.863-1.151c-0.096-0.274-0.165-0.548-0.165-0.836v-6.413
			c0-0.63,0.219-1.165,0.658-1.604c0.438-0.452,0.973-0.671,1.603-0.671c0.589,0,1.11,0.206,1.548,0.617
			c0.014,0.014,0.027,0.027,0.055,0.027c0.014,0,0.028-0.014,0.055-0.027c0.438-0.411,0.945-0.617,1.535-0.617
			c0.63,0,1.165,0.219,1.603,0.671C15.651,150.576,15.884,151.111,15.884,151.741z"/>
		<path fill="#091451" d="M22.517,152.07v5.536c0,0.699-0.247,1.315-0.753,1.809c-0.493,0.507-1.096,0.753-1.809,0.753H19.9
			c-0.713,0-1.315-0.247-1.809-0.753c-0.507-0.507-0.753-1.11-0.753-1.823v-1.438c0-0.713,0.247-1.315,0.753-1.823
			c0.494-0.493,1.096-0.753,1.809-0.753h0.055c0.411,0,0.794,0.096,1.165,0.288c0.041,0.027,0.068,0.014,0.068-0.041v-1.754
			c0-0.342-0.123-0.63-0.37-0.877c-0.247-0.233-0.535-0.356-0.863-0.356h-0.083c-0.507,0-0.877,0.233-1.11,0.686
			c-0.123,0.247-0.329,0.37-0.603,0.37c-0.178,0-0.343-0.068-0.466-0.206c-0.137-0.123-0.206-0.288-0.206-0.466
			c0-0.096,0.014-0.206,0.069-0.301c0.219-0.425,0.534-0.781,0.945-1.028c0.411-0.26,0.863-0.397,1.356-0.397h0.083
			c0.712,0,1.315,0.26,1.822,0.768C22.27,150.754,22.517,151.371,22.517,152.07z M21.188,156.153c0-0.343-0.123-0.63-0.37-0.877
			c-0.233-0.233-0.521-0.356-0.863-0.356H19.9c-0.343,0-0.63,0.124-0.863,0.356c-0.247,0.247-0.37,0.534-0.37,0.877v1.438
			c0,0.343,0.123,0.63,0.37,0.877c0.233,0.247,0.521,0.356,0.863,0.356h0.055c0.342,0,0.63-0.11,0.863-0.356
			c0.247-0.247,0.37-0.534,0.37-0.877V156.153z"/>
		<path fill="#091451" d="M29.135,150.946v6.632v0.014c0,0.713-0.26,1.329-0.767,1.85c-0.521,0.507-1.124,0.767-1.85,0.767h-0.055
			c-0.726,0-1.329-0.26-1.836-0.767c-0.507-0.521-0.768-1.137-0.768-1.85v-0.699c0-0.192,0.068-0.356,0.206-0.493
			c0.124-0.137,0.288-0.206,0.479-0.206c0.178,0,0.343,0.068,0.466,0.206c0.137,0.137,0.206,0.301,0.206,0.493v0.699
			c0,0.343,0.124,0.644,0.37,0.891s0.534,0.37,0.877,0.37h0.055c0.356,0,0.644-0.124,0.891-0.37s0.37-0.548,0.37-0.891v-0.014
			v-6.289c0-0.261-0.219-0.48-0.479-0.48c-0.274,0-0.494,0.219-0.494,0.48v1.562c0,0.37-0.288,0.658-0.658,0.658
			c-0.356,0-0.644-0.288-0.644-0.658v-1.562c0-0.261-0.22-0.507-0.494-0.507h-0.712c-0.192,0-0.343-0.068-0.479-0.206
			c-0.137-0.137-0.206-0.288-0.206-0.479s0.068-0.356,0.206-0.479c0.137-0.137,0.301-0.192,0.479-0.192h0.493
			c0.809,0,1.315,0.658,1.356,0.74c0,0.027,0.028,0.027,0.055,0.027c0.014,0,0.041,0,0.055-0.027
			c0.068-0.164,0.576-0.726,1.356-0.726C28.396,149.439,29.135,150.11,29.135,150.946z"/>
		<path fill="#091451" d="M35.877,156.153v1.438c0,0.713-0.247,1.315-0.754,1.823c-0.493,0.507-1.096,0.753-1.809,0.753H33.26
			c-0.713,0-1.315-0.247-1.809-0.753c-0.507-0.494-0.753-1.11-0.753-1.809v-5.81c0-0.219,0.027-0.425,0.082-0.617
			c0.137-0.479,0.397-0.877,0.781-1.165c0.384-0.302,0.822-0.452,1.329-0.452h2.083c0.191,0,0.342,0.068,0.479,0.206
			c0.123,0.137,0.192,0.288,0.192,0.479c0,0.178-0.069,0.342-0.192,0.466c-0.137,0.137-0.288,0.206-0.479,0.206H32.89h-0.014
			c-0.247,0-0.452,0.082-0.603,0.247c-0.165,0.178-0.247,0.384-0.247,0.63v2.028c0,0.055,0.027,0.068,0.068,0.041
			c0.37-0.192,0.754-0.288,1.165-0.288h0.055c0.712,0,1.315,0.26,1.809,0.753C35.63,154.838,35.877,155.44,35.877,156.153z
			 M34.548,156.153c0-0.343-0.124-0.63-0.37-0.877c-0.233-0.233-0.521-0.356-0.863-0.356H33.26c-0.343,0-0.63,0.124-0.863,0.356
			c-0.247,0.247-0.37,0.534-0.37,0.877v1.438c0,0.343,0.124,0.63,0.37,0.877c0.233,0.247,0.521,0.356,0.863,0.356h0.055
			c0.343,0,0.63-0.11,0.863-0.356c0.247-0.247,0.37-0.534,0.37-0.877V156.153z"/>
		<path fill="#091451" d="M42.66,152.097v6.111c0,0.288-0.068,0.562-0.164,0.836c-0.178,0.466-0.466,0.85-0.863,1.151
			c-0.083,0.055-0.165,0.082-0.274,0.11c-0.178,0.027-0.356,0-0.507-0.11c-0.15-0.096-0.247-0.247-0.288-0.425
			c-0.055-0.274,0.041-0.493,0.26-0.658c0.329-0.247,0.493-0.562,0.493-0.918v-6.098c0-0.356-0.109-0.644-0.356-0.891
			c-0.247-0.233-0.535-0.356-0.863-0.356H40.07h-0.027c-0.343,0-0.63,0.123-0.877,0.356c-0.233,0.247-0.356,0.535-0.356,0.891v6.098
			c0,0.356,0.178,0.671,0.493,0.918c0.219,0.165,0.315,0.384,0.26,0.658c-0.041,0.178-0.137,0.329-0.288,0.425
			c-0.151,0.11-0.329,0.137-0.507,0.11c-0.096-0.028-0.192-0.055-0.274-0.11c-0.397-0.301-0.686-0.685-0.85-1.151
			c-0.11-0.274-0.178-0.548-0.178-0.836v-6.111c0-0.712,0.247-1.329,0.753-1.836c0.493-0.507,1.11-0.754,1.823-0.754h0.027h0.027
			c0.699,0,1.315,0.247,1.809,0.754C42.413,150.768,42.66,151.385,42.66,152.097z"/>
		<path fill="#091451" d="M49.47,156.112v0.397v1.069v0.014c0,0.713-0.26,1.329-0.768,1.85c-0.521,0.507-1.124,0.767-1.85,0.767
			h-0.055c-0.727,0-1.329-0.26-1.836-0.767c-0.507-0.521-0.767-1.137-0.767-1.85v-0.699c0-0.192,0.068-0.356,0.206-0.493
			c0.123-0.137,0.288-0.206,0.479-0.206c0.178,0,0.343,0.068,0.466,0.206c0.137,0.137,0.206,0.301,0.206,0.493v0.699
			c0,0.343,0.124,0.644,0.37,0.891s0.534,0.37,0.877,0.37h0.055c0.356,0,0.644-0.124,0.891-0.37s0.37-0.548,0.37-0.891v-0.014
			v-1.069v-0.397c0-0.343-0.124-0.63-0.37-0.877c-0.247-0.247-0.534-0.37-0.877-0.37h-0.438c-0.178,0-0.343-0.068-0.479-0.206
			c-0.124-0.124-0.192-0.288-0.192-0.466c0-0.192,0.068-0.356,0.192-0.479c0.137-0.137,0.301-0.206,0.479-0.206h0.438
			c0.343,0,0.63-0.124,0.877-0.37c0.247-0.233,0.37-0.534,0.37-0.877v-0.206v-0.014c0-0.343-0.124-0.644-0.37-0.891
			c-0.219-0.219-0.507-0.356-0.767-0.356c-0.37-0.014-0.671-0.315-0.671-0.685s0.301-0.671,0.671-0.671c0.014,0,0.014,0,0.014,0
			c1.932,0,2.48,1.822,2.48,2.617c0,0.822-0.274,1.562-0.809,2.083c-0.027,0.042-0.027,0.069,0,0.11
			C49.196,154.769,49.47,155.386,49.47,156.112z"/>
		<path fill="#091451" d="M56.144,157.551v0.014c0,0.712-0.247,1.329-0.767,1.836c-0.507,0.507-1.124,0.768-1.836,0.768h-0.055
			c-0.712,0-1.329-0.26-1.836-0.768c-0.507-0.507-0.754-1.124-0.754-1.836v-0.699c0-0.192,0.068-0.356,0.192-0.493
			c0.137-0.137,0.301-0.206,0.479-0.206s0.343,0.068,0.479,0.206c0.124,0.137,0.192,0.301,0.192,0.493v0.699
			c0,0.343,0.124,0.644,0.37,0.891c0.247,0.233,0.534,0.356,0.877,0.356h0.068c0.343,0,0.63-0.124,0.877-0.356
			c0.247-0.247,0.37-0.548,0.37-0.891v-0.014l-0.014-5.042c0-1.302-2.042-1.083-2.247-2.357c-0.055-0.356,0.082-0.658,0.438-0.74
			c0.315-0.082,0.685,0.041,0.808,0.342c0.233,0.63,2.357,0.959,2.357,2.521V157.551z"/>
		<path fill="#091451" d="M63.324,156.14v0.397v1.069c0,0.713-0.26,1.329-0.767,1.836c-0.507,0.507-1.124,0.767-1.836,0.767h-0.603
			c-0.713,0-1.329-0.26-1.836-0.767c-0.507-0.507-0.767-1.124-0.767-1.836v-7.454c0-0.192,0.068-0.342,0.192-0.479
			c0.137-0.137,0.301-0.206,0.493-0.206c0.178,0,0.329,0.069,0.466,0.206c0.137,0.137,0.192,0.288,0.192,0.479v7.468
			c0,0.343,0.124,0.63,0.37,0.877c0.247,0.233,0.548,0.356,0.891,0.356h0.603c0.343,0,0.644-0.124,0.891-0.356
			c0.233-0.247,0.356-0.548,0.356-0.891v-1.069v-0.397c0-0.343-0.123-0.63-0.356-0.877c-0.247-0.247-0.535-0.37-0.877-0.37h-0.042
			c-0.178,0-0.342-0.068-0.466-0.192c-0.137-0.137-0.206-0.288-0.206-0.479c0-0.178,0.069-0.343,0.206-0.479
			c0.124-0.124,0.288-0.192,0.466-0.192h0.042c0.342,0,1.301-0.274,1.301-1.014c0-1.302-1.562-1.083-1.754-2.357
			c-0.055-0.342,0.069-0.644,0.425-0.74c0.315-0.068,0.699,0.055,0.809,0.356c0.233,0.617,1.809,0.959,1.809,2.507
			c0,0.877-0.342,1.439-0.794,1.877c-0.041,0.027-0.041,0.068,0,0.109C63.05,154.797,63.324,155.413,63.324,156.14z"/>
		<path fill="#091451" d="M69.984,152.097v6.111c0,0.288-0.069,0.562-0.165,0.836c-0.178,0.466-0.466,0.85-0.863,1.151
			c-0.083,0.055-0.165,0.082-0.274,0.11c-0.178,0.027-0.356,0-0.507-0.11c-0.15-0.096-0.247-0.247-0.288-0.425
			c-0.055-0.274,0.041-0.493,0.26-0.658c0.329-0.247,0.493-0.562,0.493-0.918v-6.098c0-0.356-0.109-0.644-0.356-0.891
			c-0.247-0.233-0.535-0.356-0.863-0.356h-0.027h-0.027c-0.343,0-0.63,0.123-0.877,0.356c-0.233,0.247-0.356,0.535-0.356,0.891
			v6.098c0,0.356,0.178,0.671,0.493,0.918c0.219,0.165,0.315,0.384,0.26,0.658c-0.041,0.178-0.137,0.329-0.288,0.425
			c-0.151,0.11-0.329,0.137-0.507,0.11c-0.096-0.028-0.192-0.055-0.274-0.11c-0.397-0.301-0.685-0.685-0.849-1.151
			c-0.11-0.274-0.178-0.548-0.178-0.836v-6.111c0-0.712,0.247-1.329,0.753-1.836c0.494-0.507,1.11-0.754,1.823-0.754h0.027h0.027
			c0.699,0,1.315,0.247,1.809,0.754C69.737,150.768,69.984,151.385,69.984,152.097z"/>
		<path fill="#091451" d="M76.822,157.551v0.014c0,0.712-0.247,1.329-0.767,1.836c-0.507,0.507-1.124,0.768-1.836,0.768h-0.055
			c-0.712,0-1.329-0.26-1.836-0.768c-0.507-0.507-0.754-1.124-0.754-1.836v-0.699c0-0.192,0.068-0.356,0.192-0.493
			c0.137-0.137,0.301-0.206,0.479-0.206s0.343,0.068,0.479,0.206c0.124,0.137,0.192,0.301,0.192,0.493v0.699
			c0,0.343,0.124,0.644,0.37,0.891c0.247,0.233,0.534,0.356,0.877,0.356h0.068c0.343,0,0.63-0.124,0.877-0.356
			c0.247-0.247,0.37-0.548,0.37-0.891v-0.014l-0.014-5.042c0-1.302-2.042-1.083-2.247-2.357c-0.055-0.356,0.082-0.658,0.438-0.74
			c0.315-0.082,0.685,0.041,0.808,0.342c0.233,0.63,2.357,0.959,2.357,2.521V157.551z"/>
	</g>
	<path fill="#DF363D" d="M46.416,110.356V12.463c0-4.001-3.501-7.273-7.5-7.273s-7.5,3.272-7.5,7.273v97.893H46.416z"/>
	<path fill="#F9A720" d="M31.416,110.356V27.294c0-4.001-3.497-7.274-7.5-7.274c-3.999,0-7.5,3.272-7.5,7.274v83.062H31.416z"/>
	<path fill="#59C5D1" d="M54.416,30.464c-4.417,0-8,3.323-8,7.388v17.191V93.38v16.977h16V93.38V55.044V37.853
		C62.416,33.788,58.83,30.464,54.416,30.464z"/>
	<path fill="#382E87" d="M16.416,110.356V69.37c0-4.064-3.585-7.388-8-7.388c-4.417,0-8,3.324-8,7.388v40.986H16.416z"/>
	<path fill="#294BB7" d="M77.416,110.356V52.683c0-4.001-3.5-7.273-7.5-7.273c-4,0-7.5,3.272-7.5,7.273v57.674H77.416z"/>
</g>
</svg>
