<?xml version="1.0" encoding="utf-8"?>
<!-- Generator: Adobe Illustrator 16.0.0, SVG Export Plug-In . SVG Version: 6.00 Build 0)  -->
<!DOCTYPE svg PUBLIC "-//W3C//DTD SVG 1.1//EN" "http://www.w3.org/Graphics/SVG/1.1/DTD/svg11.dtd">
<svg version="1.1" id="Layer_1" xmlns="http://www.w3.org/2000/svg" xmlns:xlink="http://www.w3.org/1999/xlink" x="0px" y="0px"
	 width="78px" height="167px" viewBox="0 0 78 167" enable-background="new 0 0 78 167" xml:space="preserve">
<g>
	<path fill="#DF363D" d="M45.416,106.356V7.493c0-4.031-3.472-7.327-7.5-7.327s-7.5,3.296-7.5,7.327v98.863H45.416z"/>
	<path fill="#F9A720" d="M30.416,106.356V22.431c0-4.031-3.468-7.327-7.5-7.327c-4.028,0-7.5,3.296-7.5,7.327v83.925H30.416z"/>
	<path fill="#59C5D1" d="M53.416,25.625c-4.449,0-8,3.348-8,7.442v17.316v38.613v17.36h16v-17.36V50.383V33.067
		C61.416,28.973,57.863,25.625,53.416,25.625z"/>
	<path fill="#382E87" d="M15.416,106.356V64.813c0-4.095-3.054-7.442-7.5-7.442c-4.449,0-7.5,3.348-7.5,7.442v41.543H15.416z"/>
	<path fill="#294BB7" d="M76.416,106.356V48.005c0-4.031-3.471-7.327-7.5-7.327s-7.5,3.296-7.5,7.327v58.352H76.416z"/>
	<g>
		<path fill="#091451" d="M5.602,129.314H5.505c-1.266,0-2.361-0.438-3.262-1.339s-1.338-1.972-1.338-3.237v-5.086
			c0-1.266,0.438-2.337,1.338-3.237s1.996-1.362,3.262-1.362h0.097c1.655,0,3.213,0.925,4.017,2.385
			c0.097,0.17,0.146,0.365,0.146,0.584c0,0.657-0.535,1.192-1.192,1.192c-0.463,0-0.827-0.219-1.047-0.633
			c-0.413-0.754-1.07-1.144-1.923-1.144H5.505c-1.192,0-2.19,0.974-2.19,2.215v5.086c0,1.193,0.998,2.19,2.19,2.19h0.097
			c0.853,0,1.51-0.389,1.923-1.168c0.22-0.414,0.584-0.633,1.047-0.633c0.682,0,1.217,0.535,1.217,1.217
			c0,0.195-0.049,0.39-0.146,0.561C8.839,128.39,7.281,129.314,5.602,129.314z"/>
		<path fill="#091451" d="M21.128,124.738c0,1.266-0.438,2.337-1.339,3.237s-1.972,1.339-3.237,1.339h-0.097
			c-1.266,0-2.337-0.438-3.237-1.339s-1.339-1.972-1.339-3.237v-5.086c0-1.266,0.438-2.337,1.339-3.237s1.972-1.362,3.237-1.362
			h0.097c1.266,0,2.337,0.462,3.237,1.362s1.339,1.972,1.339,3.237V124.738z M18.742,119.652c0-1.241-0.997-2.215-2.19-2.215h-0.097
			c-1.192,0-2.19,0.974-2.19,2.215v5.086c0,1.193,0.998,2.19,2.19,2.19h0.097c1.193,0,2.19-0.997,2.19-2.19V119.652z"/>
		<path fill="#091451" d="M25.628,129.047c-1.606-1.047-2.409-2.531-2.409-4.454v-13.045c0-0.657,0.535-1.192,1.192-1.192
			c0.682,0,1.192,0.535,1.192,1.192v13.045c0,1.047,0.438,1.874,1.339,2.458c0.365,0.243,0.535,0.584,0.535,0.998
			c0,0.657-0.535,1.192-1.192,1.192C26.042,129.241,25.823,129.168,25.628,129.047z"/>
		<path fill="#091451" d="M38.818,124.738c0,1.266-0.438,2.337-1.339,3.237s-1.972,1.339-3.237,1.339h-0.097
			c-1.266,0-2.337-0.438-3.237-1.339s-1.339-1.972-1.339-3.237v-5.086c0-1.266,0.438-2.337,1.339-3.237s1.972-1.362,3.237-1.362
			h0.097c1.266,0,2.337,0.462,3.237,1.362s1.339,1.972,1.339,3.237V124.738z M36.433,119.652c0-1.241-0.997-2.215-2.19-2.215h-0.097
			c-1.192,0-2.19,0.974-2.19,2.215v5.086c0,1.193,0.998,2.19,2.19,2.19h0.097c1.193,0,2.19-0.997,2.19-2.19V119.652z"/>
		<path fill="#091451" d="M47.311,117.827l-0.414-0.146c-0.292-0.098-0.608-0.17-0.925-0.17c-0.56,0-1.07,0.17-1.533,0.511
			c-0.754,0.535-1.119,1.266-1.119,2.19v7.837c0,0.682-0.535,1.192-1.217,1.192c-0.657,0-1.192-0.511-1.192-1.192v-7.837
			c0-1.776,0.729-3.164,2.166-4.162c0.876-0.608,1.85-0.925,2.92-0.925c0.584,0,1.145,0.122,1.704,0.316l0.413,0.146
			c0.535,0.194,0.804,0.56,0.804,1.119c0,0.657-0.535,1.192-1.217,1.192C47.578,117.899,47.433,117.875,47.311,117.827z"/>
		<path fill="#091451" d="M52.322,113.202c-0.778,0-1.436-0.656-1.436-1.436c0-0.803,0.657-1.436,1.436-1.436
			c0.779,0,1.436,0.633,1.436,1.436C53.758,112.546,53.102,113.202,52.322,113.202z M53.515,128.049
			c0,0.682-0.535,1.192-1.192,1.192s-1.192-0.511-1.192-1.192v-11.731c0-0.656,0.535-1.192,1.192-1.192s1.192,0.536,1.192,1.192
			V128.049z"/>
		<path fill="#091451" d="M65.025,127.976c0,0.682-0.535,1.217-1.217,1.217c-0.657,0-1.192-0.535-1.192-1.217v-8.323
			c0-1.241-0.998-2.215-2.19-2.215h-0.097c-1.193,0-2.19,0.974-2.19,2.215v8.323c0,0.682-0.536,1.217-1.193,1.217
			c-0.656,0-1.192-0.535-1.192-1.217v-8.323c0-1.266,0.438-2.337,1.339-3.237s1.972-1.362,3.237-1.362h0.097
			c1.266,0,2.337,0.462,3.237,1.362s1.362,1.972,1.362,3.237V127.976z"/>
		<path fill="#091451" d="M76.365,129.46c0,1.266-0.438,2.337-1.339,3.237s-1.972,1.363-3.237,1.363h-0.097
			c-1.68,0-3.237-0.949-4.04-2.41c-0.098-0.17-0.146-0.365-0.146-0.584c0-0.657,0.535-1.192,1.192-1.192
			c0.487,0,0.852,0.219,1.071,0.633c0.413,0.755,1.046,1.144,1.923,1.144h0.097c1.192,0,2.19-0.998,2.19-2.19v-0.633
			c0-0.072-0.049-0.097-0.121-0.072c-0.657,0.34-1.339,0.511-2.069,0.511h-0.097c-1.266,0-2.337-0.438-3.237-1.339
			s-1.339-1.995-1.339-3.261v-4.94c0-1.266,0.438-2.337,1.339-3.237s1.972-1.363,3.237-1.363h0.097c1.266,0,2.337,0.463,3.237,1.363
			s1.339,1.972,1.339,3.237V129.46z M73.979,119.726c0-1.241-0.998-2.215-2.19-2.215h-0.097c-1.193,0-2.19,0.974-2.19,2.215v4.94
			c0,1.192,0.997,2.19,2.19,2.19h0.097c1.192,0,2.19-0.998,2.19-2.19V119.726z"/>
		<path fill="#091451" d="M2.899,144.373H2.845c-0.71,0-1.324-0.246-1.83-0.751c-0.505-0.506-0.751-1.106-0.751-1.816v-2.854
			c0-0.71,0.246-1.311,0.751-1.816c0.506-0.505,1.12-0.765,1.83-0.765h0.055c0.929,0,1.803,0.52,2.254,1.339
			c0.055,0.095,0.082,0.204,0.082,0.327c0,0.369-0.301,0.669-0.67,0.669c-0.259,0-0.464-0.122-0.587-0.354
			c-0.232-0.424-0.601-0.642-1.079-0.642H2.845c-0.669,0-1.229,0.546-1.229,1.242v2.854c0,0.669,0.56,1.229,1.229,1.229h0.055
			c0.479,0,0.847-0.218,1.079-0.655c0.123-0.231,0.328-0.354,0.587-0.354c0.383,0,0.684,0.3,0.684,0.683
			c0,0.109-0.027,0.219-0.082,0.313C4.716,143.854,3.842,144.373,2.899,144.373z"/>
		<path fill="#091451" d="M11.611,141.806c0,0.71-0.246,1.311-0.751,1.816c-0.506,0.505-1.106,0.751-1.816,0.751H8.989
			c-0.71,0-1.312-0.246-1.816-0.751c-0.505-0.506-0.751-1.106-0.751-1.816v-2.854c0-0.71,0.246-1.311,0.751-1.816
			c0.505-0.505,1.106-0.765,1.816-0.765h0.055c0.71,0,1.311,0.26,1.816,0.765c0.505,0.506,0.751,1.106,0.751,1.816V141.806z
			 M10.272,138.951c0-0.696-0.56-1.242-1.229-1.242H8.989c-0.669,0-1.229,0.546-1.229,1.242v2.854c0,0.669,0.561,1.229,1.229,1.229
			h0.055c0.669,0,1.229-0.56,1.229-1.229V138.951z"/>
		<path fill="#091451" d="M20.527,143.663c0,0.382-0.287,0.669-0.669,0.669c-0.369,0-0.67-0.287-0.67-0.669v-4.985
			c0-0.505-0.423-0.928-0.928-0.928c-0.506,0-0.929,0.423-0.929,0.928v4.985c0,0.382-0.301,0.669-0.67,0.669
			c-0.368,0-0.669-0.287-0.669-0.669v-4.985c0-0.505-0.423-0.928-0.929-0.928c-0.505,0-0.929,0.423-0.929,0.928v4.985
			c0,0.382-0.3,0.669-0.669,0.669c-0.383,0-0.669-0.287-0.669-0.669v-4.985c0-0.628,0.219-1.16,0.655-1.598
			c0.451-0.45,0.983-0.669,1.611-0.669c0.588,0,1.106,0.205,1.543,0.601c0.014,0.014,0.041,0.027,0.055,0.027
			s0.041-0.014,0.055-0.027c0.438-0.396,0.956-0.601,1.544-0.601c0.628,0,1.146,0.219,1.598,0.669
			c0.45,0.451,0.669,0.97,0.669,1.598V143.663z"/>
		<path fill="#091451" d="M29.442,143.663c0,0.382-0.286,0.669-0.669,0.669c-0.368,0-0.669-0.287-0.669-0.669v-4.985
			c0-0.505-0.424-0.928-0.929-0.928s-0.929,0.423-0.929,0.928v4.985c0,0.382-0.301,0.669-0.669,0.669
			c-0.369,0-0.669-0.287-0.669-0.669v-4.985c0-0.505-0.424-0.928-0.929-0.928c-0.506,0-0.929,0.423-0.929,0.928v4.985
			c0,0.382-0.301,0.669-0.669,0.669c-0.383,0-0.67-0.287-0.67-0.669v-4.985c0-0.628,0.219-1.16,0.656-1.598
			c0.45-0.45,0.982-0.669,1.611-0.669c0.587,0,1.105,0.205,1.543,0.601c0.014,0.014,0.041,0.027,0.055,0.027
			s0.041-0.014,0.055-0.027c0.437-0.396,0.956-0.601,1.543-0.601c0.628,0,1.147,0.219,1.598,0.669
			c0.451,0.451,0.669,0.97,0.669,1.598V143.663z"/>
		<path fill="#091451" d="M35.818,141.806c0,0.71-0.245,1.311-0.751,1.816c-0.505,0.505-1.106,0.751-1.816,0.751h-0.055
			c-0.71,0-1.311-0.246-1.816-0.751c-0.505-0.506-0.751-1.106-0.751-1.816v-4.726c0-0.368,0.287-0.669,0.67-0.669
			c0.368,0,0.669,0.301,0.669,0.669v4.726c0,0.669,0.56,1.229,1.229,1.229h0.055c0.67,0,1.229-0.56,1.229-1.229v-4.726
			c0-0.368,0.301-0.669,0.669-0.669c0.383,0,0.669,0.301,0.669,0.669V141.806z"/>
		<path fill="#091451" d="M42.208,143.622c0,0.382-0.3,0.683-0.683,0.683c-0.368,0-0.669-0.301-0.669-0.683v-4.671
			c0-0.696-0.56-1.242-1.229-1.242h-0.055c-0.669,0-1.229,0.546-1.229,1.242v4.671c0,0.382-0.301,0.683-0.669,0.683
			c-0.369,0-0.67-0.301-0.67-0.683v-4.671c0-0.71,0.246-1.311,0.751-1.816c0.506-0.505,1.106-0.765,1.816-0.765h0.055
			c0.71,0,1.312,0.26,1.816,0.765c0.506,0.506,0.765,1.106,0.765,1.816V143.622z"/>
		<path fill="#091451" d="M44.118,135.332c-0.437,0-0.806-0.368-0.806-0.806c0-0.45,0.369-0.806,0.806-0.806
			c0.438,0,0.807,0.355,0.807,0.806C44.925,134.964,44.556,135.332,44.118,135.332z M44.788,143.663c0,0.382-0.301,0.669-0.67,0.669
			c-0.368,0-0.669-0.287-0.669-0.669v-6.583c0-0.368,0.301-0.669,0.669-0.669c0.369,0,0.67,0.301,0.67,0.669V143.663z"/>
		<path fill="#091451" d="M48.666,144.373h-0.055c-0.71,0-1.325-0.246-1.83-0.751c-0.505-0.506-0.751-1.106-0.751-1.816v-2.854
			c0-0.71,0.246-1.311,0.751-1.816c0.505-0.505,1.12-0.765,1.83-0.765h0.055c0.928,0,1.802,0.52,2.253,1.339
			c0.055,0.095,0.082,0.204,0.082,0.327c0,0.369-0.301,0.669-0.669,0.669c-0.26,0-0.465-0.122-0.588-0.354
			c-0.231-0.424-0.601-0.642-1.078-0.642h-0.055c-0.669,0-1.229,0.546-1.229,1.242v2.854c0,0.669,0.561,1.229,1.229,1.229h0.055
			c0.478,0,0.847-0.218,1.078-0.655c0.123-0.231,0.328-0.354,0.588-0.354c0.382,0,0.683,0.3,0.683,0.683
			c0,0.109-0.027,0.219-0.082,0.313C50.481,143.854,49.607,144.373,48.666,144.373z"/>
		<path fill="#091451" d="M57.377,141.765c0,0.71-0.246,1.311-0.751,1.816c-0.505,0.505-1.106,0.751-1.816,0.751h-0.055
			c-0.71,0-1.311-0.246-1.816-0.751c-0.505-0.506-0.751-1.106-0.751-1.816v-0.396c0-0.71,0.246-1.311,0.751-1.816
			c0.506-0.505,1.106-0.765,1.816-0.765h0.055c0.41,0,0.792,0.096,1.161,0.287c0.041,0.014,0.068,0,0.068-0.041v-0.055
			c0-0.669-0.561-1.229-1.229-1.229h-0.055c-0.341,0-0.628,0.122-0.874,0.368c-0.123,0.123-0.287,0.191-0.464,0.191
			c-0.383,0-0.684-0.301-0.684-0.669c0-0.191,0.068-0.355,0.205-0.479c0.506-0.505,1.106-0.751,1.816-0.751h0.055
			c0.71,0,1.312,0.246,1.816,0.751c0.505,0.506,0.751,1.106,0.751,1.816V141.765z M56.039,141.368c0-0.696-0.561-1.242-1.229-1.242
			h-0.055c-0.669,0-1.229,0.546-1.229,1.242v0.396c0,0.669,0.56,1.229,1.229,1.229h0.055c0.669,0,1.229-0.561,1.229-1.229V141.368z"
			/>
		<path fill="#091451" d="M61.486,144.332h-0.355c-0.71,0-1.311-0.246-1.816-0.751c-0.505-0.506-0.751-1.106-0.751-1.816v-7.375
			c0-0.368,0.301-0.669,0.669-0.669c0.369,0,0.67,0.301,0.67,0.669v1.939c0,0.055,0.026,0.082,0.081,0.082h1.503
			c0.368,0,0.669,0.301,0.669,0.669c0,0.369-0.301,0.67-0.669,0.67h-1.503c-0.055,0-0.081,0.026-0.081,0.081v3.934
			c0,0.669,0.56,1.229,1.229,1.229h0.355c0.368,0,0.669,0.3,0.669,0.669C62.155,144.045,61.854,144.332,61.486,144.332z"/>
		<path fill="#091451" d="M64.079,135.332c-0.437,0-0.806-0.368-0.806-0.806c0-0.45,0.369-0.806,0.806-0.806
			c0.438,0,0.806,0.355,0.806,0.806C64.885,134.964,64.517,135.332,64.079,135.332z M64.748,143.663c0,0.382-0.3,0.669-0.669,0.669
			c-0.368,0-0.669-0.287-0.669-0.669v-6.583c0-0.368,0.301-0.669,0.669-0.669c0.369,0,0.669,0.301,0.669,0.669V143.663z"/>
		<path fill="#091451" d="M71.194,141.806c0,0.71-0.246,1.311-0.751,1.816c-0.505,0.505-1.106,0.751-1.816,0.751h-0.055
			c-0.71,0-1.311-0.246-1.816-0.751c-0.505-0.506-0.751-1.106-0.751-1.816v-2.854c0-0.71,0.246-1.311,0.751-1.816
			c0.506-0.505,1.106-0.765,1.816-0.765h0.055c0.71,0,1.312,0.26,1.816,0.765c0.505,0.506,0.751,1.106,0.751,1.816V141.806z
			 M69.856,138.951c0-0.696-0.561-1.242-1.229-1.242h-0.055c-0.669,0-1.229,0.546-1.229,1.242v2.854c0,0.669,0.56,1.229,1.229,1.229
			h0.055c0.669,0,1.229-0.56,1.229-1.229V138.951z"/>
		<path fill="#091451" d="M77.584,143.622c0,0.382-0.301,0.683-0.683,0.683c-0.369,0-0.669-0.301-0.669-0.683v-4.671
			c0-0.696-0.561-1.242-1.229-1.242h-0.055c-0.669,0-1.229,0.546-1.229,1.242v4.671c0,0.382-0.301,0.683-0.67,0.683
			c-0.368,0-0.669-0.301-0.669-0.683v-4.671c0-0.71,0.246-1.311,0.751-1.816c0.506-0.505,1.106-0.765,1.816-0.765h0.055
			c0.71,0,1.312,0.26,1.816,0.765c0.505,0.506,0.765,1.106,0.765,1.816V143.622z"/>
		<path fill="#091451" d="M10.626,162.668c-0.146,0.52-0.458,0.77-0.978,0.77s-0.852-0.25-0.997-0.77l-1.601-6.089
			c-0.021-0.021-0.041-0.042-0.062-0.042c-0.021,0-0.021,0.021-0.041,0.042l-1.601,6.089c-0.146,0.52-0.478,0.77-0.997,0.77
			s-0.832-0.25-0.978-0.77l-2.639-10.017c-0.021-0.083-0.042-0.166-0.042-0.271c0-0.561,0.457-1.019,1.019-1.019
			c0.52,0,0.852,0.25,0.997,0.77l1.601,6.089c0.021,0.021,0.021,0.042,0.042,0.042c0.021,0,0.041-0.021,0.062-0.042l1.601-6.089
			c0.146-0.52,0.457-0.77,0.977-0.77s0.853,0.25,0.998,0.77l1.6,6.089c0.021,0.021,0.042,0.042,0.062,0.042
			c0.021,0,0.021-0.021,0.042-0.042l1.601-6.089c0.146-0.52,0.478-0.77,0.997-0.77c0.562,0,1.019,0.458,1.019,1.019
			c0,0.104-0.021,0.188-0.042,0.271L10.626,162.668z"/>
		<path fill="#091451" d="M16.218,149.68c-0.665,0-1.227-0.562-1.227-1.227c0-0.686,0.562-1.227,1.227-1.227
			s1.227,0.541,1.227,1.227C17.444,149.118,16.883,149.68,16.218,149.68z M17.236,162.356c0,0.582-0.457,1.019-1.019,1.019
			s-1.019-0.437-1.019-1.019V152.34c0-0.562,0.457-1.019,1.019-1.019s1.019,0.457,1.019,1.019V162.356z"/>
		<path fill="#091451" d="M23.596,163.375h-0.54c-1.081,0-1.995-0.374-2.765-1.143c-0.769-0.77-1.143-1.684-1.143-2.765v-11.223
			c0-0.561,0.457-1.019,1.019-1.019c0.561,0,1.018,0.458,1.018,1.019v2.951c0,0.083,0.042,0.125,0.125,0.125h2.286
			c0.562,0,1.019,0.457,1.019,1.019c0,0.561-0.457,1.018-1.019,1.018H21.31c-0.083,0-0.125,0.042-0.125,0.125v5.985
			c0,1.019,0.853,1.87,1.871,1.87h0.54c0.562,0,1.019,0.458,1.019,1.019C24.614,162.938,24.157,163.375,23.596,163.375z"/>
		<path fill="#091451" d="M34.32,162.356c0,0.582-0.437,1.019-1.019,1.019c-0.561,0-1.018-0.437-1.018-1.019v-7.128
			c0-1.019-0.853-1.871-1.871-1.871H30.33c-1.019,0-1.87,0.853-1.87,1.871v7.128c0,0.582-0.457,1.019-1.019,1.019
			c-0.582,0-1.019-0.437-1.019-1.019v-14.09c0-0.562,0.437-1.019,1.019-1.019c0.562,0,1.019,0.457,1.019,1.019v3.408
			c0,0.083,0.042,0.104,0.104,0.062c0.562-0.271,1.144-0.416,1.767-0.416h0.083c1.081,0,1.995,0.374,2.765,1.143
			c0.769,0.77,1.143,1.684,1.143,2.765V162.356z"/>
		<path fill="#091451" d="M49.535,159.468c0,1.081-0.374,1.995-1.143,2.765c-0.77,0.769-1.684,1.143-2.765,1.143h-0.083
			c-1.08,0-1.995-0.374-2.764-1.143c-0.77-0.77-1.144-1.684-1.144-2.765v-4.239c0-1.081,0.374-1.995,1.144-2.765
			c0.769-0.769,1.684-1.143,2.764-1.143h0.083c0.624,0,1.206,0.146,1.767,0.416c0.062,0.041,0.104,0.021,0.104-0.062v-3.408
			c0-0.562,0.457-1.019,1.018-1.019c0.582,0,1.019,0.457,1.019,1.019V159.468z M47.499,155.229c0-1.019-0.853-1.871-1.871-1.871
			h-0.083c-1.019,0-1.87,0.853-1.87,1.871v4.239c0,1.019,0.852,1.87,1.87,1.87h0.083c1.019,0,1.871-0.852,1.871-1.87V155.229z"/>
		<path fill="#091451" d="M59.241,159.468c0,1.081-0.374,1.995-1.143,2.765c-0.77,0.769-1.684,1.143-2.765,1.143h-0.083
			c-1.081,0-1.995-0.374-2.764-1.143c-0.77-0.77-1.144-1.684-1.144-2.765v-0.603c0-1.081,0.374-1.995,1.144-2.764
			c0.769-0.77,1.683-1.164,2.764-1.164h0.083c0.624,0,1.205,0.146,1.767,0.437c0.062,0.021,0.104,0,0.104-0.062v-0.083
			c0-1.019-0.852-1.871-1.87-1.871h-0.083c-0.52,0-0.956,0.188-1.33,0.562c-0.187,0.188-0.437,0.291-0.707,0.291
			c-0.581,0-1.039-0.457-1.039-1.019c0-0.291,0.104-0.54,0.312-0.728c0.769-0.769,1.683-1.143,2.764-1.143h0.083
			c1.081,0,1.995,0.374,2.765,1.143c0.769,0.77,1.143,1.684,1.143,2.765V159.468z M57.204,158.865c0-1.06-0.852-1.892-1.87-1.892
			h-0.083c-1.019,0-1.87,0.832-1.87,1.892v0.603c0,1.019,0.852,1.87,1.87,1.87h0.083c1.019,0,1.87-0.852,1.87-1.87V158.865z"/>
		<path fill="#091451" d="M65.498,163.375h-0.54c-1.081,0-1.995-0.374-2.764-1.143c-0.77-0.77-1.144-1.684-1.144-2.765v-11.223
			c0-0.561,0.457-1.019,1.019-1.019s1.019,0.458,1.019,1.019v2.951c0,0.083,0.041,0.125,0.124,0.125h2.286
			c0.562,0,1.019,0.457,1.019,1.019c0,0.561-0.457,1.018-1.019,1.018h-2.286c-0.083,0-0.124,0.042-0.124,0.125v5.985
			c0,1.019,0.852,1.87,1.87,1.87h0.54c0.562,0,1.019,0.458,1.019,1.019C66.517,162.938,66.06,163.375,65.498,163.375z"/>
		<path fill="#091451" d="M76.223,159.468c0,1.081-0.374,1.995-1.143,2.765c-0.77,0.769-1.684,1.143-2.765,1.143h-0.083
			c-1.081,0-1.995-0.374-2.764-1.143c-0.77-0.77-1.144-1.684-1.144-2.765v-0.603c0-1.081,0.374-1.995,1.144-2.764
			c0.769-0.77,1.683-1.164,2.764-1.164h0.083c0.624,0,1.205,0.146,1.767,0.437c0.062,0.021,0.104,0,0.104-0.062v-0.083
			c0-1.019-0.852-1.871-1.87-1.871h-0.083c-0.52,0-0.956,0.188-1.33,0.562c-0.188,0.188-0.437,0.291-0.707,0.291
			c-0.581,0-1.039-0.457-1.039-1.019c0-0.291,0.104-0.54,0.312-0.728c0.769-0.769,1.683-1.143,2.764-1.143h0.083
			c1.081,0,1.995,0.374,2.765,1.143c0.769,0.77,1.143,1.684,1.143,2.765V159.468z M74.186,158.865c0-1.06-0.852-1.892-1.87-1.892
			h-0.083c-1.019,0-1.87,0.832-1.87,1.892v0.603c0,1.019,0.852,1.87,1.87,1.87h0.083c1.019,0,1.87-0.852,1.87-1.87V158.865z"/>
	</g>
</g>
</svg>
