<?xml version="1.0" encoding="utf-8"?>
<!-- Generator: Adobe Illustrator 16.0.0, SVG Export Plug-In . SVG Version: 6.00 Build 0)  -->
<!DOCTYPE svg PUBLIC "-//W3C//DTD SVG 1.1//EN" "http://www.w3.org/Graphics/SVG/1.1/DTD/svg11.dtd">
<svg version="1.1" id="Layer_1" xmlns="http://www.w3.org/2000/svg" xmlns:xlink="http://www.w3.org/1999/xlink" x="0px" y="0px"
	 width="52px" height="66px" viewBox="0 0 52 66" enable-background="new 0 0 52 66" xml:space="preserve">
<g opacity="0.1">
	<path fill="#59C5D1" d="M26,0.375c-14.05,0-25.547,11.072-25.547,24.695c0,5.394,1.845,10.504,5.108,14.762l19.304,25.262
		c0.423,0.566,1.42,0.71,1.986,0.283c0.142-0.143,0.142-0.143,0.283-0.283l19.304-25.262c3.264-4.258,5.107-9.368,5.107-14.762
		C51.547,11.447,40.051,0.375,26,0.375z M24.013,34.723c-5.392-1.137-8.94-6.246-7.806-11.641c1.136-5.391,6.245-8.941,11.638-7.805
		c3.974,0.853,7.096,3.832,7.808,7.805c0.993,5.395-2.556,10.645-7.808,11.641C26.567,35.004,25.289,35.004,24.013,34.723z"/>
</g>
</svg>
