<?xml version="1.0" encoding="utf-8"?>
<!-- Generator: Adobe Illustrator 16.0.0, SVG Export Plug-In . SVG Version: 6.00 Build 0)  -->
<!DOCTYPE svg PUBLIC "-//W3C//DTD SVG 1.1//EN" "http://www.w3.org/Graphics/SVG/1.1/DTD/svg11.dtd">
<svg version="1.1" id="Layer_1" xmlns="http://www.w3.org/2000/svg" xmlns:xlink="http://www.w3.org/1999/xlink" x="0px" y="0px"
	 width="247px" height="66px" viewBox="0 0 247 66" enable-background="new 0 0 247 66" xml:space="preserve">
<g>
	<g>
		<path fill-rule="evenodd" clip-rule="evenodd" fill="#00ADEE" d="M1.31,52.458l24.188-41.835c1.509-2.615,1.705-1.475,1.357,0.213
			c-0.732,3.556-2.089,14.235-0.622,24.875c0.334,2.417,0.654,4.02-1.285,5.988C18.261,48.492,9.295,52.9,3.224,55.174
			C1.445,55.84-1.282,56.943,1.31,52.458"/>
		<path fill-rule="evenodd" clip-rule="evenodd" fill="#00ADEE" d="M53.071,57.575l-48.32-0.029c-3.021,0-2.133-0.74-0.498-1.283
			c3.447-1.141,13.373-5.309,21.855-11.899c1.926-1.496,3.152-2.576,5.828-1.881c9.227,2.395,17.529,7.954,22.532,12.073
			C55.935,55.766,58.254,57.575,53.071,57.575"/>
		<path fill-rule="evenodd" clip-rule="evenodd" fill="#00ADEE" d="M31.601,10.116l24.135,41.86c1.51,2.619,0.426,2.219-0.861,1.075
			c-2.713-2.418-11.283-8.93-21.232-12.981c-2.26-0.919-3.809-1.444-4.544-4.105c-2.54-9.188-1.876-19.156-0.808-25.553
			C28.603,8.539,29.011,5.628,31.601,10.116"/>
	</g>
	<path fill="#00ADEE" d="M104.106,14.088c-0.484,0-0.875,0.389-0.875,0.875c0,0,0.021,0.821,0.021,1.322
		c0,1.067,0.854,1.437,1.583,1.437s2.838,0.016,3.331,0.016v4.359c-0.854,0.043-1.688,0.245-2.469,0.657
		c-0.891,0.476-1.619,1.13-2.17,1.93c-0.562,0.811-0.842,1.719-0.842,2.712c0,1.501,0.66,2.796,1.964,3.846
		c1.218,0.957,2.597,1.439,4.116,1.439c1.527,0,2.911-0.483,4.111-1.439c1.285-1.03,1.941-2.325,1.941-3.846
		c0-1.208-0.431-2.32-1.27-3.337c-0.727-0.871-1.647-1.483-2.699-1.875v-6.306c0-0.19-0.159-0.342-0.35-0.342h-4.588v-0.573
		c0-0.486-0.391-0.875-0.869-0.875H104.106z M106.415,29.543c-0.702-0.615-1.047-1.317-1.047-2.143c0-1.164,0.583-2.047,1.778-2.688
		c0.55-0.304,1.101-0.457,1.612-0.457c1.191,0,2.137,0.535,2.881,1.631c0.325,0.482,0.484,0.989,0.484,1.515
		c0,1.131-0.582,1.99-1.791,2.637c-0.545,0.287-1.068,0.432-1.574,0.432C107.896,30.469,107.126,30.173,106.415,29.543z
		 M75.913,16.014c-0.495-0.521-1.07-0.972-1.764-1.305c-0.828-0.414-1.68-0.608-2.519-0.608c-0.966,0-1.907,0.249-2.796,0.733
		c-0.893,0.486-1.629,1.146-2.184,1.938c-0.559,0.821-0.854,1.731-0.854,2.704v7.919c0,1.964,1.033,3.505,3.064,4.569
		c0.887,0.473,1.81,0.716,2.769,0.716c0.966,0,1.897-0.243,2.778-0.716c0.875-0.471,1.605-1.106,2.166-1.896
		c0.569-0.817,0.854-1.717,0.854-2.673v-7.962c0-0.844,0.168-1.557,0.5-2.127c0.384-0.671,0.919-0.997,1.633-0.997
		c0.758,0,1.357,0.369,1.846,1.127c0.194,0.308,0.289,0.636,0.289,0.977v9.952c0,0.659-0.068,1.197-0.24,1.858
		c-0.148,0.587-0.688,1.379-0.691,1.379c-0.175,0.287-0.197,0.554-0.08,0.771c0.109,0.193,0.322,0.307,0.571,0.307h0.939
		c0.409,0,0.851-0.325,1.138-0.69c0.221-0.284,0.463-0.701,0.676-1.334c0.226-0.658,0.368-1.562,0.368-2.291v-9.952
		c0-1.614-1.382-3.153-2.552-3.761c-0.731-0.373-1.484-0.552-2.264-0.552C78.077,14.101,76.856,14.761,75.913,16.014z
		 M69.417,29.547c-0.628-0.614-0.933-1.321-0.933-2.151v-7.919c0-1.113,0.535-2,1.64-2.697c0.494-0.314,0.988-0.47,1.507-0.47
		c0.827,0,1.549,0.305,2.179,0.917c0.629,0.611,0.937,1.323,0.937,2.159v8.01c0,1.171-0.518,2.028-1.579,2.642
		c-0.496,0.284-1.002,0.432-1.536,0.432C70.771,30.469,70.043,30.173,69.417,29.547z M88.286,17.062
		c-0.543,1.281-0.822,3.233-0.822,5.82c0,1.638,0.25,3.988,0.427,4.965c0.489,2.678,1.064,3.755,1.265,4.1
		c0.264,0.459,0.676,0.733,1.1,0.733h0.938c0.249,0,0.465-0.113,0.585-0.298c0.126-0.211,0.13-0.507,0-0.728
		c-0.136-0.226-0.538-0.941-0.877-2.108c-0.497-1.708-0.749-3.948-0.749-6.664c0-1.889,0.17-3.368,0.502-4.406
		c0.481-1.455,1.425-2.167,2.885-2.167c1.467,0,2.411,0.712,2.895,2.171c0.312,0.965,0.477,2.441,0.477,4.402
		c0,2.596-0.268,4.801-0.805,6.727c-0.322,1.128-0.648,1.785-0.789,2.034c-0.143,0.246-0.132,0.528-0.004,0.739
		c0.118,0.185,0.326,0.298,0.578,0.298h0.941c0.428,0,0.749-0.204,1.067-0.675c0.302-0.463,0.876-1.821,1.243-3.887
		c0.27-1.482,0.455-3.514,0.455-5.236c0-2.668-0.262-4.582-0.795-5.841c-0.834-1.953-2.604-2.941-5.259-2.941
		C90.894,14.101,89.124,15.096,88.286,17.062z M118.712,17.062c-0.537,1.281-0.818,3.233-0.818,5.82
		c0,1.638,0.249,3.988,0.426,4.965c0.49,2.678,1.066,3.755,1.263,4.1c0.268,0.459,0.681,0.733,1.101,0.733h0.941
		c0.252,0,0.461-0.113,0.579-0.298c0.126-0.211,0.132-0.507,0-0.728c-0.132-0.226-0.531-0.941-0.872-2.108
		c-0.498-1.708-0.749-3.948-0.749-6.664c0-1.889,0.165-3.368,0.5-4.406c0.483-1.455,1.427-2.167,2.886-2.167
		c1.463,0,2.41,0.712,2.893,2.171c0.314,0.965,0.475,2.441,0.475,4.402c0,2.596-0.264,4.801-0.803,6.727
		c-0.318,1.128-0.645,1.785-0.787,2.034c-0.143,0.246-0.129,0.528-0.002,0.739c0.111,0.185,0.326,0.298,0.576,0.298h0.941
		c0.428,0,0.75-0.204,1.068-0.675c0.303-0.463,0.877-1.821,1.242-3.887c0.271-1.482,0.455-3.514,0.455-5.236
		c0-2.668-0.26-4.582-0.795-5.841c-0.834-1.953-2.604-2.941-5.26-2.941C121.321,14.101,119.552,15.096,118.712,17.062z
		 M148.189,17.062c-0.543,1.281-0.818,3.233-0.818,5.82c0,1.638,0.248,3.988,0.422,4.965c0.492,2.678,1.068,3.755,1.266,4.1
		c0.264,0.459,0.678,0.733,1.104,0.733h0.936c0.248,0,0.463-0.113,0.576-0.298c0.131-0.211,0.135-0.507,0.006-0.728
		c-0.135-0.226-0.537-0.941-0.877-2.108c-0.49-1.708-0.748-3.948-0.748-6.664c0-1.889,0.17-3.368,0.504-4.406
		c0.48-1.455,1.424-2.167,2.885-2.167c1.467,0,2.408,0.712,2.895,2.171c0.312,0.965,0.477,2.441,0.477,4.402
		c0,2.596-0.264,4.801-0.811,6.727c-0.312,1.128-0.643,1.785-0.783,2.034c-0.146,0.246-0.131,0.528-0.004,0.739
		c0.115,0.185,0.324,0.298,0.578,0.298h0.936c0.432,0,0.754-0.204,1.078-0.675c0.301-0.463,0.871-1.821,1.242-3.887
		c0.258-1.482,0.449-3.514,0.449-5.236c0-2.668-0.26-4.582-0.797-5.841c-0.832-1.953-2.6-2.941-5.256-2.941
		C150.794,14.101,149.029,15.096,148.189,17.062z M134,14.088c-0.48,0-0.873,0.389-0.873,0.875v12.65c0,1.6,0.564,2.87,1.668,3.777
		c1.02,0.855,2.336,1.29,3.912,1.29c2.379,0,4.047-0.839,4.943-2.489c0.428-0.777,0.641-1.644,0.641-2.578
		c0-2.866-1.807-3.648-1.986-4.186c-0.039-0.117,0.066-0.351,0.066-0.351c0.09-0.288,0.061-0.548-0.082-0.735
		c-0.135-0.183-0.352-0.282-0.596-0.282h-0.939c-0.447,0-0.811,0.259-1.012,0.734c-0.275,0.661,0.006,1.467,0.5,1.996
		c0.508,0.529,1.367,1.221,1.367,2.823c0,1.042-0.225,1.786-0.66,2.202c-0.438,0.427-1.197,0.653-2.242,0.653
		c-1.975,0-2.893-0.91-2.893-2.855v-12.65c0-0.486-0.395-0.875-0.875-0.875H134z"/>
	<path fill="#00ADEE" d="M116.419,48.337c0,5.714,3.582,9.403,9.135,9.403c1.826,0,3.424-0.38,4.217-0.607
		c0.459-0.127,0.707-0.539,0.605-0.982l-0.158-0.662c-0.055-0.233-0.191-0.42-0.375-0.535c-0.178-0.106-0.393-0.133-0.617-0.066
		c0,0-1.838,0.533-3.18,0.533c-4.266,0-6.819-2.678-6.819-7.167c0-4.536,2.659-7.351,6.95-7.351c1.205,0,2.311,0.311,2.967,0.485
		c0.432,0.124,0.895-0.108,1.029-0.505c0-0.01,0.219-0.653,0.219-0.653c0.066-0.209,0.047-0.433-0.045-0.631
		c-0.1-0.195-0.268-0.343-0.471-0.413c-0.881-0.277-2.434-0.58-3.781-0.58C120.31,38.605,116.419,42.52,116.419,48.337
		 M93.001,39.061c-0.5,0.074-0.793,0.373-0.793,0.821v16.755c0,0.424,0.295,0.748,0.744,0.815c0.396,0.046,1.893,0.152,3.064,0.152
		c3.041,0,5.125-0.571,6.374-1.745c1.077-1.009,1.627-2.271,1.627-3.762c0-2.379-1.685-3.999-3.315-4.592
		c1.731-0.837,2.633-2.189,2.633-4.042c0-1.407-0.555-2.56-1.6-3.337c-1.133-0.941-2.697-1.358-5.074-1.358
		C95.876,38.769,94.505,38.848,93.001,39.061z M94.88,46.473v-5.249c0-0.093,0.089-0.196,0.181-0.218c0,0,0.649-0.093,1.741-0.104
		c1.557-0.017,3.811,0.485,3.811,2.808c0,1.86-1.489,2.929-4.084,2.929h-1.484C94.949,46.639,94.88,46.565,94.88,46.473z
		 M95.048,55.384c0,0-0.168-0.027-0.168-0.177v-6.336c0-0.089,0.069-0.159,0.164-0.159h1.617c2.848,0,4.549,1.249,4.549,3.356
		c0,2.938-2.833,3.388-4.521,3.388L95.048,55.384z M66.808,38.902c-0.455,0-0.822,0.37-0.822,0.819v0.686
		c0,0.446,0.367,0.816,0.822,0.816h4.561c0.088,0,0.163,0.07,0.163,0.159v15.245c0,0.452,0.368,0.817,0.819,0.817h1.058
		c0.456,0,0.821-0.365,0.821-0.817V41.383c0-0.089,0.08-0.159,0.16-0.159h4.588c0.456,0,0.82-0.37,0.82-0.816v-0.686
		c0-0.449-0.364-0.819-0.82-0.819H66.808z"/>
	<path fill="#00ADEE" d="M156.42,39.062c-0.496,0.065-0.793,0.374-0.793,0.821v16.753c0,0.424,0.297,0.748,0.748,0.816
		c0.396,0.048,1.885,0.151,3.061,0.151c3.041,0,5.125-0.571,6.379-1.745c1.074-1.009,1.621-2.271,1.621-3.762
		c0-2.38-1.686-3.999-3.312-4.592c1.738-0.837,2.633-2.188,2.633-4.04c0-1.405-0.467-2.407-1.602-3.338
		c-1.133-0.938-2.703-1.358-5.074-1.358C159.297,38.77,157.924,38.848,156.42,39.062 M158.307,46.473v-5.247
		c0-0.095,0.084-0.198,0.178-0.22c0,0,0.373-0.111,1.74-0.104c2.34,0.005,3.809,0.949,3.809,2.808c0,1.86-1.488,2.929-4.084,2.929
		h-1.49C158.371,46.639,158.307,46.565,158.307,46.473z M158.459,55.384c0,0-0.152-0.024-0.152-0.174v-6.339
		c0-0.087,0.064-0.159,0.152-0.159h1.621c2.846,0,4.549,1.249,4.549,3.358c0,2.938-2.828,3.386-4.518,3.386L158.459,55.384z
		 M219.705,38.902c-0.451,0-0.82,0.37-0.82,0.822l0.006,13.618l-8.316-13.954c-0.195-0.316-0.451-0.486-0.752-0.486h-1.576
		c-0.453,0-0.82,0.37-0.82,0.822v16.903c0,0.45,0.367,0.819,0.82,0.819h0.895c0.451,0,0.822-0.369,0.822-0.819l-0.006-13.954
		c0,0,8.516,14.242,8.611,14.37c0.141,0.191,0.412,0.403,0.689,0.403h1.346c0.449,0,0.822-0.369,0.822-0.819V39.725
		c0-0.452-0.373-0.822-0.822-0.822H219.705z M244.061,38.902c-0.385,0-0.926,0.288-1.221,0.668l-6.32,7.707v-7.553
		c0-0.452-0.371-0.822-0.818-0.822h-1.035c-0.455,0-0.824,0.37-0.824,0.822v16.903c0,0.45,0.369,0.819,0.824,0.819h1.035
		c0.447,0,0.818-0.369,0.818-0.819v-5.967c0-0.136,0.08-0.354,0.174-0.455l1.328-1.521c0.096-0.039,0.119-0.018,0.141,0.006
		l5.396,8.104c0.229,0.364,0.697,0.652,1.072,0.652h1.596c0.203,0,0.367-0.089,0.447-0.241c0.084-0.173,0.047-0.387-0.104-0.591
		c0,0-6.432-9.552-6.5-9.646c-0.051-0.085-0.049-0.228,0.021-0.319l5.895-6.872c0.26-0.323,0.246-0.529,0.189-0.65
		c-0.041-0.085-0.148-0.226-0.438-0.226H244.061z M186.543,38.902c-0.232,0-0.67,0.116-0.924,0.856l-5.725,16.82
		c-0.07,0.216-0.047,0.419,0.068,0.58c0.133,0.178,0.363,0.288,0.621,0.288h1.145c0.455,0,0.719-0.212,0.867-0.683l4.768-15.107
		l4.859,15.085c0.146,0.454,0.424,0.705,0.799,0.705h1.146c0.42,0,0.621-0.154,0.721-0.288c0.129-0.181,0.148-0.414,0.064-0.676
		c0,0-5.709-16.787-5.703-16.787c-0.236-0.653-0.627-0.794-0.92-0.794H186.543z M185.285,53.9c-0.494,0-0.691-0.349-0.447-0.775
		l2.068-3.584c0.248-0.428,0.648-0.428,0.895,0l2.07,3.584c0.25,0.427,0.047,0.775-0.445,0.775H185.285z"/>
	<path fill="#00ADEE" d="M177.691,14.088c-0.484,0-0.875,0.39-0.875,0.875c0,0,0.025,0.821,0.025,1.322
		c0,1.067,0.85,1.438,1.582,1.438c0.727,0,2.832,0.013,3.328,0.013v4.363c-0.854,0.041-1.688,0.244-2.467,0.657
		c-0.895,0.474-1.619,1.128-2.172,1.928c-0.561,0.811-0.844,1.721-0.844,2.713c0,1.501,0.666,2.795,1.967,3.846
		c1.217,0.958,2.598,1.438,4.111,1.438c1.533,0,2.914-0.485,4.117-1.438c1.285-1.031,1.941-2.326,1.941-3.846
		c0-1.209-0.43-2.323-1.271-3.338c-0.729-0.871-1.646-1.483-2.699-1.876v-6.305c0-0.19-0.154-0.342-0.354-0.342h-4.58v-0.573
		c0-0.485-0.395-0.875-0.873-0.875H177.691z M179.996,29.541c-0.697-0.613-1.043-1.318-1.043-2.141c0-1.164,0.582-2.047,1.777-2.689
		c0.553-0.303,1.096-0.454,1.613-0.454c1.199,0,2.137,0.533,2.885,1.629c0.322,0.482,0.482,0.989,0.482,1.515
		c0,1.131-0.586,1.99-1.795,2.637c-0.537,0.287-1.064,0.432-1.572,0.432C181.48,30.469,180.713,30.173,179.996,29.541z
		 M206.676,15.673c-0.338,0.503-0.5,1.067-0.5,1.691v10.701c0,1.866,0.975,3.227,2.908,4.069c0.855,0.363,1.754,0.546,2.672,0.546
		c2.262,0,3.9-0.816,4.861-2.434c0.475-0.789,0.719-1.749,0.719-2.847c0-1.604-0.537-2.902-1.6-3.883
		c-1.061-0.965-2.398-1.455-3.98-1.455c-1.23,0-2.207,0.219-2.896,0.635v-5.333c0-0.585,0.156-1.172,1.379-1.172
		c0.35,0,0.941,0.278,1.533,0.456c0.594,0.174,1.674,0.51,2.381,0.51c1.641,0,2.621-0.615,2.621-1.642v-0.708
		c0-0.258-0.098-0.46-0.289-0.588c-0.111-0.074-0.354-0.18-0.719-0.03c-0.781,0.326-1.525,0.43-2.416,0.345
		c-0.084-0.008-1.094-0.171-1.094-0.171c-0.619-0.155-1.32-0.308-2.24-0.308C208.529,14.057,207.406,14.608,206.676,15.673z
		 M209.58,29.621c-0.482-0.532-0.721-1.272-0.721-2.221c0-1.121,0.217-1.938,0.664-2.429c0.428-0.474,1.182-0.715,2.227-0.715
		c1.379,0,2.23,0.416,2.602,1.276c0.195,0.447,0.293,1.082,0.293,1.867c0,2.096-0.916,3.068-2.895,3.068
		C210.801,30.469,210.092,30.191,209.58,29.621z M194.883,14.088c-0.482,0-0.877,0.39-0.877,0.875v1.468
		c0,1.171,0.322,2.146,0.949,2.901c0.408,0.498,1.227,1.123,2.488,1.909c1.092,0.667,1.852,1.312,2.246,1.931
		c0.49,0.742,0.738,1.742,0.738,2.952c0,1.192-0.244,2.189-0.725,2.971c-0.543,0.923-1.328,1.374-2.398,1.374
		c-1.145,0-2.027-0.584-2.693-1.785c-0.299-0.541-0.453-1.062-0.453-1.541c0-1.104,0.221-1.902,0.291-2.127
		c0.076-0.251,0.043-0.495-0.094-0.682c-0.139-0.187-0.354-0.295-0.596-0.295h-0.941c-0.428,0-0.828,0.303-1.008,0.751
		c-0.156,0.385-0.332,1.446-0.332,2.353c0,1.536,0.592,2.855,1.76,3.934c1.164,1.062,2.529,1.604,4.066,1.604
		c1.822,0,3.287-0.675,4.344-2.013c0.971-1.221,1.467-2.768,1.467-4.588c0-1.451-0.303-2.691-0.898-3.693
		c-0.531-0.939-1.424-1.837-2.645-2.686c-1.162-0.808-1.85-1.312-2.039-1.508c-0.57-0.568-0.842-1.216-0.842-1.981v-1.249
		c0-0.485-0.398-0.875-0.877-0.875H194.883z M227.363,14.968v1.003c0,0.475,0.4,0.625,0.646,0.82
		c0.447,0.348,0.861,0.845,0.861,1.631c0,0.787-0.176,1.416-0.529,1.905c-0.293,0.382-0.658,0.72-1.135,0.72
		c-0.479,0-0.893,0.416-0.893,0.887v0.459c0,0.49,0.461,0.891,0.893,0.891c0.424,0,0.957,0.375,1.344,1.008
		c0.223,0.351,0.32,0.782,0.32,1.124v2.455c0,0.824-0.256,1.451-0.795,1.901c-0.539,0.463-1.244,0.697-2.102,0.697
		c-0.881,0-1.566-0.283-2.094-0.861c-0.539-0.593-0.822-1.279-0.797-2.207c0.018-1.113,0.277-1.863,0.408-2.45
		c0.125-0.583-0.094-0.911-0.709-0.911h-0.938c-0.467,0-0.879,0.308-1.027,0.793c-0.152,0.487-0.42,1.518-0.42,2.564
		c0,1.633,0.539,2.939,1.602,3.904c1,0.915,2.344,1.38,3.982,1.38c1.443,0,2.713-0.426,3.791-1.267
		c1.184-0.926,1.787-2.117,1.787-3.552v-2.45c0-1.338-0.652-2.416-1.869-3.272c1.221-0.972,1.869-2.212,1.869-3.727
		c0-1.049-0.373-2.042-1.105-2.927c-0.551-0.671-1.568-1.386-2.219-1.386C227.771,14.101,227.363,14.509,227.363,14.968z
		 M235.449,17.062c-0.551,1.281-0.826,3.234-0.826,5.82c0,1.638,0.248,3.988,0.424,4.963c0.496,2.682,1.07,3.758,1.266,4.102
		c0.258,0.46,0.678,0.733,1.1,0.733h0.941c0.244,0,0.465-0.111,0.574-0.298c0.131-0.211,0.135-0.507,0.006-0.727
		c-0.131-0.227-0.533-0.942-0.877-2.109c-0.49-1.708-0.744-3.948-0.744-6.664c0-1.891,0.166-3.368,0.496-4.406
		c0.488-1.455,1.43-2.167,2.891-2.167c1.463,0,2.408,0.712,2.893,2.169c0.312,0.967,0.479,2.443,0.479,4.404
		c0,2.597-0.268,4.801-0.811,6.725c-0.312,1.129-0.643,1.787-0.783,2.036c-0.146,0.246-0.137,0.528-0.006,0.739
		c0.115,0.187,0.324,0.298,0.574,0.298h0.941c0.434,0,0.754-0.204,1.074-0.675c0.303-0.463,0.877-1.82,1.246-3.887
		c0.264-1.478,0.449-3.514,0.449-5.236c0-2.668-0.26-4.582-0.797-5.842c-0.834-1.952-2.6-2.94-5.256-2.94
		C238.055,14.101,236.283,15.096,235.449,17.062z"/>
</g>
</svg>
